<svg width="1200" height="3240" fill="none" xmlns="http://www.w3.org/2000/svg">
  <path d="M810.301 131.734l-2.742 2.954V142h-5.274v-25.594h5.274v11.602l2.32-3.182 6.521-8.42h6.487l-9.088 11.373L823.15 142h-6.275l-6.574-10.266zm29.285 4.993h-9.246L828.582 142h-5.607l9.527-25.594h4.887l9.58 25.594h-5.608l-1.775-5.273zm-7.822-4.272h6.398l-3.217-9.58-3.181 9.58zm24.486-16.049l6.574 18.563 6.539-18.563h6.926V142h-5.291v-6.996l.527-12.076L864.617 142h-3.621l-6.891-19.055.528 12.059V142h-5.274v-25.594h6.891z" fill="#FEDD00"/>
  <path d="M810.301 131.734l.421-.269-.348-.544-.44.473.367.34zm-2.742 2.954l-.367-.341-.133.144v.197h.5zm0 7.312v.5h.5v-.5h-.5zm-5.274 0h-.5v.5h.5v-.5zm0-25.594v-.5h-.5v.5h.5zm5.274 0h.5v-.5h-.5v.5zm0 11.602h-.5v1.534l.904-1.24-.404-.294zm2.32-3.182l-.395-.306-.005.006-.004.006.404.294zm6.521-8.42v-.5h-.245l-.15.194.395.306zm6.487 0l.39.312.649-.812h-1.039v.5zm-9.088 11.373l-.391-.312-.226.284.199.303.418-.275zM823.15 142v.5h.928l-.51-.775-.418.275zm-6.275 0l-.421.27.147.23h.274v-.5zm-6.941-10.606l-2.742 2.953.733.681 2.742-2.953-.733-.681zm-2.875 3.294V142h1v-7.312h-1zm.5 6.812h-5.274v1h5.274v-1zm-4.774.5v-25.594h-1V142h1zm-.5-25.094h5.274v-1h-5.274v1zm4.774-.5v11.602h1v-11.602h-1zm.904 11.896l2.32-3.181-.808-.589-2.32 3.181.808.589zm2.311-3.17l6.522-8.42-.791-.612-6.521 8.42.79.612zm6.126-8.226h6.487v-1H816.4v1zm6.096-.812l-9.088 11.373.781.624 9.088-11.373-.781-.624zm-9.115 11.96l9.352 14.221.835-.55-9.351-14.22-.836.549zm9.769 13.446h-6.275v1h6.275v-1zm-5.854.23l-6.574-10.265-.842.539 6.574 10.266.842-.54zm22.29-5.003l.474-.16-.115-.34h-.359v.5zm-9.246 0v-.5h-.361l-.113.341.474.159zM828.582 142v.5h.36l.114-.342-.474-.158zm-5.607 0l-.469-.174-.251.674h.72v-.5zm9.527-25.594v-.5h-.347l-.122.326.469.174zm4.887 0l.468-.175-.122-.325h-.346v.5zm9.58 25.594v.5h.721l-.253-.675-.468.175zm-5.608 0l-.474.16.115.34h.359v-.5zm-9.597-9.545l-.475-.158-.218.658h.693v-.5zm6.398 0v.5h.695l-.221-.659-.474.159zm-3.217-9.58l.474-.159-.476-1.42-.472 1.421.474.158zm4.641 13.352h-9.246v1h9.246v-1zm-9.72.341l-1.758 5.274.948.316 1.758-5.273-.948-.317zm-1.284 4.932h-5.607v1h5.607v-1zm-5.139.674l9.528-25.593-.938-.349-9.527 25.594.937.348zm9.059-25.268h4.887v-1h-4.887v1zm4.418-.324l9.58 25.593.937-.35-9.58-25.594-.937.351zm10.049 24.918h-5.608v1h5.608v-1zm-5.134.34l-1.775-5.273-.948.319 1.775 5.274.948-.32zm-10.071-8.885h6.398v-1h-6.398v1zm6.872-.659l-3.217-9.58-.948.318 3.217 9.58.948-.318zm-4.165-9.579l-3.182 9.58.949.316 3.182-9.58-.949-.316zm21.779-6.311l.471-.167-.118-.333h-.353v.5zm6.574 18.563l-.471.167.472 1.334.471-1.335-.472-.166zm6.539-18.563v-.5h-.354l-.117.334.471.166zm6.926 0h.5v-.5h-.5v.5zm0 25.594v.5h.5v-.5h-.5zm-5.291 0h-.5v.5h.5v-.5zm0-6.996l-.499-.022-.001.011v.011h.5zm.527-12.076l.5.022-.97-.193.47.171zM864.617 142v.5h.351l.119-.33-.47-.17zm-3.621 0l-.47.17.119.33h.351v-.5zm-6.891-19.055l.471-.17-.97.192.499-.022zm.528 12.059h.5v-.011l-.001-.011-.499.022zm0 6.996v.5h.5v-.5h-.5zm-5.274 0h-.5v.5h.5v-.5zm0-25.594v-.5h-.5v.5h.5zm6.42.167l6.574 18.563.943-.334-6.575-18.563-.942.334zm7.517 18.562l6.539-18.563-.943-.332-6.539 18.563.943.332zm6.067-18.229h6.926v-1h-6.926v1zm6.426-.5V142h1v-25.594h-1zm.5 25.094h-5.291v1h5.291v-1zm-4.791.5v-6.996h-1V142h1zm0-6.974l.527-12.076-.999-.044-.527 12.076.999.044zm-.443-12.269l-6.908 19.073.94.34 6.908-19.072-.94-.341zm-6.438 18.743h-3.621v1h3.621v-1zm-3.151.33l-6.89-19.055-.941.34 6.891 19.055.94-.34zm-7.86-18.863l.527 12.059.999-.044-.527-12.059-.999.044zm.527 12.037V142h1v-6.996h-1zm.5 6.496h-5.274v1h5.274v-1zm-4.774.5v-25.594h-1V142h1zm-.5-25.094h6.891v-1h-6.891v1z" fill="#FEDD00"/>
  <circle cx="777" cy="143" r="9.5" fill="#FEDD00" stroke="#FEDD00"/>
</svg>
