<svg width="1143" height="2200" fill="none" xmlns="http://www.w3.org/2000/svg">
  <g filter="url(#filter0_d)">
    <path d="M530.5 2075.5h-112c-15.5 0-25.499-2.5-25.5 12.5 0 9.06 10.467 10.5 25.5 10.5h48c12 0 14.5 4.5 20 10.5" stroke="#fff" stroke-opacity=".7" stroke-width="5" stroke-dasharray="24 12"/>
  </g>
  <path d="M567 2116c19.33 0 35-15.67 35-35s-15.67-35-35-35-35 15.67-35 35 15.67 35 35 35zM80 803c19.33 0 35-15.671 35-35 0-19.33-15.67-35-35-35s-35 15.67-35 35c0 19.329 15.67 35 35 35zM957 597c19.33 0 35-15.67 35-35s-15.67-35-35-35-35 15.67-35 35 15.67 35 35 35zM1105 630c19.33 0 35-15.67 35-35s-15.67-35-35-35-35 15.67-35 35 15.67 35 35 35zM919 854c19.33 0 35-15.671 35-35 0-19.33-15.67-35-35-35s-35 15.67-35 35c0 19.329 15.67 35 35 35zM997 854c19.33 0 35-15.671 35-35 0-19.33-15.67-35-35-35s-35 15.67-35 35c0 19.329 15.67 35 35 35zM812 330.999c19.33 0 35-15.67 35-35s-15.67-35-35-35-35 15.67-35 35 15.67 35 35 35zM962 1314c19.33 0 35-15.67 35-35s-15.67-35-35-35-35 15.67-35 35 15.67 35 35 35zM863 1362c19.33 0 35-15.67 35-35s-15.67-35-35-35-35 15.67-35 35 15.67 35 35 35zM711 590c19.33 0 35-15.67 35-35s-15.67-35-35-35-35 15.67-35 35 15.67 35 35 35zM415 909c19.33 0 35-15.671 35-35 0-19.33-15.67-35-35-35s-35 15.67-35 35c0 19.329 15.67 35 35 35zM170 907c19.33 0 35-15.671 35-35 0-19.33-15.67-35-35-35s-35 15.67-35 35c0 19.329 15.67 35 35 35zM855 1606c19.33 0 35-15.67 35-35s-15.67-35-35-35-35 15.67-35 35 15.67 35 35 35zM533 1895c19.33 0 35-15.67 35-35s-15.67-35-35-35-35 15.67-35 35 15.67 35 35 35zM694 1473c19.33 0 35-15.67 35-35s-15.67-35-35-35-35 15.67-35 35 15.67 35 35 35zM610 1480c19.33 0 35-15.67 35-35s-15.67-35-35-35-35 15.67-35 35 15.67 35 35 35zM876 1747c19.33 0 35-15.67 35-35s-15.67-35-35-35-35 15.67-35 35 15.67 35 35 35zM1027 1697c19.33 0 35-15.67 35-35s-15.67-35-35-35-35 15.67-35 35 15.67 35 35 35zM337.002 1089c19.33 0 35-15.67 35-35s-15.67-35-35-35-35 15.67-35 35 15.67 35 35 35zM943 737c19.33 0 35-15.671 35-35 0-19.33-15.67-35-35-35s-35 15.67-35 35c0 19.329 15.67 35 35 35zM245 670c19.33 0 35-15.67 35-35s-15.67-35-35-35-35 15.67-35 35 15.67 35 35 35z" stroke="#fff" stroke-opacity=".7" stroke-width="5" stroke-miterlimit="10"/>
  <path d="M895 696l-602-52" stroke="#fff" stroke-opacity=".7" stroke-width="5"/>
  <path d="M697.948 236.506l21.693-27.569 21.693-27.569 12.98 32.615 12.981 32.615-34.77-5.033-34.577-5.059zM689 240.053l43.026 6.239 43.026 6.239-16.071-40.347-16.071-40.348-26.9 34.15L689 240.053zM290.844 1173.41l10.867 33.35 10.866 33.36-34.329-7.33-34.329-7.33 23.506-26.11 23.419-25.94zm2.023-9.41l-29.096 32.3-29.095 32.31 42.475 9.06 42.476 9.06-13.445-41.34-13.315-41.39z" fill="#fff" fill-opacity=".7"/>
  <path d="M749 97v35.319" stroke="#fff" stroke-opacity=".7" stroke-width="8" stroke-miterlimit="10"/>
  <path d="M753 115h70.5c35.5 0 46 6.373 46 19 0 21-15 20.5-46 20.5H722.499c-31.911 0-34.5 27-17.5 40.5L717 205" stroke="#fff" stroke-opacity=".7" stroke-width="5" stroke-miterlimit="10" stroke-dasharray="24 12"/>
  <path d="M319.502 1085c-39.001 44.5-73.504 15-98.002 19-18.895 3.09-38.498 26-20.999 41.5 20.476 18.14 38.5 32 62.501 52" stroke="#fff" stroke-opacity=".7" stroke-width="5" stroke-dasharray="24 12"/>
  <path d="M729 507.999l64-169m223 437l64-138m-18-56l-61-18M316.5 1243.5L570 1419M397 917.499L355.5 1015M718 1475l129 204M117 738.999l94-73m528-72l150 189m61-178l-6 54m-832 147l25 29m80 23l116-34M918 1697l67-21m27-59l-42-292m-112 51l-5 148m-37 80l-244 225" stroke="#fff" stroke-opacity=".7" stroke-width="5"/>
  <path d="M378 837c19.33 0 35-15.671 35-35 0-19.33-15.67-35-35-35s-35 15.67-35 35c0 19.329 15.67 35 35 35zM503.302 2184.83c17.966 0 32.531-14.56 32.531-32.53 0-17.96-14.565-32.53-32.531-32.53s-32.531 14.57-32.531 32.53c0 17.97 14.565 32.53 32.531 32.53z" stroke="#fff" stroke-opacity=".7" stroke-width="5" stroke-miterlimit="10"/>
  <path d="M503 2197c24.853 0 45-20.15 45-45s-20.147-45-45-45-45 20.15-45 45 20.147 45 45 45z" stroke="#fff" stroke-opacity=".7" stroke-width="5" stroke-miterlimit="10"/>
  <path d="M539.5 1904.5l22 133.5" stroke="#fff" stroke-opacity=".7" stroke-width="5"/>
  <path d="M662 2147c.5 1 4.5 8.5 5 10s4.5 9.5 4.5 4c0-4.4 4-9.5 6-11.5 1.167.17 3.7.8 4.5 2 1 1.5.5 3.5 1.5 9.5s-3 8-7 3.5-4.924-24 0-34c-1.5-1.5-5 1-5 5s0 21.5 5 21.5c4-6 1.667-3.83 0-2h-5l-3.5-5 3.5-4-7-4v-6.5L657 2146c2.333 4.5 7.1 14.5 7.5 18.5.5 5-2.5 11-6 9.5s0-5.5-1.5-17-30.5-27.5-20.5-16.5c8 8.8 18 30 22 39.5 6.5 2.83 19.5 7.7 19.5 4.5 0-4 24.5-18 26.5-29.5s5-9 5-14.5c0-4.4-1.333-5.17-2-5l-31 5.5 1.5 5 15.5-4 4 4c-1.333 2-4 5.6-4 4 0-2-14.5 1.5-4.5-9s29.5-16.5 30-27-1-12.5-10-23.5-24.5-6-10.5-9.5 23 0 34.5-5 53.5 0 86-4 65.5 9 92.5 9 43.5 8 65 8 27 0 56 3 28.5 5 47.5 17 22 44 21 19-6-24-51-39c-39-2-129-8-143-13s-113 2-158 5-68 10-81 16-17 19-24.5 17c-20.678-5.51-15.736 1.24-18 3.5-4.5 4.5-16 0-20.5 4.5l-9.5 6.5-9 4-12.5-2-20.5-6-35-1 9 1 5.5-8.5-15.5 3.5 6.5 2.5 3.5 6.5h-5l-3.779-14L512 2116l-2.5 6c-1.833 2.17-10.3 22.1-13.5 8.5-4-17-16.5-33.5-30-33.5h-45c-10.5 0-28.5-.5-28-10.5s19.5-10.5 30.5-10.5 85-1 103 0 25.909 6.96 41 0c6.5-3-34.5-75-34.5-117l1-98.5c14 3.5 45.1 9.5 57.5 5.5 15.5-5 18.5-10.5 28-20.5s42.5-65.5 53.5-76 59.5-58.5 76-74 34-32.5 40.5-38.5 32-36.5 44-47c9.6-8.4 17.667-31.83 20.5-42.5-2.333-.67-7-3.7-7-10.5 0-8.5-12-55.5-11-67s5-33.5 14-40.5 20-26 23-30.5 1.5-22.5 0-29.5c-1.2-5.6-7.5-45.67-10.5-65l-6-20.5H850l-4.5 4c.667 1.33 2.5 4.6 4.5 7 2.5 3 4.5 1.5 9.5 0s28.5-12.5 36-16.5c6-3.2 47.833-13 68-17.5 8 19 24.4 58.9 26 66.5 2 9.5 10.5 43.5 13.5 52s18.5 35 32 45 29 31.5 26.5 41-4.5 58-10 75-11 41-16.5 47-11.5 16.5-10.5 29c.8 10 2.33 21.83 3 26.5-1.83-1.5-6.3-5.5-9.5-9.5-4-5-19-3-27 0s-31.5 29-38.5 33c-5.6 3.2-54.667 17.67-78.5 24.5-10.833-18.33-34.1-57-40.5-65-8-10-23-39-28.5-50s-12-43-12.5-52.5-6-10-16-15-11-20.5-19-27-10.5-19-8-34-19-24.5-29.5-33c-8.4-6.8-19.167-2.83-23.5 0-1.167 2-4.8 7.3-10 12.5-6.5 6.5-25 7.5-35 2.5-8-4-31.333-6-42-6.5-6-14-18.7-44-21.5-52-3.5-10-14-53-20-73s-42.5-40.5-54-49-69-39-82-44.5-46.5-5-59-3-44.5 13-52.5 14.5-9.5 5-38.5-19-50-43-74-59-14-32-8-42 22-16 45-10 31 7 48 0 39-33 44-48 40-40 52-71c9.6-24.8 21.333-85 26-112l-38-72c-7-2.333-25.8-7-45-7-24 0-77 37.5-89 37.5s7.82-20.142 25-28.5c18.5-9 4-31.5-13.5-11 3-18.5-4.528-24.106-11.5-25-19.5-2.5 5.5 55.5-6.5 68.5-9.6 10.4-59.833 32.833-69.5 37.5-2.667-17.833-10-54.6-18-59-8-4.4-50-32.5-70-46-6.333-6.667-21-21.3-29-26.5-10-6.5-16 0-31 6.5s-17 21-17 9 12-15.5 26-21 17-7 32-15 48-10 72-27c19.2-13.6 83.333-43.667 113-57 3 2.833 12 10.4 24 18 15 9.5 65 29 87 29s162-15.5 201-15.5S676 685 711 686s184 10 207 10c18.4 0 23.333 7.667 23.5 11.5-3.333-1.167-11-5.1-15-11.5-5-8-20-44.5-17-57s16.5-19.5 26.5-36c8-13.2 16.667-34.167 20-43 5.667 2.166 19.4 7.7 29 12.5 12 6 38.5 9.5 54 9.5 12.4 0 48.17 11 64.5 16.5 1.17-2.334 4.8-8.9 10-16.5 6.5-9.5 8-5 6.5 3s-4.5 17-9.5 30-15.5 38.5-20.5 55.5-8 47.5-13 60.5-13.5 32.5-38 45.5-34 31.5-42 39.5-36 1.5-55.5 2c-15.6.4-20.5 1.5-21 2 18.333 1.167 56.9 2.8 64.5 0 9.5-3.5 10.5-2.5 7 1.5s-12.5 16-14 26.5-4 24.5-9.5 32.5c-4.4 6.4-4.5 9.333-4 10l-6 5.5 1 8.5 6.5-8.5c1.667-.167 4.5.5 2.5 4.5-2.5 5 3.5 7-2.5 5s-2-11.5-7.5-19.5-10.5-15.5-17-19.5-62.5 3-76 0-67.5-13.5-74-26-16.5-86.5-17-97 7-19 7.5-25.5-12-55.5-23.5-70.5c-9.2-12-35.5-65.667-47.5-91 12.833-14.5 39.1-45.8 41.5-55 3-11.5 37.5-76 46.5-85s39-16.5 51.5-19 12.5-2.5 13-7 4-22-10.5-28c-11.6-4.8-31.167-45.333-39.5-65-1.167-2.5-4.4-9.2-8-16-3.6-6.8-46.167-41.167-67-57.5-1.333 1.667-3.2 2.9 0-5.5 4-10.5-51-26-43-49s32.5-15.5 89-15.5c40 0 80 14.5 82-13.5 1.137-15.913-27.8-19-41-19-17.801 0-59.5 4-84.5 0-34-7-5-5-2.5-9 2-3.2-1.5-6-3.5-7l-6.5 3.5H723c-1.667-1.167-4.5-2.8-2.5 0 2.5 3.5-2.5 5.5 0 9 2 2.8 6.167-11.834 8-19.5 0-18-11-7-20-11.5s9.5-12.5 12-12.5 18.5-11 23-17.5 10-2.5 12 0c4.8 0 7.333 3.666 8 5.5h-8V69c0 1.5 2 2.5 5 0 2.4-2 5.667-3.167 7-3.5 4.833 2 15.5 6.6 19.5 9 5 3 7.505 5.954 9-7.5 1-9 12-15.5-4.5-15.5s-26 3-34 1.5 4.057-7.814 15.5 2c6.5 5.575 23.5 21.5 14 16s-28-21.5-37-26.5-8-7.5 0-14.5-1.5-5.5-1.5-9-1.5-.5-7.5 6 1 10-2.5 16-7 9.5-8.5 10.5-2-5 0-9-7.5-4 4-5.5 13 3 18-3 7-8 5.5-12 2-7.5-3.5-3-5 3-9 7.5-10 4-16.5 7.5-7 11.5-12.5 15.5-1.5-2.5-2-5.5c6.5 3.5 19.5 6 27 3s8-6 14.5-6 13.5-4 5-4-7-2.5-19.5 7-16.5 17.5-25.5 22c-20 9-18.5 13-28 1s-14.5-7-16-26 8.5-22-5-29.5-29.5 0-47.5-12" stroke="#FEDD00" stroke-width="3"/>
  <defs>
    <filter id="filter0_d" x="386.5" y="2072.84" width="148" height="45.846" filterUnits="userSpaceOnUse" color-interpolation-filters="sRGB">
      <feFlood flood-opacity="0" result="BackgroundImageFix"/>
      <feColorMatrix in="SourceAlpha" values="0 0 0 0 0 0 0 0 0 0 0 0 0 0 0 0 0 0 127 0"/>
      <feOffset dy="4"/>
      <feGaussianBlur stdDeviation="2"/>
      <feColorMatrix values="0 0 0 0 0 0 0 0 0 0 0 0 0 0 0 0 0 0 0.25 0"/>
      <feBlend in2="BackgroundImageFix" result="effect1_dropShadow"/>
      <feBlend in="SourceGraphic" in2="effect1_dropShadow" result="shape"/>
    </filter>
  </defs>
</svg>
