<svg width="360" height="768" fill="none" xmlns="http://www.w3.org/2000/svg">
  <path fill="#fff" d="M6 87h347v28H6z"/>
  <path d="M263 266v24H68v-23.846C133.041 266 198.082 266 263 266z" fill="#EAEAEA" fill-opacity=".4"/>
  <path d="M67.806 289.378v23.248H6v-23.248h61.806zM353 196v23h-90v-23h90zM353 336v23h-90v-23h90z" fill="#F7F7F7" fill-opacity=".5"/>
  <path d="M6.11 172.838V145.09h61.696v27.748H6.11z" fill="#F2F3F2" fill-opacity=".8"/>
  <path d="M353 313v23h-90v-23h90zM353 219v24h-90v-24h90zM353 266v24h-90v-24h90z" fill="#EAEAEA" fill-opacity=".4"/>
  <path d="M67.806 335.874v23.248H6v-23.248h61.806z" fill="#F7F7F7" fill-opacity=".5"/>
  <path d="M353 145v28h-90v-28h90z" fill="#F2F3F2" fill-opacity=".8"/>
  <path d="M353 290v23h-90v-23h90z" fill="#F7F7F7" fill-opacity=".5"/>
  <path d="M67.804 172.838v23.248H6.107v-23.248h61.697z" fill="#EAEAEA" fill-opacity=".4"/>
  <path d="M67.806 242.732v23.248H6v-23.248h61.806zM353 243v23h-90v-23h90z" fill="#F7F7F7" fill-opacity=".5"/>
  <path d="M67.806 312.626v23.248H6v-23.248h61.806zM263 219v24H68v-23.846C133.041 219 198.082 219 263 219zM353 359v23h-90v-23h90zM353 173v23h-90v-23h90zM68 359v23H6v-23h62zM263 313v23H68v-22.853C133.041 313 198.082 313 263 313z" fill="#EAEAEA" fill-opacity=".4"/>
  <path d="M263 336v23H68v-23h195z" fill="#F7F7F7" fill-opacity=".5"/>
  <path d="M263 173v23H68v-23h195z" fill="#EAEAEA" fill-opacity=".4"/>
  <path d="M263 290v22.853c-65.041 0-129.959 0-195 .147v-22.853C133.041 290 198.082 290 263 290z" fill="#F7F7F7" fill-opacity=".5"/>
  <path d="M263 145v27.849c-65.041 0-129.959 0-195 .151v-28h195z" fill="#F2F3F2" fill-opacity=".8"/>
  <path d="M67.806 219.484v23.248H6v-23.248h61.806z" fill="#EAEAEA" fill-opacity=".4"/>
  <path d="M263 243v23H68v-23h195zM67.804 196.086v23.248H6.107v-23.248c20.639.15 41.168 0 61.697 0z" fill="#F7F7F7" fill-opacity=".5"/>
  <path d="M263 359v23H68v-22.853C133.041 359 198.082 359 263 359zM67.806 265.98v23.248H6V265.98h61.806z" fill="#EAEAEA" fill-opacity=".4"/>
  <path d="M263 196v23H68v-23h195z" fill="#F7F7F7" fill-opacity=".5"/>
  <path d="M67.807 145.091V382.52M263 145.091V382.52M6 173.084h30.875c28.798 0 57.542-.084 86.34-.084H353v209H6v-13.062-13.063-13.062-13.063-13.062-13.063-13.062V277.5v-13.062-13.063-13.062-13.063-13.062-13.063-13.062-12.979zM6 382h347M6 359h347M6 336h347M6 313h347M6 290h347M6 266h347M6 243h347M6 196h347M6 219h347" stroke="#000" stroke-width=".7" stroke-miterlimit="10"/>
  <path d="M6 173v-28h347v28" stroke="#000" stroke-width=".7" stroke-miterlimit="10"/>
  <path d="M14.965 154.047l2.556 7.219 2.543-7.219h2.694V164H20.7v-2.721l.205-4.696L18.22 164H16.81l-2.68-7.41.206 4.689V164h-2.05v-9.953h2.679zM26.73 164h-2.051v-9.953h2.05V164zm-.636-12.64h2.153l-1.893 2.119h-1.607l1.347-2.119zm7.704 10.029c0-.388-.137-.684-.41-.889-.274-.21-.766-.428-1.477-.656-.71-.233-1.274-.461-1.688-.684-1.13-.611-1.696-1.433-1.696-2.468a2.4 2.4 0 01.451-1.435c.306-.424.741-.754 1.306-.991.57-.237 1.208-.356 1.914-.356.711 0 1.345.13 1.9.39.557.255.987.617 1.293 1.087.31.469.465 1.002.465 1.599h-2.051c0-.455-.144-.809-.431-1.059-.287-.255-.69-.383-1.21-.383-.501 0-.89.107-1.169.321a.995.995 0 00-.417.834c0 .324.162.595.486.814.328.218.808.424 1.442.615 1.166.351 2.017.786 2.55 1.306.533.519.8 1.166.8 1.941 0 .861-.326 1.538-.978 2.03-.652.488-1.529.732-2.632.732-.766 0-1.463-.139-2.092-.417-.629-.283-1.11-.668-1.442-1.156-.328-.487-.492-1.052-.492-1.695h2.057c0 1.098.657 1.648 1.97 1.648.487 0 .867-.098 1.14-.294a.978.978 0 00.41-.834zm10.944-5.681h-3.049V164h-2.05v-8.292h-3.008v-1.661h8.107v1.661zm9.16 3.541c0 .98-.173 1.839-.52 2.577-.346.738-.842 1.308-1.49 1.709-.642.401-1.38.602-2.214.602-.825 0-1.561-.199-2.208-.595-.647-.396-1.149-.962-1.504-1.695-.356-.739-.536-1.586-.54-2.543v-.492c0-.98.175-1.842.526-2.584.356-.748.855-1.32 1.497-1.716.647-.401 1.386-.602 2.215-.602.83 0 1.566.201 2.208.602.647.396 1.146.968 1.497 1.716.356.742.533 1.601.533 2.577v.444zm-2.078-.451c0-1.044-.187-1.837-.56-2.379-.374-.542-.907-.814-1.6-.814-.688 0-1.219.269-1.593.807-.373.533-.563 1.317-.567 2.352v.485c0 1.016.187 1.805.56 2.365.374.561.912.841 1.614.841.688 0 1.217-.269 1.586-.807.369-.542.556-1.33.56-2.365v-.485zM81.05 154.047h2.05v6.891c0 .633-.14 1.194-.423 1.681a2.835 2.835 0 01-1.183 1.121c-.51.265-1.087.397-1.73.397-1.052 0-1.872-.267-2.46-.8-.588-.538-.882-1.297-.882-2.276h2.064c0 .487.103.847.308 1.08.205.232.529.348.97.348.393 0 .705-.134.937-.403.233-.269.349-.652.349-1.148v-6.891zm6.487 0l2.557 7.219 2.543-7.219h2.693V164h-2.058v-2.721l.206-4.696L90.79 164h-1.408l-2.68-7.41.205 4.689V164h-2.05v-9.953h2.68zm15.572 5.64h-3.937v2.666h4.621V164h-6.672v-9.953h6.658v1.661h-4.607v2.372h3.937v1.607zm-2.139-8.327h2.153l-1.894 2.119h-1.606l1.347-2.119zM113.09 164h-2.051l-3.992-6.549V164h-2.051v-9.953h2.051l3.999 6.562v-6.562h2.044V164zm9.967-4.751c0 .98-.174 1.839-.52 2.577-.346.738-.843 1.308-1.49 1.709-.643.401-1.381.602-2.215.602-.825 0-1.561-.199-2.208-.595-.647-.396-1.148-.962-1.504-1.695-.355-.739-.535-1.586-.54-2.543v-.492c0-.98.176-1.842.526-2.584.356-.748.855-1.32 1.498-1.716.647-.401 1.385-.602 2.214-.602.83 0 1.566.201 2.208.602.648.396 1.147.968 1.497 1.716.356.742.534 1.601.534 2.577v.444zm-2.078-.451c0-1.044-.187-1.837-.561-2.379-.374-.542-.907-.814-1.6-.814-.688 0-1.219.269-1.592.807-.374.533-.563 1.317-.568 2.352v.485c0 1.016.187 1.805.561 2.365.373.561.911.841 1.613.841.688 0 1.217-.269 1.586-.807.369-.542.556-1.33.561-2.365v-.485zM15.271 189h-1.09v-7.225l-2.185.803v-.984l3.106-1.166h.17V189zm3.311-.568c0-.188.055-.344.164-.469.113-.125.281-.188.504-.188.223 0 .39.063.504.188a.658.658 0 01.176.469c0 .179-.059.33-.176.451-.113.121-.281.181-.504.181-.223 0-.39-.06-.504-.181a.649.649 0 01-.164-.451zM17.299 212h-5.59v-.779l2.953-3.282c.438-.496.738-.898.902-1.207.168-.312.252-.634.252-.966 0-.446-.134-.811-.404-1.096-.27-.285-.629-.428-1.078-.428-.54 0-.959.154-1.26.463-.297.305-.445.731-.445 1.277h-1.084c0-.785.252-1.42.756-1.904.508-.484 1.185-.726 2.033-.726.793 0 1.42.209 1.88.627.462.414.692.966.692 1.658 0 .84-.535 1.84-1.605 3l-2.285 2.478h4.283V212zm1.283-.568c0-.188.055-.344.164-.469.113-.125.281-.188.504-.188.223 0 .39.063.504.188a.658.658 0 01.176.469c0 .179-.059.33-.176.451-.113.121-.281.181-.504.181-.223 0-.39-.06-.504-.181a.649.649 0 01-.164-.451zM13.285 230.207h.815c.511-.008.914-.143 1.207-.404.293-.262.44-.615.44-1.061 0-1-.499-1.5-1.495-1.5-.469 0-.844.135-1.125.404-.277.266-.416.62-.416 1.061h-1.084c0-.676.246-1.236.738-1.682.496-.449 1.125-.673 1.887-.673.805 0 1.435.212 1.893.638.457.426.685 1.018.685 1.776 0 .371-.121.73-.363 1.078a2.162 2.162 0 01-.979.779c.469.148.83.395 1.084.738.258.344.387.764.387 1.26 0 .766-.25 1.373-.75 1.822-.5.45-1.15.674-1.951.674-.801 0-1.453-.217-1.957-.65-.5-.434-.75-1.006-.75-1.717h1.09c0 .449.146.809.44 1.078.292.27.685.404 1.177.404.523 0 .924-.136 1.201-.41.277-.273.416-.666.416-1.177 0-.497-.152-.877-.457-1.143-.305-.266-.744-.402-1.318-.41h-.815v-.885zm5.297 4.225c0-.188.055-.344.164-.469.113-.125.281-.188.504-.188.223 0 .39.063.504.188a.658.658 0 01.176.469c0 .179-.059.33-.176.451-.113.121-.281.181-.504.181-.223 0-.39-.06-.504-.181a.649.649 0 01-.164-.451zM16.285 256.135h1.184v.885h-1.184V259h-1.09v-1.98H11.31v-.639l3.82-5.912h1.155v5.666zm-3.744 0h2.654v-4.184l-.129.235-2.525 3.949zm6.041 2.297c0-.188.055-.344.164-.469.113-.125.281-.188.504-.188.223 0 .39.063.504.188a.658.658 0 01.176.469c0 .179-.059.33-.176.451-.113.121-.281.181-.504.181-.223 0-.39-.06-.504-.181a.649.649 0 01-.164-.451zM12.207 277.723l.434-4.254h4.37v1.002h-3.45l-.258 2.326a2.754 2.754 0 011.424-.369c.777 0 1.394.258 1.851.773.457.512.686 1.205.686 2.08 0 .879-.239 1.573-.715 2.08-.473.504-1.135.756-1.986.756-.754 0-1.37-.209-1.846-.627-.477-.418-.748-.996-.815-1.734h1.026c.066.488.24.857.521 1.107.281.246.653.369 1.114.369.503 0 .898-.171 1.183-.515.29-.344.434-.819.434-1.424 0-.57-.157-1.027-.47-1.371-.308-.348-.72-.522-1.235-.522-.473 0-.844.104-1.114.311l-.287.234-.867-.222zm6.375 3.709c0-.188.055-.344.164-.469.113-.125.281-.188.504-.188.223 0 .39.063.504.188a.658.658 0 01.176.469c0 .179-.059.33-.176.451-.113.121-.281.181-.504.181-.223 0-.39-.06-.504-.181a.649.649 0 01-.164-.451zM15.963 297.463v.92h-.2c-.843.015-1.515.265-2.015.75-.5.484-.789 1.166-.867 2.045.45-.516 1.062-.774 1.84-.774.742 0 1.334.262 1.775.785.445.524.668 1.2.668 2.028 0 .879-.24 1.582-.72 2.109-.477.528-1.118.791-1.922.791-.817 0-1.479-.312-1.987-.937-.508-.629-.762-1.438-.762-2.426v-.416c0-1.57.334-2.77 1.002-3.598.672-.832 1.67-1.258 2.995-1.277h.193zm-1.424 3.844c-.371 0-.713.111-1.025.334-.313.222-.53.502-.65.838v.398c0 .703.157 1.269.474 1.699.316.43.71.645 1.184.645.488 0 .87-.18 1.148-.539.281-.36.422-.83.422-1.412 0-.586-.143-1.059-.428-1.418a1.35 1.35 0 00-1.125-.545zm4.043 4.125c0-.188.055-.344.164-.469.113-.125.281-.188.504-.188.223 0 .39.063.504.188a.658.658 0 01.176.469c0 .179-.059.33-.176.451-.113.121-.281.181-.504.181-.223 0-.39-.06-.504-.181a.649.649 0 01-.164-.451zM17.217 321.078L13.684 329h-1.137l3.521-7.641h-4.617v-.89h5.766v.609zm1.365 7.354c0-.188.055-.344.164-.469.113-.125.281-.188.504-.188.223 0 .39.063.504.188a.658.658 0 01.176.469c0 .179-.059.33-.176.451-.113.121-.281.181-.504.181-.223 0-.39-.06-.504-.181a.649.649 0 01-.164-.451zM16.883 345.695c0 .426-.113.805-.34 1.137a2.267 2.267 0 01-.908.779c.445.192.797.471 1.054.838.262.367.393.783.393 1.248 0 .739-.25 1.326-.75 1.764-.496.437-1.15.656-1.963.656-.82 0-1.478-.219-1.974-.656-.493-.441-.739-1.029-.739-1.764 0-.461.125-.877.375-1.248a2.377 2.377 0 011.05-.844 2.231 2.231 0 01-.897-.779 2.009 2.009 0 01-.329-1.131c0-.718.23-1.289.692-1.711.46-.422 1.068-.632 1.822-.632.75 0 1.356.21 1.817.632.464.422.697.993.697 1.711zm-.885 3.979c0-.477-.152-.865-.457-1.166-.3-.301-.695-.451-1.184-.451-.488 0-.88.148-1.177.445-.293.297-.44.687-.44 1.172 0 .484.143.865.428 1.142.289.278.69.416 1.201.416.508 0 .906-.138 1.196-.416.289-.281.433-.662.433-1.142zm-1.629-5.432c-.426 0-.771.133-1.037.399-.262.261-.393.619-.393 1.072 0 .433.13.785.387 1.055.262.265.61.398 1.043.398.434 0 .78-.133 1.037-.398.262-.27.393-.622.393-1.055 0-.434-.135-.787-.404-1.061-.27-.273-.612-.41-1.026-.41zm4.213 7.19c0-.188.055-.344.164-.469.113-.125.281-.188.504-.188.223 0 .39.063.504.188a.658.658 0 01.176.469c0 .179-.059.33-.176.451-.113.121-.281.181-.504.181-.223 0-.39-.06-.504-.181a.649.649 0 01-.164-.451zM15.863 371.25c-.226.27-.498.486-.814.65a2.185 2.185 0 01-1.031.246c-.493 0-.922-.121-1.29-.363a2.372 2.372 0 01-.843-1.019 3.507 3.507 0 01-.3-1.459c0-.571.108-1.084.323-1.541.219-.457.527-.807.926-1.049.398-.242.863-.363 1.395-.363.843 0 1.507.316 1.992.949.488.629.732 1.488.732 2.578v.316c0 1.66-.328 2.873-.984 3.639-.656.762-1.647 1.152-2.971 1.172h-.21v-.914h.228c.894-.016 1.582-.248 2.062-.697.48-.454.742-1.168.785-2.145zm-1.67 0c.364 0 .698-.111 1.002-.334.309-.223.534-.498.674-.826v-.434c0-.711-.154-1.289-.463-1.734-.308-.445-.699-.668-1.172-.668-.476 0-.859.184-1.148.551-.29.363-.434.843-.434 1.441 0 .582.139 1.063.416 1.442.282.374.657.562 1.125.562zm4.389 3.182c0-.188.055-.344.164-.469.113-.125.281-.188.504-.188.223 0 .39.063.504.188a.658.658 0 01.176.469c0 .179-.059.33-.176.451-.113.121-.281.181-.504.181-.223 0-.39-.06-.504-.181a.649.649 0 01-.164-.451z" fill="#fff"/>
  <path d="M16.96 110V93.296h4.464c1.072 0 1.96.128 2.664.384.72.256 1.272.696 1.656 1.32.384.608.6 1.464.648 2.568.016.4.024.744.024 1.032.016.288.016.584 0 .888 0 .304-.008.68-.024 1.128-.048 1.104-.264 1.968-.648 2.592-.384.624-.936 1.064-1.656 1.32-.72.24-1.608.36-2.664.36h-1.056V110H16.96zm3.408-8.112h1.056c.992 0 1.512-.368 1.56-1.104.048-.592.064-1.192.048-1.8 0-.608-.016-1.144-.048-1.608a1 1 0 00-.408-.792c-.256-.208-.64-.312-1.152-.312h-1.056v5.616zm12.645 8.328c-1.696 0-2.92-.336-3.672-1.008-.752-.688-1.152-1.824-1.2-3.408-.016-.848-.032-1.76-.048-2.736v-2.928c.016-.976.032-1.864.048-2.664.048-1.568.448-2.688 1.2-3.36.752-.688 1.976-1.032 3.672-1.032 1.712 0 2.936.344 3.672 1.032.736.672 1.136 1.8 1.2 3.384.032.8.048 1.68.048 2.64.016.96.016 1.928 0 2.904 0 .976-.016 1.888-.048 2.736-.064 1.6-.464 2.744-1.2 3.432-.736.672-1.96 1.008-3.672 1.008zm0-2.76c.944 0 1.432-.344 1.464-1.032.08-1.584.112-3.192.096-4.824 0-1.648-.032-3.232-.096-4.752-.032-.672-.52-1.008-1.464-1.008s-1.432.328-1.464.984c-.144 3.152-.144 6.36 0 9.624.032.672.52 1.008 1.464 1.008zM44.915 110v-2.832l5.232-10.896h-4.944v-2.976h8.64V96.2l-5.448 10.824h5.064V110h-8.544zm10.36 0l2.616-16.704h5.376L65.883 110h-3.504l-.384-3.288h-2.832L58.779 110h-3.504zm4.224-6.264h2.136l-.432-3.696-.312-3.768h-.648l-.312 3.768-.432 3.696zm.36-11.664V92l2.664-2.088h2.04v.072l-2.88 2.088h-1.824zM70.034 110l-2.712-16.704h3.528l1.392 8.232.24 5.496h.648l.24-5.496 1.392-8.232h3.528L75.554 110h-5.52zm14.846.216c-1.696 0-2.92-.336-3.672-1.008-.752-.688-1.152-1.824-1.2-3.408-.016-.848-.032-1.76-.048-2.736v-2.928c.016-.976.032-1.864.048-2.664.048-1.568.448-2.688 1.2-3.36.752-.688 1.976-1.032 3.672-1.032 1.712 0 2.936.344 3.672 1.032.736.672 1.136 1.8 1.2 3.384.032.8.048 1.68.048 2.64.016.96.016 1.928 0 2.904 0 .976-.016 1.888-.048 2.736-.064 1.6-.464 2.744-1.2 3.432-.736.672-1.96 1.008-3.672 1.008zm0-2.76c.944 0 1.432-.344 1.464-1.032.08-1.584.112-3.192.096-4.824 0-1.648-.032-3.232-.096-4.752-.032-.672-.52-1.008-1.464-1.008s-1.432.328-1.464.984c-.144 3.152-.144 6.36 0 9.624.032.672.52 1.008 1.464 1.008zm16.541-9.648c.032 1.216.048 2.496.048 3.84 0 1.328-.016 2.6-.048 3.816-.032 1.616-.44 2.776-1.224 3.48-.784.704-2.032 1.056-3.744 1.056H91.75V93.296h4.704c1.712 0 2.96.352 3.744 1.056.784.688 1.192 1.84 1.224 3.456zm-3.408 8.064c.032-.88.048-1.824.048-2.832.016-1.008.016-2 0-2.976 0-.992-.016-1.88-.048-2.664-.016-.352-.152-.624-.408-.816-.256-.208-.64-.312-1.152-.312h-1.296v10.752h1.296c1.008 0 1.528-.384 1.56-1.152zm5.361 4.128V93.296h8.016v2.976h-4.608v3.72h4.368v2.976h-4.368v4.056h4.608V110h-8.016zm.288-20.112h2.304l1.416 1.368 1.416-1.368h2.304l-2.688 2.376h-2.064l-2.688-2.376z" fill="#2C2D84"/>
  <path d="M179.225 112.703c-.725 0-1.248-.16-1.568-.48-.32-.331-.485-.87-.496-1.616a298.36 298.36 0 010-8.816c.022-.726.203-1.254.544-1.584.342-.341.843-.512 1.504-.512 1.366 0 2.07.698 2.112 2.096v.656c.011.266.011.538 0 .816v.672h-1.056a27.64 27.64 0 000-2.304c-.01-.352-.096-.614-.256-.784-.16-.171-.421-.256-.784-.256-.65 0-.986.346-1.008 1.04a154.471 154.471 0 00-.048 3.952h.272c.096-.192.267-.352.512-.48a1.74 1.74 0 01.816-.192c.587 0 .998.154 1.232.464.246.298.379.794.4 1.488.011.672.016 1.306.016 1.904 0 .586-.01 1.2-.032 1.84-.032.746-.213 1.285-.544 1.616-.33.32-.869.48-1.616.48zm0-.896c.715 0 1.083-.347 1.104-1.04a127.187 127.187 0 000-3.888c-.01-.694-.33-1.04-.96-1.04-.341 0-.624.085-.848.256-.213.17-.33.421-.352.752.011.597.016 1.221.016 1.872.011.65.022 1.333.032 2.048.022.693.358 1.04 1.008 1.04zm3.777.784v-1.424h1.808v1.424h-1.808zm3.633 0l2.656-11.84h-3.216v-.96h4.288v.928l-2.624 11.872h-1.104zm7.169.112c-.715 0-1.238-.16-1.568-.48-.32-.331-.496-.875-.528-1.632-.022-.438-.032-.88-.032-1.328.01-.459.026-.982.048-1.568.021-.448.106-.8.256-1.056.16-.256.394-.443.704-.56v-.24a1.476 1.476 0 01-.624-.48c-.15-.224-.246-.528-.288-.912-.022-.48-.038-.939-.048-1.376-.011-.448-.006-.875.016-1.28.032-.758.208-1.296.528-1.616.32-.33.832-.496 1.536-.496.704 0 1.216.165 1.536.496.32.32.496.858.528 1.616.021.405.026.832.016 1.28-.011.437-.027.896-.048 1.376-.043.384-.144.688-.304.912-.15.213-.352.368-.608.464v.24c.288.138.512.336.672.592.16.256.256.602.288 1.04.021.586.032 1.109.032 1.568.01.448.005.89-.016 1.328-.032.757-.214 1.301-.544 1.632-.32.32-.838.48-1.552.48zm0-7.248c.682 0 1.029-.384 1.04-1.152v-1.36c.01-.416.01-.838 0-1.264-.011-.384-.096-.662-.256-.832-.16-.171-.422-.256-.784-.256-.352 0-.614.085-.784.256-.16.17-.246.448-.256.832a48.99 48.99 0 00-.016 1.264c0 .416.005.869.016 1.36.01.405.096.698.256.88.17.181.432.272.784.272zm0 6.336c.362 0 .624-.086.784-.256.16-.171.245-.448.256-.832.01-.47.016-.944.016-1.424 0-.491-.006-1.046-.016-1.664-.011-.406-.102-.699-.272-.88-.16-.182-.416-.272-.768-.272-.352 0-.614.09-.784.272-.16.181-.246.474-.256.88a94.089 94.089 0 00-.016 1.664c0 .48.005.954.016 1.424.01.384.096.661.256.832.17.17.432.256.784.256zm7.122.8v-11.136h1.072l-.016 2.704-.144 2.752h.256l.944-2.752.976-2.704h1.104l-1.872 4.96 2.08 6.176h-1.056l-1.696-5.04-.624 1.52v3.52h-1.024zm5.735 0v-11.136h2l.672 4.528.624 5.664h.272l.608-5.664.688-4.528h1.968v11.136h-1.008v-3.296l.144-6.928h-.336l-.88 7.024-.544 3.168h-1.536l-.544-3.168-.944-7.024h-.32l.144 6.928v3.296h-1.008zm8.419 0v-1.456h1.808v1.328l-.768 1.76h-.688l.608-1.632h-.96zm7.746 0l-1.408-11.136h1.072l.752 6.16.336 4.08h.288l.32-4.08.768-6.16h1.072l-1.424 11.136h-1.776zm6.618.096c-.715 0-1.232-.144-1.552-.432-.309-.299-.48-.79-.512-1.472a39.723 39.723 0 01-.016-1.104c0-.342.016-.715.048-1.12h.96a22.54 22.54 0 000 2.384c.021.309.112.538.272.688.16.138.427.208.8.208.363 0 .619-.07.768-.208.16-.15.251-.384.272-.704.021-.342.027-.667.016-.976 0-.31-.005-.656-.016-1.04a2.566 2.566 0 00-.176-.848c-.096-.235-.299-.39-.608-.464l-.832-.176c-.608-.139-1.008-.384-1.2-.736-.181-.352-.283-.848-.304-1.488a24.17 24.17 0 01-.016-.944l.032-1.008c.011-.672.171-1.152.48-1.44.309-.299.837-.448 1.584-.448.672 0 1.168.144 1.488.432.32.288.491.773.512 1.456.011.202.011.517 0 .944 0 .416-.005.8-.016 1.152h-.976c.032-.779.032-1.526 0-2.24-.011-.31-.096-.534-.256-.672-.16-.15-.416-.224-.768-.224-.363 0-.624.074-.784.224-.149.138-.235.362-.256.672-.021.32-.032.661-.032 1.024 0 .362.011.72.032 1.072.011.394.064.693.16.896.107.202.32.341.64.416l.784.16c.608.138 1.008.389 1.2.752.192.362.304.858.336 1.488.011.394.011.714 0 .96 0 .245-.005.549-.016.912-.032.693-.208 1.184-.528 1.472-.32.288-.827.432-1.52.432zm-1.632-12.896h.816l.768.72.768-.72h.816l-1.2 1.072h-.768l-1.2-1.072zm5.395 12.8v-11.136h3.536v.896h-2.528v4.176h2.368v.896h-2.368v4.272h2.528v.896h-3.536zm7.143.096c-.726 0-1.243-.144-1.552-.432-.31-.299-.47-.784-.48-1.456a227.208 227.208 0 010-7.552c.01-.619.17-1.088.48-1.408.32-.32.832-.48 1.536-.48.714 0 1.226.149 1.536.448.32.288.49.762.512 1.424.01.202.016.437.016.704v.768c0 .256-.006.469-.016.64h-1.008c.01-.342.016-.683.016-1.024 0-.352-.006-.758-.016-1.216 0-.32-.086-.55-.256-.688-.16-.139-.422-.208-.784-.208-.352 0-.608.069-.768.208-.15.138-.224.368-.224.688a127.679 127.679 0 00-.064 3.952c0 1.248.021 2.549.064 3.904 0 .32.08.549.24.688.16.128.416.192.768.192.373 0 .645-.064.816-.192.181-.139.272-.368.272-.688a25.3 25.3 0 000-1.232v-1.168h1.008c.01.373.016.746.016 1.12.01.373.01.746 0 1.12-.022.672-.198 1.157-.528 1.456-.331.288-.859.432-1.584.432zm3.545-.096v-11.136h1.008v5.072h2.064v-5.072h1.008v11.136h-1.008v-5.168h-2.064v5.168h-1.008zm5.781 0v-11.136h1.856l.656 3.52 1.2 6.704h.336l-.144-6.256-.064-3.968h.992v11.136h-1.872l-.752-3.968-1.088-6.272h-.336l.144 6.016.064 4.224h-.992zm7.782 0v-2.912l-.096-.432-1.632-7.792h1.056l.56 3.12.48 3.184h.288l.48-3.184.56-3.12h1.04l-1.632 7.808-.08.416v2.912h-1.024zm7.374 0v-11.136h1.072l-.016 2.704-.144 2.752H266l.944-2.752.976-2.704h1.104l-1.872 4.96 2.08 6.176h-1.056l-1.696-5.04-.624 1.52v3.52h-1.024zm7.831.096c-.726 0-1.248-.144-1.568-.432-.31-.288-.47-.768-.48-1.44-.022-.747-.038-1.43-.048-2.048v-1.792-1.76c.01-.608.026-1.27.048-1.984.01-.672.17-1.152.48-1.44.32-.288.842-.432 1.568-.432.736 0 1.258.144 1.568.432.32.288.485.768.496 1.44.01.714.016 1.376.016 1.984a105.27 105.27 0 010 3.552c0 .618-.006 1.296-.016 2.032-.011.672-.176 1.157-.496 1.456-.31.288-.832.432-1.568.432zm0-.848c.373 0 .64-.064.8-.192.16-.139.245-.363.256-.672.021-.79.032-1.504.032-2.144.01-.64.016-1.254.016-1.84 0-.598-.006-1.211-.016-1.84 0-.63-.011-1.318-.032-2.064-.011-.32-.096-.544-.256-.672-.16-.139-.427-.208-.8-.208-.352 0-.614.069-.784.208-.16.128-.246.346-.256.656-.022.757-.038 1.45-.048 2.08a105.168 105.168 0 000 3.68c.01.64.026 1.354.048 2.144.01.309.096.533.256.672.17.128.432.192.784.192zm3.794.752v-11.136h1.856l.656 3.52 1.2 6.704h.336l-.144-6.256-.064-3.968h.992v11.136h-1.872l-.752-3.968-1.088-6.272h-.336l.144 6.016.064 4.224h-.992zm7.78 0v-10.24h-1.616v-.896h4.24v.896h-1.616v10.24h-1.008zm3.955 0v-11.136h1.904c.192 0 .4.01.624.032.224.021.437.09.64.208.213.106.389.288.528.544.149.256.24.618.272 1.088.01.149.016.357.016.624a23.47 23.47 0 010 1.792c0 .298-.006.554-.016.768-.032.544-.15.944-.352 1.2a1.43 1.43 0 01-.672.496l1.28 4.384h-1.088l-1.152-4.208h-.976v4.208h-1.008zm1.008-5.12h.88c.266 0 .501-.048.704-.144.202-.107.325-.363.368-.768.01-.192.016-.438.016-.736a28.219 28.219 0 000-1.888c0-.288-.006-.507-.016-.656-.032-.406-.15-.662-.352-.768a1.489 1.489 0 00-.704-.16h-.896v5.12zm6.635 5.216c-.726 0-1.248-.144-1.568-.432-.31-.288-.47-.768-.48-1.44-.022-.747-.038-1.43-.048-2.048v-1.792-1.76c.01-.608.026-1.27.048-1.984.01-.672.17-1.152.48-1.44.32-.288.842-.432 1.568-.432.736 0 1.258.144 1.568.432.32.288.485.768.496 1.44.01.714.016 1.376.016 1.984a105.27 105.27 0 010 3.552c0 .618-.006 1.296-.016 2.032-.011.672-.176 1.157-.496 1.456-.31.288-.832.432-1.568.432zm0-.848c.373 0 .64-.064.8-.192.16-.139.245-.363.256-.672.021-.79.032-1.504.032-2.144.01-.64.016-1.254.016-1.84 0-.598-.006-1.211-.016-1.84 0-.63-.011-1.318-.032-2.064-.011-.32-.096-.544-.256-.672-.16-.139-.427-.208-.8-.208-.352 0-.614.069-.784.208-.16.128-.246.346-.256.656-.022.757-.038 1.45-.048 2.08a105.168 105.168 0 000 3.68c.01.64.026 1.354.048 2.144.01.309.096.533.256.672.17.128.432.192.784.192zm3.794.752v-11.136h1.008v10.24h2.544v.896h-3.552zm5.657 0v-2.912l-.096-.432-1.632-7.792h1.056l.56 3.12.48 3.184h.288l.48-3.184.56-3.12h1.04l-1.632 7.808-.08.416v2.912h-1.024z" fill="#283388"/>
</svg>
