<svg width="1200" height="1080" fill="none" xmlns="http://www.w3.org/2000/svg">
  <path fill="#fff" d="M17 170h359v47H17z"/>
  <path d="M410.728 440.267v39.312H120.844v-39.06c96.689-.252 193.378-.252 289.884-.252z" fill="#EAEAEA" fill-opacity=".4"/>
  <path d="M1073.06 237.152v46.621H970.312v-46.621h102.748z" fill="#F2F3F2" fill-opacity=".8"/>
  <path d="M680.43 440.266v39.06H561.174v-39.312c39.813.252 79.626.252 119.256.252z" fill="#EAEAEA" fill-opacity=".4"/>
  <path d="M120.844 479.579v39.06H17v-39.06H120.844z" fill="#F7F7F7" fill-opacity=".5"/>
  <path d="M1182.22 283.773v39.06h-109.16v-39.06h109.16z" fill="#EAEAEA" fill-opacity=".4"/>
  <path d="M970.314 237.152v46.621H680.43v-46.369c96.689-.252 193.378-.252 289.884-.252z" fill="#F2F3F2" fill-opacity=".8"/>
  <path d="M1182.22 597.012v39.06h-109.16v-39.06h109.16z" fill="#EAEAEA" fill-opacity=".4"/>
  <path d="M561.175 322.833v39.06H410.729v-39.06h150.446zM561.175 557.7v39.061H410.729V557.7h150.446z" fill="#F7F7F7" fill-opacity=".5"/>
  <path d="M17.184 283.773v-46.621h103.661v46.621H17.184z" fill="#F2F3F2" fill-opacity=".8"/>
  <path d="M561.175 518.387v39.312H410.729v-39.312h150.446zM1073.06 362.145v39.312H970.312v-39.06c34.308-.252 68.618-.252 102.748-.252z" fill="#EAEAEA" fill-opacity=".4"/>
  <path d="M970.314 362.145v39.061H680.43v-39.313c96.689 0 193.378 0 289.884.252zM680.43 361.893v39.313H561.174v-39.313H680.43z" fill="#EAEAEA" fill-opacity=".4"/>
  <path d="M561.175 361.893v39.313H410.729v-39.313h150.446zM680.43 518.639v39.313H561.174v-39.313c39.813-.252 79.626-.252 119.256 0zM561.175 440.267v39.312H410.729v-39.312h150.446z" fill="#EAEAEA" fill-opacity=".4"/>
  <path d="M120.844 557.7v39.061H17V557.7H120.844z" fill="#F7F7F7" fill-opacity=".5"/>
  <path d="M680.43 283.773v39.06H561.174v-39.06H680.43z" fill="#EAEAEA" fill-opacity=".4"/>
  <path d="M561.175 237.152v46.369H410.729v-46.369h150.446z" fill="#F2F3F2" fill-opacity=".8"/>
  <path d="M970.314 283.773v39.06H680.43v-39.06h289.884z" fill="#EAEAEA" fill-opacity=".4"/>
  <path d="M680.43 322.833v39.06H561.174v-39.06H680.43zM561.175 479.579v39.06H410.729v-39.06h150.446zM1182.22 401.206v39.06h-109.16v-39.06h109.16z" fill="#F7F7F7" fill-opacity=".5"/>
  <path d="M1182.22 518.639V557.7h-109.16v-39.061h109.16zM120.843 283.773v39.06H17.182v-39.06h103.661zM680.43 596.76v39.313H561.174V596.76H680.43z" fill="#EAEAEA" fill-opacity=".4"/>
  <path d="M1182.22 237.404v46.621h-109.16v-46.621h109.16z" fill="#F2F3F2" fill-opacity=".8"/>
  <path d="M120.844 401.206v39.06H17v-39.06H120.844zM561.175 401.206v39.06H410.729v-39.06h150.446zM680.43 479.579v39.06H561.174v-39.06H680.43z" fill="#F7F7F7" fill-opacity=".5"/>
  <path d="M120.844 518.639V557.7H17v-39.061H120.844zM410.728 361.893v39.313H120.844v-39.061c96.689-.252 193.378-.252 289.884-.252zM561.175 596.76v39.313H410.729V596.76h150.446z" fill="#EAEAEA" fill-opacity=".4"/>
  <path d="M680.43 401.206v39.06H561.174v-39.06H680.43zM1073.06 401.206v39.06H970.312v-39.06h102.748z" fill="#F7F7F7" fill-opacity=".5"/>
  <path d="M970.314 401.206v39.06H680.43v-39.06h289.884z" fill="#F7F7F7" fill-opacity=".5"/>
  <path d="M1073.06 283.773v39.06H970.312v-39.06h102.748z" fill="#EAEAEA" fill-opacity=".4"/>
  <path d="M970.314 479.579v39.06H680.43v-39.06h289.884z" fill="#F7F7F7" fill-opacity=".5"/>
  <path d="M561.175 283.773v39.06H410.729v-39.06h150.446zM120.844 597.012v39.06H17v-39.06H120.844zM410.728 518.639v39.313H120.844v-39.061c96.689-.252 193.378-.252 289.884-.252zM1073.06 597.012v39.06H970.312v-39.06h102.748z" fill="#EAEAEA" fill-opacity=".4"/>
  <path d="M970.314 557.7v39.061H680.43V557.7h289.884z" fill="#F7F7F7" fill-opacity=".5"/>
  <path d="M1073.06 440.267v39.06H970.312v-39.06c34.308.252 68.618.252 102.748 0z" fill="#EAEAEA" fill-opacity=".4"/>
  <path d="M970.314 322.833v39.06H680.43v-39.06h289.884z" fill="#F7F7F7" fill-opacity=".5"/>
  <path d="M970.314 440.267v39.06H680.43v-39.06h289.884z" fill="#EAEAEA" fill-opacity=".4"/>
  <path d="M410.728 557.7v39.061H120.844V557.7h289.884zM1073.06 322.833v39.06H970.312v-39.06h102.748zM1073.06 557.7v39.061H970.312V557.7h102.748zM1182.22 323.085v39.061h-109.16v-39.061h109.16z" fill="#F7F7F7" fill-opacity=".5"/>
  <path d="M410.728 283.773v39.06H120.844v-39.06h289.884z" fill="#EAEAEA" fill-opacity=".4"/>
  <path d="M1073.06 479.579v39.06H970.312v-39.06h102.748zM1182.22 479.579v39.06h-109.16v-39.06h109.16z" fill="#F7F7F7" fill-opacity=".5"/>
  <path d="M680.43 237.152v46.369H561.174v-46.369H680.43z" fill="#F2F3F2" fill-opacity=".8"/>
  <path d="M970.314 518.639v39.06H680.43v-39.312c96.689.252 193.378.252 289.884.252z" fill="#EAEAEA" fill-opacity=".4"/>
  <path d="M410.728 479.579v39.06c-96.69 0-193.195 0-289.884.252v-39.06c96.689-.252 193.378-.252 289.884-.252z" fill="#F7F7F7" fill-opacity=".5"/>
  <path d="M410.728 237.152v46.369c-96.69 0-193.195 0-289.884.252v-46.621h289.884z" fill="#F2F3F2" fill-opacity=".8"/>
  <path d="M680.43 557.7v39.061H561.174V557.7H680.43z" fill="#F7F7F7" fill-opacity=".5"/>
  <path d="M120.844 362.145v39.06H17v-39.06h103.844z" fill="#EAEAEA" fill-opacity=".4"/>
  <path d="M410.728 401.206v39.06H120.844v-39.06h289.884zM120.843 322.833v39.06H17.182v-39.06c34.676.252 69.168 0 103.661 0z" fill="#F7F7F7" fill-opacity=".5"/>
  <path d="M1182.22 440.519v39.06h-109.16v-39.06h109.16zM1182.22 362.145v39.061h-109.16v-39.313c36.51.252 72.83.252 109.16.252z" fill="#EAEAEA" fill-opacity=".4"/>
  <path d="M1182.22 557.952v39.06h-109.16v-39.06c36.51-.252 72.83-.252 109.16 0z" fill="#F7F7F7" fill-opacity=".5"/>
  <path d="M1073.06 518.639V557.7H970.312v-39.061h102.748zM410.728 596.76v39.313H120.844v-39.06c96.689-.252 193.378-.253 289.884-.253zM120.844 440.267v39.06H17v-39.06H120.844zM970.314 597.013v39.06H680.43V596.76c96.689 0 193.378.001 289.884.253z" fill="#EAEAEA" fill-opacity=".4"/>
  <path d="M410.728 322.833v39.06H120.844v-39.06h289.884z" fill="#F7F7F7" fill-opacity=".5"/>
  <path d="M120.846 237.152v398.92M410.729 237.152v398.92M561.176 237.152v398.92M680.43 237.152v398.92M970.314 237.152v398.92M1073.06 237.152v398.92M17 284.142h103.657c96.686 0 193.189-.142 289.874-.142H1182v352H17v-22-22-22-22-22-22-22-22-22-22-22-22-22-22-22-21.858zM17.184 636.072H1182.22M17.184 597.012H1182.22M17.184 557.952H1182.22" stroke="#000" stroke-width=".7" stroke-miterlimit="10"/>
  <path d="M17.184 518.64h103.661c96.689 0 193.194-.252 289.883-.252h771.492M17.184 479.579H1182.22M17.184 440.519H1182.22M17.184 401.206H1182.22M17.184 362.146H1182.22M17.184 323.085H1182.22M17.184 283.773v-46.62H1182.22v46.62" stroke="#000" stroke-width=".7" stroke-miterlimit="10"/>
  <path d="M30.588 254.203l3.287 9.281 3.27-9.281h3.462V267h-2.645v-3.498l.264-6.038L34.772 267H32.96l-3.445-9.527.263 6.029V267h-2.636v-12.797h3.445zM45.714 267h-2.637v-12.797h2.637V267zm-.817-16.251h2.768l-2.434 2.725h-2.066l1.732-2.725zm9.905 12.894c0-.498-.176-.879-.528-1.143-.351-.27-.984-.551-1.898-.844-.914-.299-1.638-.592-2.17-.879-1.454-.785-2.18-1.842-2.18-3.173 0-.691.193-1.306.58-1.845.392-.545.952-.97 1.678-1.275.733-.304 1.553-.457 2.461-.457.914 0 1.729.167 2.444.501.714.328 1.268.794 1.66 1.398.399.603.598 1.289.598 2.056H54.81c0-.586-.184-1.04-.553-1.362-.37-.328-.888-.492-1.556-.492-.644 0-1.145.138-1.503.413-.357.27-.536.627-.536 1.072 0 .416.208.765.624 1.046.422.281 1.04.545 1.855.791 1.5.451 2.592 1.011 3.278 1.679.686.668 1.028 1.5 1.028 2.496 0 1.107-.419 1.978-1.257 2.61-.837.627-1.965.941-3.383.941-.985 0-1.881-.179-2.69-.536-.808-.364-1.427-.859-1.854-1.486-.422-.627-.633-1.353-.633-2.179h2.645c0 1.412.844 2.118 2.532 2.118.627 0 1.116-.126 1.467-.378.352-.258.528-.615.528-1.072zm14.071-7.304h-3.92V267h-2.637v-10.661H58.45v-2.136h10.424v2.136zm11.777 4.553c0 1.259-.222 2.364-.668 3.313-.445.949-1.084 1.682-1.916 2.197-.826.516-1.775.774-2.847.774-1.06 0-2.007-.255-2.84-.765-.831-.51-1.476-1.236-1.933-2.18-.457-.949-.688-2.039-.694-3.269v-.633c0-1.26.226-2.367.677-3.322.457-.961 1.098-1.696 1.924-2.206.833-.516 1.782-.774 2.848-.774 1.067 0 2.013.258 2.839.774.832.51 1.474 1.245 1.925 2.206.457.955.685 2.059.685 3.313v.572zm-2.672-.58c0-1.342-.24-2.362-.72-3.059-.48-.697-1.166-1.046-2.057-1.046-.885 0-1.567.346-2.048 1.037-.48.686-.723 1.694-.73 3.024v.624c0 1.306.241 2.32.721 3.041.481.72 1.172 1.081 2.075 1.081.885 0 1.564-.346 2.039-1.037.474-.698.715-1.711.72-3.041v-.624zM140.302 254.203h2.636v8.859c0 .815-.181 1.536-.544 2.163a3.655 3.655 0 01-1.521 1.441c-.656.34-1.397.51-2.224.51-1.353 0-2.408-.343-3.164-1.029-.756-.691-1.133-1.667-1.133-2.926h2.654c0 .627.132 1.09.395 1.388.264.299.68.449 1.248.449.504 0 .906-.173 1.205-.519.298-.346.448-.838.448-1.477v-8.859zm8.341 0l3.287 9.281 3.269-9.281h3.463V267h-2.645v-3.498l.263-6.038-3.454 9.536h-1.81l-3.446-9.527.264 6.029V267h-2.637v-12.797h3.446zm20.021 7.251h-5.062v3.428h5.941V267h-8.578v-12.797h8.56v2.136h-5.923v3.05h5.062v2.065zm-2.751-10.705h2.769l-2.435 2.725h-2.065l1.731-2.725zM181.496 267h-2.637l-5.132-8.42V267h-2.637v-12.797h2.637l5.141 8.438v-8.438h2.628V267zm12.815-6.108c0 1.259-.223 2.364-.668 3.313-.446.949-1.084 1.682-1.916 2.197-.827.516-1.776.774-2.848.774-1.061 0-2.007-.255-2.839-.765-.832-.51-1.477-1.236-1.934-2.18-.457-.949-.688-2.039-.694-3.269v-.633c0-1.26.226-2.367.677-3.322.457-.961 1.099-1.696 1.925-2.206.832-.516 1.781-.774 2.847-.774 1.067 0 2.013.258 2.839.774.832.51 1.474 1.245 1.925 2.206.457.955.686 2.059.686 3.313v.572zm-2.672-.58c0-1.342-.241-2.362-.721-3.059-.48-.697-1.166-1.046-2.057-1.046-.884 0-1.567.346-2.048 1.037-.48.686-.723 1.694-.729 3.024v.624c0 1.306.24 2.32.721 3.041.48.72 1.172 1.081 2.074 1.081.885 0 1.564-.346 2.039-1.037.475-.698.715-1.711.721-3.041v-.624zM426.88 262.315h-2.101V267h-2.636v-12.797h4.754c1.512 0 2.678.337 3.499 1.011.82.674 1.23 1.626 1.23 2.856 0 .873-.19 1.603-.571 2.189-.375.58-.947 1.043-1.714 1.388l2.768 5.23V267h-2.83l-2.399-4.685zm-2.101-2.135h2.127c.662 0 1.175-.167 1.538-.501.364-.34.545-.806.545-1.398 0-.603-.173-1.078-.518-1.424-.34-.345-.865-.518-1.574-.518h-2.118v3.841zm16.559 1.274h-5.063v3.428h5.942V267h-8.578v-12.797h8.56v2.136h-5.924v3.05h5.063v2.065zm12.551 3.929c-.475.568-1.146 1.011-2.013 1.327-.867.311-1.828.466-2.883.466-1.107 0-2.08-.24-2.918-.721-.832-.486-1.476-1.189-1.933-2.109-.452-.92-.683-2.001-.695-3.243v-.871c0-1.277.214-2.381.642-3.313.433-.938 1.055-1.652 1.863-2.145.815-.498 1.767-.747 2.857-.747 1.517 0 2.704.364 3.559 1.09.856.721 1.362 1.773 1.521 3.155h-2.567c-.117-.732-.378-1.268-.782-1.608-.398-.34-.949-.51-1.652-.51-.897 0-1.579.337-2.048 1.011-.469.674-.706 1.676-.712 3.006v.817c0 1.342.255 2.356.765 3.041.509.686 1.256 1.029 2.241 1.029.99 0 1.696-.211 2.118-.633v-2.206h-2.399v-1.943h5.036v5.107zm2.109.369c0-.404.135-.732.404-.984.276-.252.619-.378 1.029-.378.416 0 .758.126 1.028.378.275.252.413.58.413.984 0 .398-.135.724-.404.976-.27.246-.615.369-1.037.369-.416 0-.759-.123-1.029-.369-.269-.252-.404-.578-.404-.976zm19.802-3.015c-.1 1.377-.61 2.461-1.529 3.252-.915.791-2.122 1.187-3.622 1.187-1.64 0-2.932-.551-3.876-1.653-.937-1.107-1.406-2.625-1.406-4.552v-.783c0-1.23.217-2.314.651-3.251.433-.938 1.051-1.656 1.854-2.154.809-.504 1.746-.756 2.813-.756 1.476 0 2.666.396 3.568 1.187.902.791 1.424 1.901 1.564 3.331h-2.636c-.065-.826-.296-1.424-.695-1.793-.392-.375-.993-.563-1.801-.563-.879 0-1.539.317-1.978.95-.434.627-.656 1.602-.668 2.926v.967c0 1.383.208 2.394.624 3.032.422.639 1.084.958 1.986.958.815 0 1.421-.184 1.82-.553.404-.375.635-.952.694-1.732h2.637zm-5.142-10.784l1.283-1.257h2.171v.097l-2.654 2.47h-1.608l-2.655-2.488v-.079h2.171l1.292 1.257zM480.335 267h-2.637v-12.797h2.637V267zm-.817-16.251h2.768l-2.434 2.725h-2.066l1.732-2.725zm9.905 12.894c0-.498-.176-.879-.527-1.143-.352-.27-.985-.551-1.899-.844-.914-.299-1.638-.592-2.171-.879-1.453-.785-2.18-1.842-2.18-3.173 0-.691.194-1.306.581-1.845.392-.545.952-.97 1.678-1.275.733-.304 1.553-.457 2.461-.457.914 0 1.729.167 2.444.501.714.328 1.268.794 1.661 1.398.398.603.597 1.289.597 2.056h-2.636c0-.586-.185-1.04-.554-1.362-.369-.328-.888-.492-1.556-.492-.644 0-1.145.138-1.503.413-.357.27-.536.627-.536 1.072 0 .416.208.765.624 1.046.422.281 1.04.545 1.855.791 1.5.451 2.592 1.011 3.278 1.679.686.668 1.028 1.5 1.028 2.496 0 1.107-.419 1.978-1.256 2.61-.838.627-1.966.941-3.384.941-.985 0-1.881-.179-2.69-.536-.808-.364-1.426-.859-1.854-1.486-.422-.627-.633-1.353-.633-2.179h2.645c0 1.412.844 2.118 2.532 2.118.627 0 1.116-.126 1.468-.378.351-.258.527-.615.527-1.072zm7.075 1.239h5.599V267h-8.236v-12.797h2.637v10.679zm17.068-3.99c0 1.259-.222 2.364-.668 3.313-.445.949-1.084 1.682-1.916 2.197-.826.516-1.775.774-2.847.774-1.061 0-2.007-.255-2.839-.765-.832-.51-1.477-1.236-1.934-2.18-.457-.949-.688-2.039-.694-3.269v-.633c0-1.26.226-2.367.677-3.322.457-.961 1.098-1.696 1.925-2.206.832-.516 1.781-.774 2.847-.774 1.067 0 2.013.258 2.839.774.832.51 1.474 1.245 1.925 2.206.457.955.685 2.059.685 3.313v.572zm-2.671-.58c0-1.342-.241-2.362-.721-3.059-.481-.697-1.166-1.046-2.057-1.046-.885 0-1.567.346-2.048 1.037-.48.686-.723 1.694-.729 3.024v.624c0 1.306.24 2.32.721 3.041.48.72 1.171 1.081 2.074 1.081.885 0 1.564-.346 2.039-1.037.474-.698.715-1.711.721-3.041v-.624zM426.722 307.759l3.656-10.556h1.846L427.478 310h-1.495l-4.737-12.797h1.837l3.639 10.556zm11.127-4.131l3.339-6.425h1.916l-4.412 8.025V310h-1.687v-4.772l-4.412-8.025h1.933l3.323 6.425zm10.538.668c-1.448-.416-2.502-.926-3.164-1.529-.657-.61-.985-1.36-.985-2.25 0-1.008.402-1.84 1.204-2.496.809-.663 1.858-.994 3.147-.994.879 0 1.661.17 2.347.51.691.34 1.224.809 1.599 1.406.381.598.571 1.251.571 1.96h-1.696c0-.773-.246-1.38-.738-1.819-.492-.445-1.187-.668-2.083-.668-.832 0-1.483.185-1.951.554-.463.363-.695.87-.695 1.52 0 .522.22.964.66 1.327.445.358 1.198.686 2.258.985 1.067.299 1.899.63 2.496.993.604.357 1.049.776 1.336 1.257.293.48.44 1.046.44 1.696 0 1.037-.404 1.869-1.213 2.496-.809.621-1.89.932-3.243.932a6.061 6.061 0 01-2.461-.501c-.762-.34-1.351-.803-1.767-1.389a3.396 3.396 0 01-.615-1.995h1.696c0 .773.284 1.386.853 1.837.574.445 1.339.668 2.294.668.89 0 1.573-.182 2.048-.545.474-.363.712-.858.712-1.485 0-.627-.22-1.111-.66-1.451-.439-.345-1.236-.685-2.39-1.019zm14.519.246c0 1.904-.325 3.319-.975 4.245-.651.926-1.667 1.389-3.05 1.389-1.365 0-2.376-.451-3.032-1.354-.657-.908-.996-2.261-1.02-4.06v-2.171c0-1.881.325-3.279.976-4.193.65-.914 1.67-1.371 3.058-1.371 1.377 0 2.391.443 3.041 1.327.651.879.985 2.239 1.002 4.079v2.109zm-1.626-2.224c0-1.377-.193-2.379-.58-3.006-.387-.632-.999-.949-1.837-.949-.832 0-1.438.314-1.819.941s-.577 1.591-.589 2.891v2.602c0 1.383.199 2.405.598 3.067.404.657 1.013.985 1.828.985.803 0 1.397-.311 1.784-.932.393-.621.598-1.6.615-2.936v-2.663zm11.734 2.224c0 1.904-.326 3.319-.976 4.245-.65.926-1.667 1.389-3.05 1.389-1.365 0-2.376-.451-3.032-1.354-.656-.908-.996-2.261-1.019-4.06v-2.171c0-1.881.325-3.279.975-4.193.65-.914 1.67-1.371 3.059-1.371 1.377 0 2.39.443 3.041 1.327.65.879.984 2.239 1.002 4.079v2.109zm-1.626-2.224c0-1.377-.194-2.379-.58-3.006-.387-.632-.999-.949-1.837-.949-.832 0-1.439.314-1.82.941-.38.627-.577 1.591-.589 2.891v2.602c0 1.383.2 2.405.598 3.067.404.657 1.014.985 1.828.985.803 0 1.398-.311 1.784-.932.393-.621.598-1.6.616-2.936v-2.663zm11.733 2.224c0 1.904-.325 3.319-.975 4.245-.651.926-1.667 1.389-3.05 1.389-1.366 0-2.376-.451-3.033-1.354-.656-.908-.996-2.261-1.019-4.06v-2.171c0-1.881.325-3.279.976-4.193.65-.914 1.669-1.371 3.058-1.371 1.377 0 2.391.443 3.041 1.327.651.879.985 2.239 1.002 4.079v2.109zm-1.626-2.224c0-1.377-.193-2.379-.58-3.006-.387-.632-.999-.949-1.837-.949-.832 0-1.438.314-1.819.941s-.577 1.591-.589 2.891v2.602c0 1.383.199 2.405.598 3.067.404.657 1.013.985 1.828.985.802 0 1.397-.311 1.784-.932.392-.621.598-1.6.615-2.936v-2.663zm11.971-4.201l-5.3 11.883h-1.705l5.282-11.461h-6.926v-1.336h8.649v.914zM32.407 310h-1.634v-10.837l-3.279 1.204v-1.476l4.658-1.749h.255V310zm4.966-.853c0-.281.082-.515.246-.703.17-.187.422-.281.756-.281s.586.094.756.281a.99.99 0 01.264.703c0 .27-.088.496-.264.677-.17.182-.422.273-.756.273s-.586-.091-.756-.273a.971.971 0 01-.246-.677zM35.448 349h-8.384v-1.169l4.43-4.922c.655-.744 1.107-1.347 1.353-1.81a3.03 3.03 0 00.378-1.451c0-.668-.203-1.215-.607-1.643-.404-.428-.943-.642-1.617-.642-.809 0-1.439.232-1.89.695-.445.457-.668 1.095-.668 1.916h-1.626c0-1.178.378-2.13 1.134-2.857.762-.726 1.779-1.09 3.05-1.09 1.19 0 2.13.314 2.821.941.692.621 1.037 1.45 1.037 2.487 0 1.26-.802 2.76-2.408 4.5l-3.428 3.718h6.425V349zm1.925-.853c0-.281.082-.515.246-.703.17-.187.422-.281.756-.281s.586.094.756.281a.99.99 0 01.264.703c0 .27-.088.496-.264.677-.17.182-.422.273-.756.273s-.586-.091-.756-.273a.971.971 0 01-.246-.677zM29.428 380.811h1.221c.768-.012 1.371-.214 1.811-.607.44-.392.66-.923.66-1.591 0-1.5-.748-2.25-2.242-2.25-.703 0-1.266.202-1.688.607-.416.398-.624.928-.624 1.591H26.94c0-1.014.37-1.855 1.108-2.523.744-.674 1.687-1.011 2.83-1.011 1.207 0 2.153.32 2.839.958.685.639 1.028 1.527 1.028 2.663 0 .557-.181 1.096-.545 1.618a3.24 3.24 0 01-1.468 1.169c.703.222 1.245.591 1.626 1.107.387.516.58 1.146.58 1.89 0 1.148-.375 2.059-1.125 2.733-.75.674-1.725 1.011-2.926 1.011s-2.18-.325-2.936-.976c-.75-.65-1.125-1.509-1.125-2.575h1.635c0 .674.22 1.213.66 1.617.439.404 1.027.607 1.766.607.785 0 1.386-.205 1.801-.616.416-.41.624-.999.624-1.766 0-.744-.228-1.316-.685-1.714-.457-.399-1.116-.604-1.978-.615h-1.221v-1.327zm7.945 6.336c0-.281.082-.515.246-.703.17-.187.422-.281.756-.281s.586.094.756.281a.99.99 0 01.264.703c0 .27-.088.496-.264.677-.17.182-.422.273-.756.273s-.586-.091-.756-.273a.971.971 0 01-.246-.677zM33.928 422.702h1.775v1.327h-1.775V427h-1.635v-2.971h-5.827v-.958l5.73-8.868h1.732v8.499zm-5.616 0h3.981v-6.275l-.193.351-3.789 5.924zm9.061 3.445c0-.281.082-.515.246-.703.17-.187.422-.281.756-.281s.586.094.756.281a.99.99 0 01.264.703c0 .27-.088.496-.264.677-.17.182-.422.273-.756.273s-.586-.091-.756-.273a.971.971 0 01-.246-.677zM27.81 460.584l.65-6.381h6.558v1.503H29.84l-.387 3.489c.627-.369 1.339-.553 2.136-.553 1.166 0 2.092.386 2.777 1.16.686.767 1.029 1.807 1.029 3.12 0 1.318-.358 2.358-1.073 3.12-.709.756-1.702 1.134-2.98 1.134-1.13 0-2.053-.314-2.768-.941-.715-.627-1.122-1.494-1.221-2.601h1.538c.1.732.36 1.286.782 1.661.422.369.978.554 1.67.554.756 0 1.347-.258 1.775-.774.434-.515.65-1.227.65-2.136 0-.855-.234-1.541-.703-2.056-.463-.522-1.08-.782-1.854-.782-.71 0-1.266.155-1.67.465l-.43.352-1.301-.334zm9.563 5.563c0-.281.082-.515.246-.703.17-.187.422-.281.756-.281s.586.094.756.281a.99.99 0 01.264.703c0 .27-.088.496-.264.677-.17.182-.422.273-.756.273s-.586-.091-.756-.273a.971.971 0 01-.246-.677zM33.444 492.194v1.38h-.299c-1.265.024-2.273.399-3.023 1.125-.75.727-1.183 1.749-1.3 3.068.673-.774 1.593-1.161 2.76-1.161 1.112 0 2 .393 2.662 1.178.668.785 1.002 1.799 1.002 3.041 0 1.319-.36 2.373-1.081 3.164-.715.791-1.676 1.187-2.883 1.187-1.224 0-2.218-.469-2.98-1.406-.761-.944-1.142-2.157-1.142-3.639v-.624c0-2.356.501-4.154 1.503-5.397 1.008-1.248 2.505-1.886 4.491-1.916h.29zm-2.135 5.766c-.557 0-1.07.167-1.539.501a2.611 2.611 0 00-.975 1.257v.597c0 1.055.237 1.905.712 2.549.474.645 1.066.967 1.775.967.733 0 1.307-.269 1.723-.809.422-.539.633-1.245.633-2.118 0-.879-.214-1.588-.642-2.127-.422-.545-.984-.817-1.687-.817zm6.064 6.187c0-.281.082-.515.246-.703.17-.187.422-.281.756-.281s.586.094.756.281a.99.99 0 01.264.703c0 .27-.088.496-.264.677-.17.182-.422.273-.756.273s-.586-.091-.756-.273a.971.971 0 01-.246-.677zM35.325 533.117L30.025 545H28.32l5.282-11.461h-6.925v-1.336h8.648v.914zm2.048 11.03c0-.281.082-.515.246-.703.17-.187.422-.281.756-.281s.586.094.756.281a.99.99 0 01.264.703c0 .27-.088.496-.264.677-.17.182-.422.273-.756.273s-.586-.091-.756-.273a.971.971 0 01-.246-.677zM34.824 574.543c0 .639-.17 1.207-.51 1.705a3.404 3.404 0 01-1.362 1.169c.668.287 1.196.706 1.582 1.257.393.551.589 1.175.589 1.872 0 1.107-.375 1.989-1.125 2.645-.744.657-1.725.985-2.944.985-1.23 0-2.218-.328-2.962-.985-.738-.662-1.108-1.544-1.108-2.645 0-.692.188-1.316.563-1.872.38-.557.905-.979 1.573-1.266a3.352 3.352 0 01-1.345-1.169 3.013 3.013 0 01-.492-1.696c0-1.078.346-1.934 1.037-2.566.692-.633 1.603-.95 2.734-.95 1.125 0 2.033.317 2.724.95.698.632 1.046 1.488 1.046 2.566zm-1.327 5.968c0-.715-.228-1.298-.685-1.749-.452-.451-1.043-.677-1.776-.677-.732 0-1.321.223-1.767.668-.439.445-.659 1.031-.659 1.758 0 .726.214 1.298.642 1.714.434.416 1.034.624 1.802.624.761 0 1.36-.208 1.793-.624.433-.422.65-.994.65-1.714zm-2.443-8.148c-.639 0-1.157.199-1.556.598-.393.393-.589.929-.589 1.608 0 .651.194 1.178.58 1.582.393.399.914.598 1.565.598.65 0 1.169-.199 1.555-.598.393-.404.59-.931.59-1.582 0-.65-.203-1.18-.607-1.59-.404-.411-.917-.616-1.538-.616zm6.319 10.784c0-.281.082-.515.246-.703.17-.187.422-.281.756-.281s.586.094.756.281a.99.99 0 01.264.703c0 .27-.088.496-.264.677-.17.182-.422.273-.756.273s-.586-.091-.756-.273a.971.971 0 01-.246-.677zM33.295 617.375c-.34.404-.747.729-1.222.976a3.277 3.277 0 01-1.547.369c-.738 0-1.382-.182-1.933-.545-.545-.363-.967-.873-1.266-1.529a5.264 5.264 0 01-.448-2.189c0-.855.161-1.626.483-2.311.328-.686.791-1.21 1.389-1.574.598-.363 1.295-.545 2.092-.545 1.265 0 2.262.475 2.988 1.424.732.944 1.099 2.233 1.099 3.867v.475c0 2.49-.492 4.31-1.477 5.458-.984 1.143-2.47 1.728-4.456 1.758h-.316v-1.371h.342c1.342-.024 2.373-.372 3.094-1.046.72-.68 1.114-1.752 1.178-3.217zm-2.505 0c.545 0 1.046-.167 1.503-.501.463-.334.8-.747 1.01-1.239v-.651c0-1.066-.23-1.933-.694-2.601-.462-.668-1.049-1.002-1.757-1.002-.715 0-1.29.275-1.723.826-.434.545-.65 1.266-.65 2.162 0 .873.207 1.594.623 2.162.422.563.985.844 1.688.844zm6.583 4.772c0-.281.082-.515.246-.703.17-.187.422-.281.756-.281s.586.094.756.281a.99.99 0 01.264.703c0 .27-.088.496-.264.677-.17.182-.422.273-.756.273s-.586-.091-.756-.273a.971.971 0 01-.246-.677z" fill="#fff"/>
  <g opacity=".8" fill="#fff">
    <path d="M1085.89 341.136h3.57v1.538h-3.57v4.043h-1.64v-4.043h-3.56v-1.538h3.56V337.4h1.64v3.736zm17.88 1.406c0 1.904-.33 3.319-.98 4.245-.65.926-1.67 1.389-3.05 1.389-1.36 0-2.38-.451-3.03-1.354-.66-.908-1-2.261-1.02-4.06v-2.171c0-1.881.32-3.279.97-4.193.65-.914 1.67-1.371 3.06-1.371 1.38 0 2.39.443 3.04 1.327.65.879.99 2.239 1.01 4.079v2.109zm-1.63-2.224c0-1.377-.19-2.379-.58-3.006-.39-.632-1-.949-1.84-.949-.83 0-1.44.314-1.82.941-.38.627-.57 1.591-.59 2.891v2.602c0 1.383.2 2.405.6 3.067.41.657 1.02.985 1.83.985.8 0 1.4-.311 1.78-.932.4-.621.6-1.6.62-2.936v-2.663zm3.91 6.829c0-.281.08-.515.25-.703.17-.187.42-.281.75-.281.34 0 .59.094.76.281.17.188.26.422.26.703 0 .27-.09.496-.26.677-.17.182-.42.273-.76.273-.33 0-.58-.091-.75-.273a.947.947 0 01-.25-.677zm12.93.853h-8.39v-1.169l4.43-4.922c.66-.744 1.11-1.347 1.36-1.81.25-.469.38-.953.38-1.451 0-.668-.21-1.215-.61-1.643-.4-.428-.94-.642-1.62-.642-.81 0-1.44.232-1.89.695-.44.457-.67 1.095-.67 1.916h-1.62c0-1.178.38-2.13 1.13-2.857.76-.726 1.78-1.09 3.05-1.09 1.19 0 2.13.314 2.82.941.69.621 1.04 1.45 1.04 2.487 0 1.26-.8 2.76-2.41 4.5l-3.43 3.718h6.43V348zm9.75-5.458c0 1.904-.33 3.319-.98 4.245-.65.926-1.67 1.389-3.05 1.389-1.36 0-2.37-.451-3.03-1.354-.66-.908-1-2.261-1.02-4.06v-2.171c0-1.881.32-3.279.97-4.193.66-.914 1.67-1.371 3.06-1.371 1.38 0 2.39.443 3.04 1.327.66.879.99 2.239 1.01 4.079v2.109zm-1.63-2.224c0-1.377-.19-2.379-.58-3.006-.39-.632-1-.949-1.84-.949-.83 0-1.43.314-1.82.941-.38.627-.57 1.591-.58 2.891v2.602c0 1.383.19 2.405.59 3.067.41.657 1.02.985 1.83.985.8 0 1.4-.311 1.79-.932.39-.621.59-1.6.61-2.936v-2.663zM1085.89 380.136h3.57v1.538h-3.57v4.043h-1.64v-4.043h-3.56v-1.538h3.56V376.4h1.64v3.736zm17.88 1.406c0 1.904-.33 3.319-.98 4.245-.65.926-1.67 1.389-3.05 1.389-1.36 0-2.38-.451-3.03-1.354-.66-.908-1-2.261-1.02-4.06v-2.171c0-1.881.32-3.279.97-4.193.65-.914 1.67-1.371 3.06-1.371 1.38 0 2.39.443 3.04 1.327.65.879.99 2.239 1.01 4.079v2.109zm-1.63-2.224c0-1.377-.19-2.379-.58-3.006-.39-.632-1-.949-1.84-.949-.83 0-1.44.314-1.82.941-.38.627-.57 1.591-.59 2.891v2.602c0 1.383.2 2.405.6 3.067.41.657 1.02.985 1.83.985.8 0 1.4-.311 1.78-.932.4-.621.6-1.6.62-2.936v-2.663zm3.91 6.829c0-.281.08-.515.25-.703.17-.187.42-.281.75-.281.34 0 .59.094.76.281.17.188.26.422.26.703 0 .27-.09.496-.26.677-.17.182-.42.273-.76.273-.33 0-.58-.091-.75-.273a.947.947 0 01-.25-.677zm6.91-6.336h1.22c.77-.012 1.37-.214 1.81-.607.44-.392.66-.923.66-1.591 0-1.5-.75-2.25-2.24-2.25-.7 0-1.27.202-1.69.607-.41.398-.62.928-.62 1.591h-1.63c0-1.014.37-1.855 1.11-2.523.74-.674 1.69-1.011 2.83-1.011 1.21 0 2.15.32 2.84.958.68.639 1.03 1.527 1.03 2.663 0 .557-.19 1.096-.55 1.618-.36.521-.85.911-1.47 1.169.71.222 1.25.591 1.63 1.107.39.516.58 1.146.58 1.89 0 1.148-.38 2.059-1.13 2.733-.75.674-1.72 1.011-2.92 1.011s-2.18-.325-2.94-.976c-.75-.65-1.12-1.509-1.12-2.575h1.63c0 .674.22 1.213.66 1.617.44.404 1.03.607 1.77.607.78 0 1.38-.205 1.8-.616.42-.41.62-.999.62-1.766 0-.744-.22-1.316-.68-1.714-.46-.399-1.12-.604-1.98-.615h-1.22v-1.327zm15.77 1.731c0 1.904-.33 3.319-.98 4.245-.65.926-1.67 1.389-3.05 1.389-1.36 0-2.37-.451-3.03-1.354-.66-.908-1-2.261-1.02-4.06v-2.171c0-1.881.32-3.279.97-4.193.66-.914 1.67-1.371 3.06-1.371 1.38 0 2.39.443 3.04 1.327.66.879.99 2.239 1.01 4.079v2.109zm-1.63-2.224c0-1.377-.19-2.379-.58-3.006-.39-.632-1-.949-1.84-.949-.83 0-1.43.314-1.82.941-.38.627-.57 1.591-.58 2.891v2.602c0 1.383.19 2.405.59 3.067.41.657 1.02.985 1.83.985.8 0 1.4-.311 1.79-.932.39-.621.59-1.6.61-2.936v-2.663zM1085.89 421.136h3.57v1.538h-3.57v4.043h-1.64v-4.043h-3.56v-1.538h3.56V417.4h1.64v3.736zm17.88 1.406c0 1.904-.33 3.319-.98 4.245-.65.926-1.67 1.389-3.05 1.389-1.36 0-2.38-.451-3.03-1.354-.66-.908-1-2.261-1.02-4.06v-2.171c0-1.881.32-3.279.97-4.193.65-.914 1.67-1.371 3.06-1.371 1.38 0 2.39.443 3.04 1.327.65.879.99 2.239 1.01 4.079v2.109zm-1.63-2.224c0-1.377-.19-2.379-.58-3.006-.39-.632-1-.949-1.84-.949-.83 0-1.44.314-1.82.941-.38.627-.57 1.591-.59 2.891v2.602c0 1.383.2 2.405.6 3.067.41.657 1.02.985 1.83.985.8 0 1.4-.311 1.78-.932.4-.621.6-1.6.62-2.936v-2.663zm3.91 6.829c0-.281.08-.515.25-.703.17-.187.42-.281.75-.281.34 0 .59.094.76.281.17.188.26.422.26.703 0 .27-.09.496-.26.677-.17.182-.42.273-.76.273-.33 0-.58-.091-.75-.273a.947.947 0 01-.25-.677zm5.29-5.563l.65-6.381h6.56v1.503h-5.18l-.38 3.489c.62-.369 1.33-.553 2.13-.553 1.17 0 2.09.386 2.78 1.16.68.767 1.03 1.807 1.03 3.12 0 1.318-.36 2.358-1.08 3.12-.7.756-1.7 1.134-2.97 1.134-1.14 0-2.06-.314-2.77-.941-.72-.627-1.13-1.494-1.23-2.601h1.54c.1.732.36 1.286.79 1.661.42.369.97.554 1.67.554.75 0 1.34-.258 1.77-.774.43-.515.65-1.227.65-2.136 0-.855-.23-1.541-.7-2.056-.47-.522-1.08-.782-1.86-.782-.71 0-1.26.155-1.67.465l-.43.352-1.3-.334zm17.39.958c0 1.904-.33 3.319-.98 4.245-.65.926-1.67 1.389-3.05 1.389-1.36 0-2.37-.451-3.03-1.354-.66-.908-1-2.261-1.02-4.06v-2.171c0-1.881.32-3.279.97-4.193.66-.914 1.67-1.371 3.06-1.371 1.38 0 2.39.443 3.04 1.327.66.879.99 2.239 1.01 4.079v2.109zm-1.63-2.224c0-1.377-.19-2.379-.58-3.006-.39-.632-1-.949-1.84-.949-.83 0-1.43.314-1.82.941-.38.627-.57 1.591-.58 2.891v2.602c0 1.383.19 2.405.59 3.067.41.657 1.02.985 1.83.985.8 0 1.4-.311 1.79-.932.39-.621.59-1.6.61-2.936v-2.663zM1085.89 459.136h3.57v1.538h-3.57v4.043h-1.64v-4.043h-3.56v-1.538h3.56V455.4h1.64v3.736zm15.19 6.864h-1.63v-10.837l-3.28 1.204v-1.476l4.66-1.749h.25V466zm4.97-.853c0-.281.08-.515.25-.703.17-.187.42-.281.75-.281.34 0 .59.094.76.281.17.188.26.422.26.703 0 .27-.09.496-.26.677-.17.182-.42.273-.76.273-.33 0-.58-.091-.75-.273a.947.947 0 01-.25-.677zm9.89.853h-1.64v-10.837l-3.27 1.204v-1.476l4.65-1.749h.26V466zm10.11 0h-1.64v-10.837l-3.28 1.204v-1.476l4.66-1.749h.26V466z"/>
  </g>
  <path d="M988.407 310h-1.635v-10.837l-3.278 1.204v-1.476l4.658-1.749h.255V310zm10.995-5.625c-.34.404-.747.729-1.221.976a3.28 3.28 0 01-1.547.369c-.738 0-1.383-.182-1.934-.545-.545-.363-.967-.873-1.265-1.529a5.261 5.261 0 01-.449-2.189c0-.855.161-1.626.484-2.311.328-.686.791-1.21 1.388-1.574.598-.363 1.295-.545 2.092-.545 1.266 0 2.262.475 2.988 1.424.732.944 1.102 2.233 1.102 3.867v.475c0 2.49-.5 4.31-1.479 5.458-.985 1.143-2.47 1.728-4.457 1.758h-.316v-1.371h.343c1.342-.024 2.373-.372 3.094-1.046.72-.68 1.113-1.752 1.177-3.217zm-2.505 0c.545 0 1.046-.167 1.503-.501.463-.334.8-.747 1.011-1.239v-.651c0-1.066-.231-1.933-.694-2.601-.463-.668-1.049-1.002-1.758-1.002-.715 0-1.289.275-1.723.826-.433.545-.65 1.266-.65 2.162 0 .873.208 1.594.624 2.162.422.563.984.844 1.687.844zm6.493 4.772c0-.281.08-.515.25-.703.17-.187.42-.281.75-.281.34 0 .59.094.76.281.18.188.26.422.26.703 0 .27-.08.496-.26.677-.17.182-.42.273-.76.273-.33 0-.58-.091-.75-.273a.947.947 0 01-.25-.677zm.01-7.76c0-.282.08-.516.25-.703.17-.188.42-.282.75-.282.34 0 .59.094.76.282.17.187.26.421.26.703 0 .269-.09.495-.26.676-.17.182-.42.273-.76.273-.33 0-.58-.091-.75-.273a.947.947 0 01-.25-.676zm9.58 8.613h-1.63v-10.837l-3.28 1.204v-1.476l4.66-1.749h.25V310zm12.53-9.457c0 .639-.17 1.207-.51 1.705-.34.498-.79.888-1.37 1.169.67.287 1.2.706 1.59 1.257.39.551.58 1.175.58 1.872 0 1.107-.37 1.989-1.12 2.645-.74.657-1.73.985-2.94.985-1.24 0-2.22-.328-2.97-.985-.73-.662-1.1-1.544-1.1-2.645 0-.692.18-1.316.56-1.872.38-.557.9-.979 1.57-1.266a3.34 3.34 0 01-1.34-1.169 3.004 3.004 0 01-.5-1.696c0-1.078.35-1.934 1.04-2.566.69-.633 1.6-.95 2.74-.95 1.12 0 2.03.317 2.72.95.7.632 1.05 1.488 1.05 2.566zm-1.33 5.968c0-.715-.23-1.298-.69-1.749-.45-.451-1.04-.677-1.77-.677s-1.32.223-1.77.668c-.44.445-.66 1.031-.66 1.758 0 .726.22 1.298.64 1.714.44.416 1.04.624 1.81.624.76 0 1.35-.208 1.79-.624.43-.422.65-.994.65-1.714zm-2.44-8.148c-.64 0-1.16.199-1.56.598-.39.393-.59.929-.59 1.608 0 .651.19 1.178.58 1.582.39.399.91.598 1.57.598.65 0 1.16-.199 1.55-.598.39-.404.59-.931.59-1.582 0-.65-.2-1.18-.61-1.59-.4-.411-.91-.616-1.53-.616zM988.407 349h-1.635v-10.837l-3.278 1.204v-1.476l4.658-1.749h.255V349zm10.995-5.625c-.34.404-.747.729-1.221.976a3.28 3.28 0 01-1.547.369c-.738 0-1.383-.182-1.934-.545-.545-.363-.967-.873-1.265-1.529a5.261 5.261 0 01-.449-2.189c0-.855.161-1.626.484-2.311.328-.686.791-1.21 1.388-1.574.598-.363 1.295-.545 2.092-.545 1.266 0 2.262.475 2.988 1.424.732.944 1.102 2.233 1.102 3.867v.475c0 2.49-.5 4.31-1.479 5.458-.985 1.143-2.47 1.728-4.457 1.758h-.316v-1.371h.343c1.342-.024 2.373-.372 3.094-1.046.72-.68 1.113-1.752 1.177-3.217zm-2.505 0c.545 0 1.046-.167 1.503-.501.463-.334.8-.747 1.011-1.239v-.651c0-1.066-.231-1.933-.694-2.601-.463-.668-1.049-1.002-1.758-1.002-.715 0-1.289.275-1.723.826-.433.545-.65 1.266-.65 2.162 0 .873.208 1.594.624 2.162.422.563.984.844 1.687.844zm6.493 4.772c0-.281.08-.515.25-.703.17-.187.42-.281.75-.281.34 0 .59.094.76.281.18.188.26.422.26.703 0 .27-.08.496-.26.677-.17.182-.42.273-.76.273-.33 0-.58-.091-.75-.273a.947.947 0 01-.25-.677zm.01-7.76c0-.282.08-.516.25-.703.17-.188.42-.282.75-.282.34 0 .59.094.76.282.17.187.26.421.26.703 0 .269-.09.495-.26.676-.17.182-.42.273-.76.273-.33 0-.58-.091-.75-.273a.947.947 0 01-.25-.676zm6.6 1.424h1.22c.77-.012 1.37-.214 1.81-.607.44-.392.66-.923.66-1.591 0-1.5-.74-2.25-2.24-2.25-.7 0-1.26.202-1.69.607-.41.398-.62.928-.62 1.591h-1.63c0-1.014.37-1.855 1.11-2.523.75-.674 1.69-1.011 2.83-1.011 1.21 0 2.16.32 2.84.958.69.639 1.03 1.527 1.03 2.663 0 .557-.18 1.096-.55 1.618-.35.521-.84.911-1.46 1.169.7.222 1.24.591 1.62 1.107.39.516.58 1.146.58 1.89 0 1.148-.37 2.059-1.12 2.733-.75.674-1.73 1.011-2.93 1.011-1.2 0-2.18-.325-2.93-.976-.75-.65-1.13-1.509-1.13-2.575h1.64c0 .674.21 1.213.65 1.617.44.404 1.03.607 1.77.607.79 0 1.39-.205 1.8-.616.42-.41.63-.999.63-1.766 0-.744-.23-1.316-.69-1.714-.46-.399-1.12-.604-1.98-.615H1010v-1.327zm15.51-2.268c0 .639-.17 1.207-.51 1.705-.34.498-.79.888-1.37 1.169.67.287 1.2.706 1.59 1.257.39.551.58 1.175.58 1.872 0 1.107-.37 1.989-1.12 2.645-.74.657-1.73.985-2.94.985-1.24 0-2.22-.328-2.97-.985-.73-.662-1.1-1.544-1.1-2.645 0-.692.18-1.316.56-1.872.38-.557.9-.979 1.57-1.266a3.34 3.34 0 01-1.34-1.169 3.004 3.004 0 01-.5-1.696c0-1.078.35-1.934 1.04-2.566.69-.633 1.6-.95 2.74-.95 1.12 0 2.03.317 2.72.95.7.632 1.05 1.488 1.05 2.566zm-1.33 5.968c0-.715-.23-1.298-.69-1.749-.45-.451-1.04-.677-1.77-.677s-1.32.223-1.77.668c-.44.445-.66 1.031-.66 1.758 0 .726.22 1.298.64 1.714.44.416 1.04.624 1.81.624.76 0 1.35-.208 1.79-.624.43-.422.65-.994.65-1.714zm-2.44-8.148c-.64 0-1.16.199-1.56.598-.39.393-.59.929-.59 1.608 0 .651.19 1.178.58 1.582.39.399.91.598 1.57.598.65 0 1.16-.199 1.55-.598.39-.404.59-.931.59-1.582 0-.65-.2-1.18-.61-1.59-.4-.411-.91-.616-1.53-.616zM988.407 387h-1.635v-10.837l-3.278 1.204v-1.476l4.658-1.749h.255V387zm10.995-5.625c-.34.404-.747.729-1.221.976a3.28 3.28 0 01-1.547.369c-.738 0-1.383-.182-1.934-.545-.545-.363-.967-.873-1.265-1.529a5.261 5.261 0 01-.449-2.189c0-.855.161-1.626.484-2.311.328-.686.791-1.21 1.388-1.574.598-.363 1.295-.545 2.092-.545 1.266 0 2.262.475 2.988 1.424.732.944 1.102 2.233 1.102 3.867v.475c0 2.49-.5 4.31-1.479 5.458-.985 1.143-2.47 1.728-4.457 1.758h-.316v-1.371h.343c1.342-.024 2.373-.372 3.094-1.046.72-.68 1.113-1.752 1.177-3.217zm-2.505 0c.545 0 1.046-.167 1.503-.501.463-.334.8-.747 1.011-1.239v-.651c0-1.066-.231-1.933-.694-2.601-.463-.668-1.049-1.002-1.758-1.002-.715 0-1.289.275-1.723.826-.433.545-.65 1.266-.65 2.162 0 .873.208 1.594.624 2.162.422.563.984.844 1.687.844zm6.493 4.772c0-.281.08-.515.25-.703.17-.187.42-.281.75-.281.34 0 .59.094.76.281.18.188.26.422.26.703 0 .27-.08.496-.26.677-.17.182-.42.273-.76.273-.33 0-.58-.091-.75-.273a.947.947 0 01-.25-.677zm.01-7.76c0-.282.08-.516.25-.703.17-.188.42-.282.75-.282.34 0 .59.094.76.282.17.187.26.421.26.703 0 .269-.09.495-.26.676-.17.182-.42.273-.76.273-.33 0-.58-.091-.75-.273a.947.947 0 01-.25-.676zm11.1 4.315h1.78v1.327h-1.78V387h-1.63v-2.971h-5.83v-.958l5.73-8.868h1.73v8.499zm-5.61 0h3.98v-6.275l-.2.351-3.78 5.924zm16.62-5.159c0 .639-.17 1.207-.51 1.705-.34.498-.79.888-1.37 1.169.67.287 1.2.706 1.59 1.257.39.551.58 1.175.58 1.872 0 1.107-.37 1.989-1.12 2.645-.74.657-1.73.985-2.94.985-1.24 0-2.22-.328-2.97-.985-.73-.662-1.1-1.544-1.1-2.645 0-.692.18-1.316.56-1.872.38-.557.9-.979 1.57-1.266a3.34 3.34 0 01-1.34-1.169 3.004 3.004 0 01-.5-1.696c0-1.078.35-1.934 1.04-2.566.69-.633 1.6-.95 2.74-.95 1.12 0 2.03.317 2.72.95.7.632 1.05 1.488 1.05 2.566zm-1.33 5.968c0-.715-.23-1.298-.69-1.749-.45-.451-1.04-.677-1.77-.677s-1.32.223-1.77.668c-.44.445-.66 1.031-.66 1.758 0 .726.22 1.298.64 1.714.44.416 1.04.624 1.81.624.76 0 1.35-.208 1.79-.624.43-.422.65-.994.65-1.714zm-2.44-8.148c-.64 0-1.16.199-1.56.598-.39.393-.59.929-.59 1.608 0 .651.19 1.178.58 1.582.39.399.91.598 1.57.598.65 0 1.16-.199 1.55-.598.39-.404.59-.931.59-1.582 0-.65-.2-1.18-.61-1.59-.4-.411-.91-.616-1.53-.616zM988.407 427h-1.635v-10.837l-3.278 1.204v-1.476l4.658-1.749h.255V427zm10.995-5.625c-.34.404-.747.729-1.221.976a3.28 3.28 0 01-1.547.369c-.738 0-1.383-.182-1.934-.545-.545-.363-.967-.873-1.265-1.529a5.261 5.261 0 01-.449-2.189c0-.855.161-1.626.484-2.311.328-.686.791-1.21 1.388-1.574.598-.363 1.295-.545 2.092-.545 1.266 0 2.262.475 2.988 1.424.732.944 1.102 2.233 1.102 3.867v.475c0 2.49-.5 4.31-1.479 5.458-.985 1.143-2.47 1.728-4.457 1.758h-.316v-1.371h.343c1.342-.024 2.373-.372 3.094-1.046.72-.68 1.113-1.752 1.177-3.217zm-2.505 0c.545 0 1.046-.167 1.503-.501.463-.334.8-.747 1.011-1.239v-.651c0-1.066-.231-1.933-.694-2.601-.463-.668-1.049-1.002-1.758-1.002-.715 0-1.289.275-1.723.826-.433.545-.65 1.266-.65 2.162 0 .873.208 1.594.624 2.162.422.563.984.844 1.687.844zm6.493 4.772c0-.281.08-.515.25-.703.17-.187.42-.281.75-.281.34 0 .59.094.76.281.18.188.26.422.26.703 0 .27-.08.496-.26.677-.17.182-.42.273-.76.273-.33 0-.58-.091-.75-.273a.947.947 0 01-.25-.677zm.01-7.76c0-.282.08-.516.25-.703.17-.188.42-.282.75-.282.34 0 .59.094.76.282.17.187.26.421.26.703 0 .269-.09.495-.26.676-.17.182-.42.273-.76.273-.33 0-.58-.091-.75-.273a.947.947 0 01-.25-.676zm10.62-4.193v1.38h-.3c-1.27.024-2.27.399-3.02 1.125-.75.727-1.19 1.749-1.3 3.068.67-.774 1.59-1.161 2.76-1.161 1.11 0 2 .393 2.66 1.178.67.785 1 1.799 1 3.041 0 1.319-.36 2.373-1.08 3.164-.72.791-1.68 1.187-2.88 1.187-1.23 0-2.22-.469-2.98-1.406-.76-.944-1.15-2.157-1.15-3.639v-.624c0-2.356.51-4.154 1.51-5.397 1.01-1.248 2.5-1.886 4.49-1.916h.29zm-2.14 5.766c-.55 0-1.07.167-1.54.501-.46.334-.79.753-.97 1.257v.597c0 1.055.24 1.905.71 2.549.48.645 1.07.967 1.78.967.73 0 1.3-.269 1.72-.809.42-.539.63-1.245.63-2.118 0-.879-.21-1.588-.64-2.127-.42-.545-.98-.817-1.69-.817zm13.63-2.417c0 .639-.17 1.207-.51 1.705-.34.498-.79.888-1.37 1.169.67.287 1.2.706 1.59 1.257.39.551.58 1.175.58 1.872 0 1.107-.37 1.989-1.12 2.645-.74.657-1.73.985-2.94.985-1.24 0-2.22-.328-2.97-.985-.73-.662-1.1-1.544-1.1-2.645 0-.692.18-1.316.56-1.872.38-.557.9-.979 1.57-1.266a3.34 3.34 0 01-1.34-1.169 3.004 3.004 0 01-.5-1.696c0-1.078.35-1.934 1.04-2.566.69-.633 1.6-.95 2.74-.95 1.12 0 2.03.317 2.72.95.7.632 1.05 1.488 1.05 2.566zm-1.33 5.968c0-.715-.23-1.298-.69-1.749-.45-.451-1.04-.677-1.77-.677s-1.32.223-1.77.668c-.44.445-.66 1.031-.66 1.758 0 .726.22 1.298.64 1.714.44.416 1.04.624 1.81.624.76 0 1.35-.208 1.79-.624.43-.422.65-.994.65-1.714zm-2.44-8.148c-.64 0-1.16.199-1.56.598-.39.393-.59.929-.59 1.608 0 .651.19 1.178.58 1.582.39.399.91.598 1.57.598.65 0 1.16-.199 1.55-.598.39-.404.59-.931.59-1.582 0-.65-.2-1.18-.61-1.59-.4-.411-.91-.616-1.53-.616zM988.407 466h-1.635v-10.837l-3.278 1.204v-1.476l4.658-1.749h.255V466zm10.995-5.625c-.34.404-.747.729-1.221.976a3.28 3.28 0 01-1.547.369c-.738 0-1.383-.182-1.934-.545-.545-.363-.967-.873-1.265-1.529a5.261 5.261 0 01-.449-2.189c0-.855.161-1.626.484-2.311.328-.686.791-1.21 1.388-1.574.598-.363 1.295-.545 2.092-.545 1.266 0 2.262.475 2.988 1.424.732.944 1.102 2.233 1.102 3.867v.475c0 2.49-.5 4.31-1.479 5.458-.985 1.143-2.47 1.728-4.457 1.758h-.316v-1.371h.343c1.342-.024 2.373-.372 3.094-1.046.72-.68 1.113-1.752 1.177-3.217zm-2.505 0c.545 0 1.046-.167 1.503-.501.463-.334.8-.747 1.011-1.239v-.651c0-1.066-.231-1.933-.694-2.601-.463-.668-1.049-1.002-1.758-1.002-.715 0-1.289.275-1.723.826-.433.545-.65 1.266-.65 2.162 0 .873.208 1.594.624 2.162.422.563.984.844 1.687.844zm6.493 4.772c0-.281.08-.515.25-.703.17-.187.42-.281.75-.281.34 0 .59.094.76.281.18.188.26.422.26.703 0 .27-.08.496-.26.677-.17.182-.42.273-.76.273-.33 0-.58-.091-.75-.273a.947.947 0 01-.25-.677zm.01-7.76c0-.282.08-.516.25-.703.17-.188.42-.282.75-.282.34 0 .59.094.76.282.17.187.26.421.26.703 0 .269-.09.495-.26.676-.17.182-.42.273-.76.273-.33 0-.58-.091-.75-.273a.947.947 0 01-.25-.676zm12-.844c0 .639-.17 1.207-.51 1.705-.34.498-.79.888-1.36 1.169.66.287 1.19.706 1.58 1.257.39.551.59 1.175.59 1.872 0 1.107-.38 1.989-1.13 2.645-.74.657-1.72.985-2.94.985-1.23 0-2.22-.328-2.96-.985-.74-.662-1.11-1.544-1.11-2.645 0-.692.19-1.316.56-1.872.38-.557.91-.979 1.57-1.266a3.408 3.408 0 01-1.34-1.169c-.33-.498-.49-1.063-.49-1.696 0-1.078.34-1.934 1.03-2.566.7-.633 1.61-.95 2.74-.95 1.12 0 2.03.317 2.72.95.7.632 1.05 1.488 1.05 2.566zm-1.33 5.968c0-.715-.23-1.298-.68-1.749-.46-.451-1.05-.677-1.78-.677s-1.32.223-1.77.668c-.44.445-.66 1.031-.66 1.758 0 .726.22 1.298.65 1.714.43.416 1.03.624 1.8.624.76 0 1.36-.208 1.79-.624.43-.422.65-.994.65-1.714zm-2.44-8.148c-.64 0-1.16.199-1.56.598-.39.393-.59.929-.59 1.608 0 .651.2 1.178.58 1.582.4.399.92.598 1.57.598s1.17-.199 1.55-.598c.4-.404.59-.931.59-1.582 0-.65-.2-1.18-.6-1.59-.41-.411-.92-.616-1.54-.616zm12.35 6.012c-.34.404-.75.729-1.23.976-.46.246-.98.369-1.54.369-.74 0-1.38-.182-1.94-.545-.54-.363-.96-.873-1.26-1.529a5.246 5.246 0 01-.45-2.189c0-.855.16-1.626.48-2.311.33-.686.79-1.21 1.39-1.574.6-.363 1.3-.545 2.09-.545 1.27 0 2.27.475 2.99 1.424.74.944 1.1 2.233 1.1 3.867v.475c0 2.49-.49 4.31-1.48 5.458-.98 1.143-2.46 1.728-4.45 1.758h-.32v-1.371h.35c1.34-.024 2.37-.372 3.09-1.046.72-.68 1.11-1.752 1.18-3.217zm-2.51 0c.55 0 1.05-.167 1.5-.501.47-.334.8-.747 1.02-1.239v-.651c0-1.066-.24-1.933-.7-2.601-.46-.668-1.05-1.002-1.76-1.002s-1.29.275-1.72.826c-.43.545-.65 1.266-.65 2.162 0 .873.21 1.594.62 2.162.43.563.99.844 1.69.844zM429.543 342.349h-5.37V348h-1.688v-12.797h7.928v1.389h-6.24v4.377h5.37v1.38zm4.157 4.271h7.321V348h-9.316v-1.266l7.014-10.142h-6.9v-1.389h8.921v1.239l-7.04 10.178zm10.776 0h7.321V348h-9.317v-1.266l7.014-10.142h-6.899v-1.389h8.921v1.239l-7.04 10.178zm16.848-8.077c0 .639-.17 1.207-.51 1.705a3.405 3.405 0 01-1.362 1.169c.668.287 1.195.706 1.582 1.257.393.551.589 1.175.589 1.872 0 1.107-.375 1.989-1.125 2.645-.744.657-1.726.985-2.944.985-1.231 0-2.218-.328-2.962-.985-.738-.662-1.108-1.544-1.108-2.645 0-.692.188-1.316.563-1.872.381-.557.905-.979 1.573-1.266a3.361 3.361 0 01-1.345-1.169 3.013 3.013 0 01-.492-1.696c0-1.078.346-1.934 1.037-2.566.692-.633 1.603-.95 2.734-.95 1.125 0 2.033.317 2.724.95.698.632 1.046 1.488 1.046 2.566zm-1.327 5.968c0-.715-.228-1.298-.685-1.749-.452-.451-1.043-.677-1.776-.677-.732 0-1.321.223-1.766.668-.44.445-.66 1.031-.66 1.758 0 .726.214 1.298.642 1.714.434.416 1.034.624 1.802.624.761 0 1.359-.208 1.793-.624.433-.422.65-.994.65-1.714zm-2.443-8.148c-.639 0-1.158.199-1.556.598-.393.393-.589.929-.589 1.608 0 .651.194 1.178.58 1.582.393.399.914.598 1.565.598.65 0 1.169-.199 1.555-.598.393-.404.589-.931.589-1.582 0-.65-.202-1.18-.606-1.59-.404-.411-.917-.616-1.538-.616zm12.498-1.169v1.38h-.299c-1.266.024-2.274.399-3.024 1.125-.75.727-1.183 1.749-1.3 3.068.674-.774 1.593-1.161 2.759-1.161 1.114 0 2.001.393 2.664 1.178.668.785 1.002 1.799 1.002 3.041 0 1.319-.361 2.373-1.082 3.164-.714.791-1.675 1.187-2.882 1.187-1.225 0-2.218-.469-2.98-1.406-.762-.944-1.142-2.157-1.142-3.639v-.624c0-2.356.501-4.154 1.503-5.397 1.007-1.248 2.504-1.886 4.491-1.916h.29zm-2.136 5.766c-.557 0-1.069.167-1.538.501a2.612 2.612 0 00-.976 1.257v.597c0 1.055.238 1.905.712 2.549.475.645 1.067.967 1.776.967.732 0 1.306-.269 1.722-.809.422-.539.633-1.245.633-2.118 0-.879-.214-1.588-.641-2.127-.422-.545-.985-.817-1.688-.817zm6.609.624l.651-6.381h6.556v1.503h-5.176l-.387 3.489c.627-.369 1.339-.553 2.136-.553 1.166 0 2.091.386 2.777 1.16.686.767 1.028 1.807 1.028 3.12 0 1.318-.357 2.358-1.072 3.12-.709.756-1.702 1.134-2.979 1.134-1.131 0-2.054-.314-2.769-.941-.715-.627-1.122-1.494-1.222-2.601h1.538c.1.732.361 1.286.783 1.661.422.369.978.554 1.67.554.755 0 1.347-.258 1.775-.774.434-.515.65-1.227.65-2.136 0-.855-.234-1.541-.703-2.056-.463-.522-1.081-.782-1.854-.782-.709 0-1.266.155-1.67.465l-.431.352-1.301-.334zm17.385.958c0 1.904-.325 3.319-.975 4.245-.651.926-1.667 1.389-3.05 1.389-1.365 0-2.376-.451-3.032-1.354-.657-.908-.997-2.261-1.02-4.06v-2.171c0-1.881.325-3.279.976-4.193.65-.914 1.67-1.371 3.058-1.371 1.377 0 2.391.443 3.041 1.327.651.879.985 2.239 1.002 4.079v2.109zm-1.626-2.224c0-1.377-.193-2.379-.58-3.006-.387-.632-.999-.949-1.837-.949-.832 0-1.438.314-1.819.941s-.577 1.591-.589 2.891v2.602c0 1.383.199 2.405.598 3.067.404.657 1.013.985 1.828.985.803 0 1.397-.311 1.784-.932.393-.621.598-1.6.615-2.936v-2.663zM426.722 385.759l3.656-10.556h1.846L427.478 388h-1.495l-4.737-12.797h1.837l3.639 10.556zm8.49.861h7.321V388h-9.316v-1.266l7.013-10.142h-6.899v-1.389h8.921v1.239l-7.04 10.178zm13.746-.861l3.656-10.556h1.846L449.714 388h-1.494l-4.738-12.797h1.837l3.639 10.556zm13.034-3.384c-.34.404-.747.729-1.221.976a3.28 3.28 0 01-1.547.369c-.739 0-1.383-.182-1.934-.545-.545-.363-.967-.873-1.266-1.529a5.277 5.277 0 01-.448-2.189c0-.855.161-1.626.484-2.311.328-.686.791-1.21 1.388-1.574.598-.363 1.295-.545 2.092-.545 1.266 0 2.262.475 2.988 1.424.733.944 1.099 2.233 1.099 3.867v.475c0 2.49-.492 4.31-1.477 5.458-.984 1.143-2.469 1.728-4.456 1.758h-.316v-1.371h.343c1.341-.024 2.373-.372 3.093-1.046.721-.68 1.114-1.752 1.178-3.217zm-2.505 0c.545 0 1.046-.167 1.503-.501.463-.334.8-.747 1.011-1.239v-.651c0-1.066-.231-1.933-.694-2.601-.463-.668-1.049-1.002-1.758-1.002-.715 0-1.289.275-1.723.826-.433.545-.65 1.266-.65 2.162 0 .873.208 1.594.624 2.162.422.563.984.844 1.687.844zm13.245 1.327h1.776v1.327h-1.776V388h-1.634v-2.971h-5.827v-.958l5.73-8.868h1.731v8.499zm-5.616 0h3.982v-6.275l-.194.351-3.788 5.924zm9.607-2.118l.65-6.381h6.557v1.503h-5.177l-.387 3.489c.627-.369 1.339-.553 2.136-.553 1.166 0 2.092.386 2.777 1.16.686.767 1.029 1.807 1.029 3.12 0 1.318-.358 2.358-1.073 3.12-.709.756-1.702 1.134-2.979 1.134-1.131 0-2.054-.314-2.769-.941-.715-.627-1.122-1.494-1.221-2.601h1.538c.099.732.36 1.286.782 1.661.422.369.978.554 1.67.554.756 0 1.348-.258 1.775-.774.434-.515.651-1.227.651-2.136 0-.855-.235-1.541-.703-2.056-.463-.522-1.082-.782-1.855-.782-.709 0-1.266.155-1.67.465l-.431.352-1.3-.334zm10.107 0l.65-6.381h6.557v1.503h-5.177l-.386 3.489c.627-.369 1.338-.553 2.135-.553 1.166 0 2.092.386 2.778 1.16.685.767 1.028 1.807 1.028 3.12 0 1.318-.357 2.358-1.072 3.12-.709.756-1.702 1.134-2.98 1.134-1.131 0-2.053-.314-2.768-.941-.715-.627-1.122-1.494-1.222-2.601h1.538c.1.732.36 1.286.782 1.661.422.369.979.554 1.67.554.756 0 1.348-.258 1.776-.774.433-.515.65-1.227.65-2.136 0-.855-.234-1.541-.703-2.056-.463-.522-1.081-.782-1.855-.782-.709 0-1.265.155-1.669.465l-.431.352-1.301-.334zM423.751 425.62h7.321V427h-9.316v-1.266l7.014-10.142h-6.9v-1.389h8.921v1.239l-7.04 10.178zm13.746-.861l3.656-10.556h1.846L438.253 427h-1.494l-4.738-12.797h1.837l3.639 10.556zm9.404-10.556l4.184 10.442 4.184-10.442h2.188V427h-1.687v-4.983l.158-5.379L451.727 427h-1.292l-4.193-10.336.167 5.353V427h-1.687v-12.797h2.179zm19.345 7.172c-.34.404-.747.729-1.222.976a3.273 3.273 0 01-1.546.369c-.739 0-1.383-.182-1.934-.545-.545-.363-.967-.873-1.266-1.529a5.26 5.26 0 01-.448-2.189c0-.855.161-1.626.483-2.311.329-.686.791-1.21 1.389-1.574.598-.363 1.295-.545 2.092-.545 1.266 0 2.262.475 2.988 1.424.733.944 1.099 2.233 1.099 3.867v.475c0 2.49-.492 4.31-1.477 5.458-.984 1.143-2.469 1.728-4.456 1.758h-.316v-1.371h.343c1.341-.024 2.373-.372 3.093-1.046.721-.68 1.114-1.752 1.178-3.217zm-2.505 0c.545 0 1.046-.167 1.503-.501.463-.334.8-.747 1.011-1.239v-.651c0-1.066-.232-1.933-.694-2.601-.463-.668-1.049-1.002-1.758-1.002-.715 0-1.289.275-1.723.826-.434.545-.65 1.266-.65 2.162 0 .873.208 1.594.624 2.162.422.563.984.844 1.687.844zm14.142-3.832c0 .639-.17 1.207-.51 1.705a3.405 3.405 0 01-1.362 1.169c.668.287 1.195.706 1.582 1.257.392.551.589 1.175.589 1.872 0 1.107-.375 1.989-1.125 2.645-.745.657-1.726.985-2.945.985-1.23 0-2.217-.328-2.962-.985-.738-.662-1.107-1.544-1.107-2.645 0-.692.187-1.316.562-1.872.381-.557.906-.979 1.574-1.266a3.348 3.348 0 01-1.345-1.169 3.013 3.013 0 01-.492-1.696c0-1.078.346-1.934 1.037-2.566.691-.633 1.602-.95 2.733-.95 1.125 0 2.034.317 2.725.95.697.632 1.046 1.488 1.046 2.566zm-1.327 5.968c0-.715-.229-1.298-.686-1.749-.451-.451-1.043-.677-1.775-.677-.733 0-1.322.223-1.767.668-.439.445-.659 1.031-.659 1.758 0 .726.214 1.298.642 1.714.433.416 1.034.624 1.801.624.762 0 1.36-.208 1.793-.624.434-.422.651-.994.651-1.714zm-2.444-8.148c-.638 0-1.157.199-1.555.598-.393.393-.589.929-.589 1.608 0 .651.193 1.178.58 1.582.392.399.914.598 1.564.598.651 0 1.169-.199 1.556-.598.393-.404.589-.931.589-1.582 0-.65-.202-1.18-.607-1.59-.404-.411-.917-.616-1.538-.616zm14.142 6.179c0 1.904-.325 3.319-.976 4.245-.65.926-1.667 1.389-3.049 1.389-1.366 0-2.376-.451-3.033-1.354-.656-.908-.996-2.261-1.019-4.06v-2.171c0-1.881.325-3.279.975-4.193.651-.914 1.67-1.371 3.059-1.371 1.377 0 2.391.443 3.041 1.327.65.879.984 2.239 1.002 4.079v2.109zm-1.626-2.224c0-1.377-.193-2.379-.58-3.006-.387-.632-.999-.949-1.837-.949-.832 0-1.439.314-1.819.941-.381.627-.578 1.591-.589 2.891v2.602c0 1.383.199 2.405.597 3.067.405.657 1.014.985 1.829.985.802 0 1.397-.311 1.784-.932.392-.621.597-1.6.615-2.936v-2.663zM498.722 427h-8.385v-1.169l4.43-4.922c.656-.744 1.107-1.347 1.353-1.81a3.03 3.03 0 00.378-1.451c0-.668-.202-1.215-.606-1.643-.405-.428-.944-.642-1.618-.642-.808 0-1.438.232-1.889.695-.446.457-.668 1.095-.668 1.916h-1.626c0-1.178.378-2.13 1.134-2.857.761-.726 1.778-1.09 3.049-1.09 1.19 0 2.13.314 2.822.941.691.621 1.037 1.45 1.037 2.487 0 1.26-.803 2.76-2.408 4.5l-3.428 3.718h6.425V427zM423.751 464.62h7.321V466h-9.316v-1.266l7.014-10.142h-6.9v-1.389h8.921v1.239l-7.04 10.178zm16.699-1.96h-5.361l-1.204 3.34h-1.74l4.886-12.797h1.477L443.403 466h-1.731l-1.222-3.34zm-4.851-1.389h4.35l-2.179-5.985-2.171 5.985zM454.961 466h-1.696l-6.443-9.861V466h-1.696v-12.797h1.696l6.46 9.905v-9.905h1.679V466zm10.6-5.458c0 1.904-.326 3.319-.976 4.245-.65.926-1.667 1.389-3.05 1.389-1.365 0-2.376-.451-3.032-1.354-.656-.908-.996-2.261-1.02-4.06v-2.171c0-1.881.326-3.279.976-4.193.65-.914 1.67-1.371 3.059-1.371 1.377 0 2.39.443 3.041 1.327.65.879.984 2.239 1.002 4.079v2.109zm-1.626-2.224c0-1.377-.194-2.379-.581-3.006-.386-.632-.999-.949-1.836-.949-.832 0-1.439.314-1.82.941s-.577 1.591-.589 2.891v2.602c0 1.383.2 2.405.598 3.067.404.657 1.014.985 1.828.985.803 0 1.398-.311 1.784-.932.393-.621.598-1.6.616-2.936v-2.663zm11.469-1.775c0 .639-.17 1.207-.509 1.705a3.408 3.408 0 01-1.363 1.169c.668.287 1.196.706 1.582 1.257.393.551.589 1.175.589 1.872 0 1.107-.375 1.989-1.125 2.645-.744.657-1.725.985-2.944.985-1.231 0-2.218-.328-2.962-.985-.738-.662-1.108-1.544-1.108-2.645 0-.692.188-1.316.563-1.872.381-.557.905-.979 1.573-1.266a3.361 3.361 0 01-1.345-1.169 3.013 3.013 0 01-.492-1.696c0-1.078.346-1.934 1.037-2.566.692-.633 1.603-.95 2.734-.95 1.125 0 2.033.317 2.724.95.698.632 1.046 1.488 1.046 2.566zm-1.327 5.968c0-.715-.228-1.298-.685-1.749-.452-.451-1.043-.677-1.776-.677-.732 0-1.321.223-1.766.668-.44.445-.66 1.031-.66 1.758 0 .726.214 1.298.642 1.714.434.416 1.034.624 1.802.624.762 0 1.359-.208 1.793-.624.433-.422.65-.994.65-1.714zm-2.443-8.148c-.639 0-1.157.199-1.556.598-.392.393-.589.929-.589 1.608 0 .651.194 1.178.58 1.582.393.399.914.598 1.565.598.65 0 1.169-.199 1.555-.598.393-.404.589-.931.589-1.582 0-.65-.202-1.18-.606-1.59-.404-.411-.917-.616-1.538-.616zm6.864 5.221l.65-6.381h6.557v1.503h-5.177l-.386 3.489c.627-.369 1.338-.553 2.135-.553 1.166 0 2.092.386 2.778 1.16.685.767 1.028 1.807 1.028 3.12 0 1.318-.357 2.358-1.072 3.12-.709.756-1.702 1.134-2.98 1.134-1.131 0-2.053-.314-2.768-.941-.715-.627-1.122-1.494-1.222-2.601h1.538c.1.732.36 1.286.782 1.661.422.369.979.554 1.67.554.756 0 1.348-.258 1.776-.774.433-.515.65-1.227.65-2.136 0-.855-.234-1.541-.703-2.056-.463-.522-1.081-.782-1.855-.782-.709 0-1.265.155-1.67.465l-.43.352-1.301-.334zM493.202 466h-1.635v-10.837l-3.278 1.204v-1.476l4.658-1.749h.255V466zM576.779 264.882h5.599V267h-8.235v-12.797h2.636v10.679zm9.923 2.118h-2.637v-12.797h2.637V267zm12.498-4.263c-.099 1.377-.609 2.461-1.529 3.252-.914.791-2.121 1.187-3.621 1.187-1.641 0-2.933-.551-3.876-1.653-.938-1.107-1.406-2.625-1.406-4.552v-.783c0-1.23.216-2.314.65-3.251.434-.938 1.052-1.656 1.854-2.154.809-.504 1.747-.756 2.813-.756 1.477 0 2.666.396 3.568 1.187.903.791 1.424 1.901 1.565 3.331h-2.637c-.064-.826-.296-1.424-.694-1.793-.393-.375-.993-.563-1.802-.563-.879 0-1.538.317-1.978.95-.433.627-.656 1.602-.668 2.926v.967c0 1.383.208 2.394.624 3.032.422.639 1.084.958 1.987.958.814 0 1.421-.184 1.819-.553.404-.375.636-.952.694-1.732h2.637zm9.431-1.283h-5.063v3.428h5.942V267h-8.578v-12.797h8.56v2.136h-5.924v3.05h5.063v2.065zM621.463 267h-2.637l-5.133-8.42V267h-2.636v-12.797h2.636l5.142 8.438v-8.438h2.628V267zm12.349-4.263c-.1 1.377-.61 2.461-1.53 3.252-.914.791-2.121 1.187-3.621 1.187-1.64 0-2.932-.551-3.876-1.653-.937-1.107-1.406-2.625-1.406-4.552v-.783c0-1.23.217-2.314.65-3.251.434-.938 1.052-1.656 1.855-2.154.808-.504 1.746-.756 2.812-.756 1.477 0 2.666.396 3.569 1.187.902.791 1.423 1.901 1.564 3.331h-2.637c-.064-.826-.296-1.424-.694-1.793-.393-.375-.993-.563-1.802-.563-.879 0-1.538.317-1.977.95-.434.627-.657 1.602-.668 2.926v.967c0 1.383.208 2.394.624 3.032.422.639 1.084.958 1.986.958.815 0 1.421-.184 1.819-.553.405-.375.636-.952.695-1.732h2.637zm9.43-1.283h-5.062v3.428h5.941V267h-8.578v-12.797h8.561v2.136h-5.924v3.05h5.062v2.065zM697.15 261.867l-1.371 1.477V267h-2.636v-12.797h2.636v5.801l1.16-1.591 3.261-4.21h3.243l-4.544 5.687 4.676 7.11h-3.137l-3.288-5.133zm10.055 3.015h5.599V267h-8.236v-12.797h2.637v10.679zm16.594-10.679v8.429c0 1.4-.44 2.508-1.319 3.322-.873.815-2.068 1.222-3.585 1.222-1.495 0-2.681-.396-3.56-1.187s-1.327-1.878-1.345-3.26v-8.526h2.637v8.446c0 .838.199 1.451.598 1.837.404.381.961.572 1.67.572 1.482 0 2.235-.78 2.258-2.338v-8.517h2.646zM725.961 267v-12.797h4.482c1.553 0 2.731.299 3.534.897.802.591 1.204 1.462 1.204 2.61 0 .627-.161 1.181-.484 1.661-.322.475-.77.823-1.344 1.046.656.164 1.171.495 1.546.993.381.498.572 1.108.572 1.828 0 1.231-.393 2.162-1.178 2.795-.785.633-1.904.955-3.357.967h-4.975zm2.637-5.572v3.454h2.258c.622 0 1.105-.147 1.451-.44.351-.298.527-.709.527-1.23 0-1.172-.606-1.767-1.819-1.784h-2.417zm0-1.864h1.951c1.33-.023 1.995-.553 1.995-1.59 0-.58-.17-.996-.51-1.248-.334-.258-.864-.387-1.591-.387h-1.845v3.225zM989.188 262.737c-.099 1.377-.609 2.461-1.529 3.252-.914.791-2.121 1.187-3.621 1.187-1.641 0-2.933-.551-3.876-1.653-.937-1.107-1.406-2.625-1.406-4.552v-.783c0-1.23.217-2.314.65-3.251.434-.938 1.052-1.656 1.855-2.154.808-.504 1.746-.756 2.812-.756 1.477 0 2.666.396 3.569 1.187.902.791 1.423 1.901 1.564 3.331h-2.637c-.064-.826-.296-1.424-.694-1.793-.393-.375-.993-.563-1.802-.563-.879 0-1.538.317-1.977.95-.434.627-.657 1.602-.668 2.926v.967c0 1.383.208 2.394.624 3.032.422.639 1.084.958 1.986.958.815 0 1.421-.184 1.819-.553.405-.375.636-.952.695-1.732h2.636zm-5.141-10.784l1.283-1.257h2.171v.097l-2.654 2.47h-1.609l-2.654-2.488v-.079h2.171l1.292 1.257zm14.098 12.41h-4.624l-.878 2.637h-2.804l4.764-12.797h2.443L1001.84 267h-2.808l-.887-2.637zm-3.912-2.135h3.2l-1.609-4.79-1.591 4.79zm15.437 1.415c0-.498-.18-.879-.53-1.143-.35-.27-.98-.551-1.9-.844-.91-.299-1.64-.592-2.17-.879-1.45-.785-2.18-1.842-2.18-3.173 0-.691.19-1.306.58-1.845.39-.545.95-.97 1.68-1.275.73-.304 1.55-.457 2.46-.457.91 0 1.73.167 2.44.501.72.328 1.27.794 1.66 1.398.4.603.6 1.289.6 2.056h-2.63c0-.586-.19-1.04-.56-1.362-.37-.328-.89-.492-1.55-.492-.65 0-1.15.138-1.51.413-.35.27-.53.627-.53 1.072 0 .416.21.765.62 1.046.42.281 1.04.545 1.86.791 1.5.451 2.59 1.011 3.27 1.679.69.668 1.03 1.5 1.03 2.496 0 1.107-.42 1.978-1.25 2.61-.84.627-1.97.941-3.39.941-.98 0-1.88-.179-2.69-.536-.81-.364-1.42-.859-1.85-1.486-.42-.627-.63-1.353-.63-2.179h2.64c0 1.412.84 2.118 2.53 2.118.63 0 1.12-.126 1.47-.378.35-.258.53-.615.53-1.072zM1086.94 264.882h6.45V267h-9.75v-1.547l6.33-9.114h-6.32v-2.136h9.6v1.512l-6.31 9.167zm17.75-8.543h-3.92V267h-2.64v-10.661h-3.86v-2.136h10.42v2.136zm6.25 5.976h-2.1V267h-2.64v-12.797h4.76c1.51 0 2.68.337 3.5 1.011.82.674 1.23 1.626 1.23 2.856 0 .873-.19 1.603-.57 2.189-.38.58-.95 1.043-1.72 1.388l2.77 5.23V267h-2.83l-2.4-4.685zm-2.1-2.135h2.13c.66 0 1.17-.167 1.53-.501.37-.34.55-.806.55-1.398 0-.603-.17-1.078-.52-1.424-.34-.345-.86-.518-1.57-.518h-2.12v3.841zm16.08 4.183h-4.62l-.88 2.637h-2.8l4.76-12.797h2.45l4.79 12.797h-2.81l-.89-2.637zm-3.91-2.135h3.2l-1.61-4.79-1.59 4.79zm2.14-11.453h2.77l-2.44 2.725h-2.06l1.73-2.725zm15.24 5.564h-3.92V267h-2.64v-10.661h-3.87v-2.136h10.43v2.136zm7.68 8.024h-4.62l-.88 2.637h-2.81l4.77-12.797h2.44l4.79 12.797h-2.8l-.89-2.637zm-3.91-2.135h3.2l-1.61-4.79-1.59 4.79z" fill="#fff"/>
  <path d="M20.698 209v-27.84h7.44c1.786 0 3.266.213 4.44.64 1.2.427 2.12 1.16 2.76 2.2.64 1.013 1 2.44 1.08 4.28.026.667.04 1.24.04 1.72.026.48.026.973 0 1.48 0 .507-.014 1.133-.04 1.88-.08 1.84-.44 3.28-1.08 4.32-.64 1.04-1.56 1.773-2.76 2.2-1.2.4-2.68.6-4.44.6h-1.76V209h-5.68zm5.68-13.52h1.76c1.653 0 2.52-.613 2.6-1.84.08-.987.106-1.987.08-3 0-1.013-.027-1.907-.08-2.68-.027-.56-.254-1-.68-1.32-.427-.347-1.067-.52-1.92-.52h-1.76v9.36zm21.074 13.88c-2.826 0-4.866-.56-6.12-1.68-1.253-1.147-1.92-3.04-2-5.68-.026-1.413-.053-2.933-.08-4.56v-4.88c.027-1.627.054-3.107.08-4.44.08-2.613.747-4.48 2-5.6 1.254-1.147 3.294-1.72 6.12-1.72 2.854 0 4.894.573 6.12 1.72 1.227 1.12 1.894 3 2 5.64.054 1.333.08 2.8.08 4.4.027 1.6.027 3.213 0 4.84 0 1.627-.026 3.147-.08 4.56-.106 2.667-.773 4.573-2 5.72-1.226 1.12-3.266 1.68-6.12 1.68zm0-4.6c1.574 0 2.387-.573 2.44-1.72.134-2.64.187-5.32.16-8.04 0-2.747-.053-5.387-.16-7.92-.053-1.12-.866-1.68-2.44-1.68-1.573 0-2.386.547-2.44 1.64-.24 5.253-.24 10.6 0 16.04.054 1.12.867 1.68 2.44 1.68zM67.29 209v-4.72l8.72-18.16h-8.24v-4.96h14.4V186l-9.08 18.04h8.44V209H67.29zm17.265 0l4.36-27.84h8.96l4.36 27.84h-5.84l-.64-5.48h-4.72l-.64 5.48h-5.84zm7.04-10.44h3.56l-.72-6.16-.52-6.28h-1.08l-.52 6.28-.72 6.16zm.6-19.44V179l4.44-3.48h3.4v.12l-4.8 3.48h-3.04zM109.154 209l-4.52-27.84h5.88l2.32 13.72.4 9.16h1.08l.4-9.16 2.32-13.72h5.88l-4.56 27.84h-9.2zm24.744.36c-2.827 0-4.867-.56-6.12-1.68-1.254-1.147-1.92-3.04-2-5.68-.027-1.413-.054-2.933-.08-4.56v-4.88c.026-1.627.053-3.107.08-4.44.08-2.613.746-4.48 2-5.6 1.253-1.147 3.293-1.72 6.12-1.72 2.853 0 4.893.573 6.12 1.72 1.226 1.12 1.893 3 2 5.64.053 1.333.08 2.8.08 4.4.026 1.6.026 3.213 0 4.84 0 1.627-.027 3.147-.08 4.56-.107 2.667-.774 4.573-2 5.72-1.227 1.12-3.267 1.68-6.12 1.68zm0-4.6c1.573 0 2.386-.573 2.44-1.72.133-2.64.186-5.32.16-8.04 0-2.747-.054-5.387-.16-7.92-.054-1.12-.867-1.68-2.44-1.68-1.574 0-2.387.547-2.44 1.64-.24 5.253-.24 10.6 0 16.04.053 1.12.866 1.68 2.44 1.68zm27.568-16.08c.053 2.027.08 4.16.08 6.4 0 2.213-.027 4.333-.08 6.36-.053 2.693-.733 4.627-2.04 5.8s-3.387 1.76-6.24 1.76h-7.84v-27.84h7.84c2.853 0 4.933.587 6.24 1.76 1.307 1.147 1.987 3.067 2.04 5.76zm-5.68 13.44c.053-1.467.08-3.04.08-4.72.027-1.68.027-3.333 0-4.96 0-1.653-.027-3.133-.08-4.44-.027-.587-.253-1.04-.68-1.36-.427-.347-1.067-.52-1.92-.52h-2.16v17.92h2.16c1.68 0 2.547-.64 2.6-1.92zm8.935 6.88v-27.84h13.36v4.96h-7.68v6.2h7.28v4.96h-7.28v6.76h7.68V209h-13.36zm.48-33.52h3.84l2.36 2.28 2.36-2.28h3.84l-4.48 3.96h-3.44l-4.48-3.96z" fill="#2C2D84"/>
  <path d="M210.68 209.14c-.907 0-1.56-.2-1.96-.6-.4-.413-.607-1.087-.62-2.02a391.26 391.26 0 010-11.02c.027-.907.253-1.567.68-1.98.427-.427 1.053-.64 1.88-.64 1.707 0 2.587.873 2.64 2.62v.82c.013.333.013.673 0 1.02v.84h-1.32c.04-.907.04-1.867 0-2.88-.013-.44-.12-.767-.32-.98-.2-.213-.527-.32-.98-.32-.813 0-1.233.433-1.26 1.3-.04 1.56-.06 3.207-.06 4.94h.34c.12-.24.333-.44.64-.6.307-.16.647-.24 1.02-.24.733 0 1.247.193 1.54.58.307.373.473.993.5 1.86.013.84.02 1.633.02 2.38 0 .733-.013 1.5-.04 2.3-.04.933-.267 1.607-.68 2.02-.413.4-1.087.6-2.02.6zm0-1.12c.893 0 1.353-.433 1.38-1.3a149.09 149.09 0 000-4.86c-.013-.867-.413-1.3-1.2-1.3-.427 0-.78.107-1.06.32-.267.213-.413.527-.44.94.013.747.02 1.527.02 2.34l.04 2.56c.027.867.447 1.3 1.26 1.3zm4.72.98v-1.78h2.26V209h-2.26zm4.542 0l3.32-14.8h-4.02V193h5.36v1.16l-3.28 14.84h-1.38zm8.961.14c-.893 0-1.547-.2-1.96-.6-.4-.413-.62-1.093-.66-2.04-.027-.547-.04-1.1-.04-1.66.013-.573.033-1.227.06-1.96.027-.56.133-1 .32-1.32.2-.32.493-.553.88-.7v-.3a1.833 1.833 0 01-.78-.6c-.187-.28-.307-.66-.36-1.14-.027-.6-.047-1.173-.06-1.72-.013-.56-.007-1.093.02-1.6.04-.947.26-1.62.66-2.02.4-.413 1.04-.62 1.92-.62.88 0 1.52.207 1.92.62.4.4.62 1.073.66 2.02.027.507.033 1.04.02 1.6-.013.547-.033 1.12-.06 1.72-.053.48-.18.86-.38 1.14a1.58 1.58 0 01-.76.58v.3c.36.173.64.42.84.74.2.32.32.753.36 1.3.027.733.04 1.387.04 1.96.013.56.007 1.113-.02 1.66-.04.947-.267 1.627-.68 2.04-.4.4-1.047.6-1.94.6zm0-9.06c.853 0 1.287-.48 1.3-1.44v-1.7c.013-.52.013-1.047 0-1.58-.013-.48-.12-.827-.32-1.04-.2-.213-.527-.32-.98-.32-.44 0-.767.107-.98.32-.2.213-.307.56-.32 1.04a64.846 64.846 0 000 3.28c.013.507.12.873.32 1.1.213.227.54.34.98.34zm0 7.92c.453 0 .78-.107.98-.32.2-.213.307-.56.32-1.04.013-.587.02-1.18.02-1.78 0-.613-.007-1.307-.02-2.08-.013-.507-.127-.873-.34-1.1-.2-.227-.52-.34-.96-.34-.44 0-.767.113-.98.34-.2.227-.307.593-.32 1.1-.013.773-.02 1.467-.02 2.08 0 .6.007 1.193.02 1.78.013.48.12.827.32 1.04.213.213.54.32.98.32zm8.903 1v-13.92h1.34l-.02 3.38-.18 3.44h.32l1.18-3.44 1.22-3.38h1.38l-2.34 6.2 2.6 7.72h-1.32l-2.12-6.3-.78 1.9v4.4h-1.28zm7.168 0v-13.92h2.5l.84 5.66.78 7.08h.34l.76-7.08.86-5.66h2.46V209h-1.26v-4.12l.18-8.66h-.42l-1.1 8.78-.68 3.96h-1.92l-.68-3.96-1.18-8.78h-.4l.18 8.66V209h-1.26zm10.524 0v-1.82h2.26v1.66l-.96 2.2h-.86l.76-2.04h-1.2zm9.682 0l-1.76-13.92h1.34l.94 7.7.42 5.1h.36l.4-5.1.96-7.7h1.34L267.4 209h-2.22zm8.273.12c-.893 0-1.54-.18-1.94-.54-.386-.373-.6-.987-.64-1.84a52.66 52.66 0 01-.02-1.38c0-.427.02-.893.06-1.4h1.2a28.472 28.472 0 000 2.98c.027.387.14.673.34.86.2.173.534.26 1 .26.454 0 .774-.087.96-.26.2-.187.314-.48.34-.88.027-.427.034-.833.02-1.22 0-.387-.006-.82-.02-1.3-.026-.427-.1-.78-.22-1.06-.12-.293-.373-.487-.76-.58l-1.04-.22c-.76-.173-1.26-.48-1.5-.92-.226-.44-.353-1.06-.38-1.86-.013-.347-.02-.74-.02-1.18l.04-1.26c.014-.84.214-1.44.6-1.8.387-.373 1.047-.56 1.98-.56.84 0 1.46.18 1.86.54.4.36.614.967.64 1.82.014.253.014.647 0 1.18 0 .52-.006 1-.02 1.44h-1.22c.04-.973.04-1.907 0-2.8-.013-.387-.12-.667-.32-.84-.2-.187-.52-.28-.96-.28-.453 0-.78.093-.98.28-.186.173-.293.453-.32.84-.026.4-.04.827-.04 1.28 0 .453.014.9.04 1.34.014.493.08.867.2 1.12.134.253.4.427.8.52l.98.2c.76.173 1.26.487 1.5.94.24.453.38 1.073.42 1.86.014.493.014.893 0 1.2 0 .307-.006.687-.02 1.14-.04.867-.26 1.48-.66 1.84-.4.36-1.033.54-1.9.54zm-2.04-16.12h1.02l.96.9.96-.9h1.02l-1.5 1.34h-.96l-1.5-1.34zm6.745 16v-13.92h4.42v1.12h-3.16v5.22h2.96v1.12h-2.96v5.34h3.16V209h-4.42zm8.927.12c-.906 0-1.553-.18-1.94-.54-.386-.373-.586-.98-.6-1.82-.026-1.653-.04-3.227-.04-4.72 0-1.493.014-3.067.04-4.72.014-.773.214-1.36.6-1.76.4-.4 1.04-.6 1.92-.6.894 0 1.534.187 1.92.56.4.36.614.953.64 1.78.014.253.02.547.02.88v.96c0 .32-.006.587-.02.8h-1.26c.014-.427.02-.853.02-1.28 0-.44-.006-.947-.02-1.52 0-.4-.106-.687-.32-.86-.2-.173-.526-.26-.98-.26-.44 0-.76.087-.96.26-.186.173-.28.46-.28.86-.053 1.733-.08 3.38-.08 4.94 0 1.56.027 3.187.08 4.88 0 .4.1.687.3.86.2.16.52.24.96.24.467 0 .807-.08 1.02-.24.227-.173.34-.46.34-.86.014-.507.014-1.02 0-1.54v-1.46h1.26c.014.467.02.933.02 1.4.014.467.014.933 0 1.4-.026.84-.246 1.447-.66 1.82-.413.36-1.073.54-1.98.54zm4.432-.12v-13.92h1.26v6.34h2.58v-6.34h1.26V209h-1.26v-6.46h-2.58V209h-1.26zm7.227 0v-13.92h2.32l.82 4.4 1.5 8.38h.42l-.18-7.82-.08-4.96h1.24V209h-2.34l-.94-4.96-1.36-7.84h-.42l.18 7.52.08 5.28h-1.24zm9.727 0v-3.64l-.12-.54-2.04-9.74h1.32l.7 3.9.6 3.98h.36l.6-3.98.7-3.9h1.3l-2.04 9.76-.1.52V209h-1.28zm9.218 0v-13.92h1.34l-.02 3.38-.18 3.44h.32l1.18-3.44 1.22-3.38h1.38l-2.34 6.2 2.6 7.72h-1.32l-2.12-6.3-.78 1.9v4.4h-1.28zm9.788.12c-.907 0-1.56-.18-1.96-.54-.387-.36-.587-.96-.6-1.8-.027-.933-.047-1.787-.06-2.56v-2.24-2.2a190 190 0 01.06-2.48c.013-.84.213-1.44.6-1.8.4-.36 1.053-.54 1.96-.54.92 0 1.573.18 1.96.54.4.36.607.96.62 1.8.013.893.02 1.72.02 2.48a126.498 126.498 0 010 4.44c0 .773-.007 1.62-.02 2.54-.013.84-.22 1.447-.62 1.82-.387.36-1.04.54-1.96.54zm0-1.06c.467 0 .8-.08 1-.24.2-.173.307-.453.32-.84.027-.987.04-1.88.04-2.68a139.364 139.364 0 000-4.6c0-.787-.013-1.647-.04-2.58-.013-.4-.12-.68-.32-.84-.2-.173-.533-.26-1-.26-.44 0-.767.087-.98.26-.2.16-.307.433-.32.82-.027.947-.047 1.813-.06 2.6a139.364 139.364 0 000 4.6c.013.8.033 1.693.06 2.68.013.387.12.667.32.84.213.16.54.24.98.24zm4.743.94v-13.92h2.32l.82 4.4 1.5 8.38h.42l-.18-7.82-.08-4.96h1.24V209h-2.34l-.94-4.96-1.36-7.84h-.42l.18 7.52.08 5.28h-1.24zm9.724 0v-12.8h-2.02v-1.12h5.3v1.12h-2.02V209h-1.26zm4.944 0v-13.92h2.38c.24 0 .5.013.78.04.28.027.547.113.8.26.267.133.487.36.66.68.187.32.3.773.34 1.36.013.187.02.447.02.78a32.72 32.72 0 010 2.24c0 .373-.007.693-.02.96-.04.68-.187 1.18-.44 1.5-.24.307-.52.513-.84.62l1.6 5.48h-1.36l-1.44-5.26h-1.22V209h-1.26zm1.26-6.4h1.1c.333 0 .627-.06.88-.18.253-.133.407-.453.46-.96.013-.24.02-.547.02-.92a33.928 33.928 0 000-2.36c0-.36-.007-.633-.02-.82-.04-.507-.187-.827-.44-.96a1.866 1.866 0 00-.88-.2h-1.12v6.4zm8.294 6.52c-.907 0-1.56-.18-1.96-.54-.387-.36-.587-.96-.6-1.8-.027-.933-.047-1.787-.06-2.56v-2.24-2.2a190 190 0 01.06-2.48c.013-.84.213-1.44.6-1.8.4-.36 1.053-.54 1.96-.54.92 0 1.573.18 1.96.54.4.36.606.96.62 1.8.013.893.02 1.72.02 2.48a126.498 126.498 0 010 4.44c0 .773-.007 1.62-.02 2.54-.014.84-.22 1.447-.62 1.82-.387.36-1.04.54-1.96.54zm0-1.06c.466 0 .8-.08 1-.24.2-.173.306-.453.32-.84.026-.987.04-1.88.04-2.68a139.364 139.364 0 000-4.6c0-.787-.014-1.647-.04-2.58-.014-.4-.12-.68-.32-.84-.2-.173-.534-.26-1-.26-.44 0-.767.087-.98.26-.2.16-.307.433-.32.82-.027.947-.047 1.813-.06 2.6a129.156 129.156 0 000 4.6c.013.8.033 1.693.06 2.68.013.387.12.667.32.84.213.16.54.24.98.24zm4.743.94v-13.92h1.26v12.8h3.18V209h-4.44zm7.071 0v-3.64l-.12-.54-2.04-9.74h1.32l.7 3.9.6 3.98h.36l.6-3.98.7-3.9h1.3l-2.04 9.76-.1.52V209h-1.28z" fill="#283388"/>
</svg>
