<svg width="197" height="204" fill="none" xmlns="http://www.w3.org/2000/svg">
  <path d="M96.392 142.984c-1.88.157-17.728 1.967-19.655 2.152-3.011.289-6.022.577-9.062.82-2.317.174-4.651.422-7.026.504-2.69.087-5.38.686-8.053.699-3.648-.015-6.93-1.281-8.034-5.697-.42-1.589-.45-3.166-.525-4.715-.158-4.434-.706-8.879-1.105-13.289-.237-2.725-.353-5.461-.71-8.174-.306-2.426-.383-4.996-.55-7.508-.175-3.338-.378-6.722-.84-10.009-.322-2.351-1.264-4.57-2.631-6.652a1322.942 1322.942 0 01-10.996-17.568c-.23-.367-.804-.774-.098-1.28.23.368.505.706.734 1.073l17.543 28.027c.574.917 1.228 1.146 2.157.692.614.063 1.245.051 1.858.114.425.373.867.671 1.291 1.043.625-.838.407-1.595-.11-2.42C44.246 90.779 38.033 80.75 31.7 70.733c-.488-.78-.477-1.17.331-1.612.855-.47 1.812-.879 2.437-1.716.12-.012.287-.052.361-.035.913 1.152 1.463.297 2.082-.346 2.97-3.007 5.703-6.187 8.54-9.303 1.628-1.785 3.36-3.507 4.987-5.292 2.728-2.984 5.428-6.014 8.184-8.953 1.72-1.842 3.497-3.593 5.142-5.452 1.754-1.992 3.582-3.966 4.366-6.691.286-1.073.738-2.186 1.53-3.064l.67.154c-.423 1.16-.79 2.41-1.288 3.552-.372.935-.463 2.013-1.265 2.77-.522.391-.808.954-1.124 1.47-.406.574.076 1.038.334 1.451a1140733.561 1140733.561 0 0033.592 53.669c.402.642.465 1.049.144 1.76-1.294 2.726-2.382 5.577-2.948 8.549-.651 3.345-1.062 6.666-.905 10.079.348 6.166 1.924 11.947 4.968 17.32 1.2 2.121 2.71 3.921 4.047 5.957 1.08 1.622 2.543 2.941 3.915 4.317.161.154.408.447.7.2.247-.218.12-.522-.023-.751-.144-.23-.379-.402-.586-.528-.562-.286-.97-.733-.918-1.468.344.04.608.258.855.55 1.762 1.898 3.805 3.428 5.928 4.781 4.069 2.624 8.521 4.434 13.288 5.217 2.226.394 4.44.668 6.723.644 2.237.004 4.405-.204 6.59-.486 2.546-.317 4.932-1.299 7.409-1.829.66.545 1.286.728 2.025.074.338-.276.785-.683 1.072-.735 1.927-.185 3.504-1.236 5.063-2.212.78-.488 1.388-1.251 2.225-1.647.23.367.023.751-.252.923-2.259 1.797-2.744 4.591-3.7 7.041-1.168 3.029-1.637 6.259-2.105 9.488-.04.345.219 1.268-.808.953l-6.575-10.504c-.172-.275-.373-.597-.591-.843-.161-.155-.373-.086-.556.029-.138.086-.144.281-.057.419l.43.688c2.182 3.486 4.29 6.955 6.472 10.441-.66.477-1.342.202-1.933-.131-.385-.206-.781-.533-1.159-.423-1.434.259-2.691-.423-3.941-.789-.849-.235-1.917-.716-2.656-.572-.861.155-1.05-.046-1.257-.682.315-.006.654.229.952-.213.298-.442-.024-.751-.224-1.073l-3.101-4.954c-.172-.275-.477-.659-.454-.929.229-1.164-.746-.682-1.188-.98-.281-.143-.688-.08-.608.253.15.545-.504 1.337.374 1.617.476.149.66.545.89.912l3.101 4.954c-1.239.265-2.094-.286-2.909-1.18-.683-.785-1.836-.894-2.938-.715-1.101.178-2.139.254-2.719-.979-.057-.092-.235-.172-.281-.143-.992.557-1.733-.321-2.587-.36-1.423-.131-2.771-.245-4.114-1.065-.826-.504-2.025-1.094-3.246-.393-.367.229-.643-.109-.844-.43-.115-.184-.086-.648-.344-.551-1.124.449-2.02-.778-3.155-.451-.499.121-1.314.248-1.269-.802.017-.585-.361-.476-.7-.2-.659.476-1.359.276-1.491-.344-1.801-.532-1.4-.911-2.209-.979-.344-.04-.74.144-1.078-.091a12.02 12.02 0 00-3.053-1.409c-.252-.098-.046-.482-.362-.476-.464-.029-.006-.316-.728-.246-.356.35-.975-.028-1.022-.51l-9.764-2.444zM49.842 96.66c1.2 1.611 2.406 2.517 4.093 2.866 2.46.566 4.852-.1 7.232-.377 2.742-.312 5.472-.744 8.259-1.084 2.667-.329 5.328-.462 7.926-1.003 1.813-.368 3.757-.117 5.552-.921 1.233-.58 2.115-1.516 3.262-2.234l10.412-6.516c.459-.287.917-.575.544-1.17-.373-.597-.832-.31-1.29-.023l-5.367 3.359c-.78.488-1.583.735-2.517.873-2.891.277-5.81.509-8.632.998-3.969.697-7.984.911-11.935 1.533-3.499.53-7.05.773-10.565 1.378-.906.184-1.84.322-2.759-.125-.252-.097-.608-.258-.843.081-.19.31-.017.585.155.86l.316.505c.5.9.185 1.417-.853 1.492-.964.092-1.825-.263-2.99-.492zm16.769-30.732c1.043-.27.957-.919.67-1.377-.862-1.377-2.044-2.552-3.541-3.21-1.245-.562-2.605-.796-4.016-.807-1.486-.027-2.632.69-3.882 1.345s-1.49 2.21-2.637 2.927c-.091.057-.04.344.03.556.068.213.137.425-.035.66-.785 1.194-.755 2.26-.026 3.528.086.137.052.287-.057.419-.43.333-.108.642 0 1.02.783 2.575 2.883 3.687 5.074 4.741.563.286 1.067-.03 1.555.24 1.21.71 2.374-.592 3.579-.197.075.017.275-.172.367-.23 1.307-.563 1.783-1.946 2.797-2.772 1.645-1.35 1.352-3.144 1.46-4.808.016-.585.142-1.813-1.338-2.035zm11.602 5.89c-1.436-2.294-4.115-3.107-6.001-1.735-.522.39-1.141 1.033-1.617 1.395-1.273.924-1.02 2.042-1.128 3.195-.09 1.079.759 1.824 1.138 2.736.482.975 1.933.13 2.26 1.266.677-.551 1.332.189 1.997.028 1.101-.179 1.904-.937 2.792-1.557.705-.505.406-1.594 1.232-2.111.138-.086-.063-.407-.224-.562-.16-.155-.322-.31-.167-.47.808-.953-.03-1.578-.282-2.186zM36.907 68.75c.556-.029.969-.287 1.278-.609.636-.717 1.273-1.435 1.938-2.106 3.347-3.627 6.62-7.272 9.967-10.899 2.155-2.37 4.413-4.678 6.568-7.048 2.992-3.277 5.984-6.554 8.947-9.877.31-.322 1.307-.563.843-1.102-.276-.338-.9.5-1.256.85-2.528 2.795-5.17 5.406-7.594 8.264-1.943 2.302-4.104 4.357-6.03 6.583-3.525 4.058-7.296 7.823-10.907 11.743-1.313 1.268-2.35 2.875-3.754 4.201z" fill="#EBEBEB" fill-opacity=".8"/>
  <path d="M109.185 136.701c-.051.734.328 1.135.919 1.468.281.143.441.298.585.527.144.229.27.533.024.752-.293.246-.54-.046-.7-.201-1.372-1.376-2.836-2.694-3.915-4.317-1.309-1.989-2.848-3.835-4.048-5.957-3.044-5.373-4.62-11.154-4.968-17.32-.203-3.384.225-6.78.905-10.078.566-2.972 1.654-5.824 2.949-8.549.32-.711.257-1.119-.145-1.76L74.348 49.017 67.2 37.597c-.287-.46-.74-.878-.333-1.451.195.005.361-.035.51 0 .012.12-.005.194.006.315-.843.591-.045 1.05.185 1.416 6.96 11.222 13.982 22.34 20.987 33.532l12.174 19.449c.201.321.258.923.906.837-.029-.556-.379-.912-.608-1.279l-32.472-51.88c-.345-.55-.643-1.13-.97-1.754.384.206.539.556.74.877l19.494 31.146c3.36 5.367 6.747 10.78 10.152 16.118l.747 1.192c.89 1.422 1.751 2.799 2.595 4.25.374.596.58.722 1.004.073.865-1.371 1.834-2.68 2.699-4.051.315-.516 1.043-.78.899-1.52a.867.867 0 00.717-.385c.872-.546 1.169-1.498 1.926-2.227 4.586-4.403 9.889-7.658 15.95-9.6 5.379-1.708 10.92-2.239 16.559-1.49 3.396.427 6.735 1.274 9.879 2.626l3.339 1.357c.017-.074.109-.132.126-.206l-6.718-10.734c.034-.15.114-.327.149-.476 2.124 3.394 4.34 6.731 6.39 10.109.845 1.45 1.924 2.562 3.341 3.399 1.004.584 1.991 1.243 2.898 2.08.264.218.528.436.952.298.592.843 1.321 1.6 2.05 2.356.918.957 2.066 1.771 2.646 3.004-.367.23-.574.104-.774-.217-.707-1.027-1.614-1.864-2.52-2.7-4.299-4.013-9.228-6.993-14.839-8.716-5.387-1.671-10.957-2.207-16.612-1.349-7.932 1.198-14.899 4.346-20.763 9.868-2.654 2.49-4.941 5.262-6.803 8.407a37.267 37.267 0 00-5.123 15.272c-.302 2.679-.426 5.439-.143 8.134.236 2.214.771 4.497 1.444 6.693 1.817 6.269 4.86 11.641 9.2 16.331z" fill="#A3A3A3"/>
  <path d="M147.767 64.225l6.718 10.734c-.017.074-.109.132-.126.206-1.113-.452-2.272-.876-3.339-1.357-3.173-1.398-6.483-2.199-9.879-2.627-5.639-.748-11.179-.217-16.558 1.49-6.062 1.943-11.32 5.17-15.951 9.6-.711.701-1.083 1.636-1.926 2.228-.413-.763-.873-1.497-1.286-2.26l10.825-6.775c2.843-1.78 5.94-2.952 9.151-3.94 3.728-1.184 7.553-1.6 11.419-1.849 1.52-.121 3.012.222 4.497.25.975.028 1.675-.282 2.248-.896a134.615 134.615 0 003.387-3.972c.206-.384.453-.602.82-.832z" fill="#EBEBEB" fill-opacity=".8"/>
  <path d="M105.391 82.194c.413.762.873 1.496 1.286 2.259a.868.868 0 01-.717.385 39.763 39.763 0 00-1.395-2.128 5.553 5.553 0 00-1.005-1.605c-.172-.275-.27-.533-.442-.809L71.45 29.701c-.115-.183-.166-.47-.556-.481-.619 1.664-1.283 3.356-1.919 5.095-.177.43-.366.74-.848.786-.04-.166-.098-.258-.138-.425.728-.774.848-1.807 1.266-2.77.47-1.188.864-2.393 1.288-3.552.23-.144.384-.305.613-.448.385.206.494.585.695.906l32.903 52.567c.218.247.419.568.637.815z" fill="#160D09"/>
  <path d="M161.48 79.71c-.379.11-.689-.08-.953-.298-.832-.82-1.865-1.45-2.898-2.08-1.417-.837-2.496-1.949-3.34-3.4-2.033-3.451-4.249-6.788-6.391-10.108l-.287-.459c-.701-1.732-.999-1.29.853-2.513l.688-.43c.046-.029.12-.012.166-.04 3.101 4.953 6.247 9.879 9.348 14.833.965 1.439 1.866 2.981 2.814 4.495z" fill="#787878"/>
  <path d="M160.409 141.029c-.865.35-1.444 1.159-2.224 1.647-1.559.976-3.107 2.073-5.063 2.212-.287.051-.734.459-1.072.735-.74.654-1.365.471-2.025-.074 3.091-1.487 6.164-2.9 8.91-4.938a40.595 40.595 0 007.457-7.158c3.319-4.183 5.719-8.814 7.069-14 .675-2.593 1.052-5.255 1.233-7.922.171-2.788-.187-5.501-.378-8.254.092-.058.212-.069.304-.127.885 2.128.789 4.422.83 6.631.078 5.122-.801 10.142-2.754 14.875-2.13 5.164-5.116 9.777-9.266 13.652a34.463 34.463 0 01-3.021 2.721z" fill="#A3A3A3"/>
  <path d="M47.737 102.065c-.975.482-1.583.224-2.157-.693L28.037 73.345c-.23-.367-.505-.705-.735-1.072l-.258-.413c.057-.419.567-.419.728-.775l.413-.258.028.046 19.524 31.192zM161.479 79.71c-.947-1.514-1.849-3.056-2.796-4.57-3.101-4.954-6.248-9.88-9.348-14.833.579-.299 1.077-1.44 1.806-.173-.034.149.023.24.173.275l15.475 24.724c-.081.178-.19.31-.385.304-.086-.137-.218-.246-.275-.338-.58-1.233-1.728-2.047-2.646-3.004-.683-.785-1.412-1.542-2.004-2.385z" fill="#160D09"/>
  <path d="M34.71 67.38c-.626.839-1.612 1.2-2.437 1.717-.855.471-.837.907-.332 1.612 6.334 10.017 12.547 20.046 18.88 30.063.517.825.735 1.582.11 2.42-.424-.372-.866-.67-1.29-1.043 1.456-.528 1.502-.557.583-2.025L40.118 83.978c-3.072-4.909-6.19-9.788-9.262-14.696.092-.058.109-.132.2-.19.872-.545 1.772-1.045 2.644-1.59.23-.144.584-.494 1.01-.121z" fill="#A3A3A3"/>
  <path d="M152.786 159.652c-2.182-3.486-4.289-6.955-6.471-10.441l-.431-.688c-.086-.138-.126-.304.057-.419.184-.115.396-.184.557-.029.218.247.419.568.591.843l6.575 10.504c-.264.293-.51.511-.878.23z" fill="#160D09"/>
  <path d="M141.612 156.688l-3.1-4.954c-.23-.367-.385-.717-.89-.911-.861-.356-.225-1.073-.374-1.618-.081-.332.327-.396.608-.253.413.253 1.416-.184 1.188.981-.069.298.253.607.454.929l3.1 4.954c.201.321.448.613.225 1.072-.252.413-.62.132-.952.213l-.259-.413zm.614.063l.184-.115-4.422-7.064-.183.115 4.421 7.064z" fill="#A3A3A3"/>
  <path d="M174.648 103.197c-.092.057-.212.069-.304.126-.115-.184-.259-.413-.327-.625-.605-3.516-1.938-6.767-3.3-10.065.138-.086.275-.172.442-.212.878.79 1.039 1.966 1.55 2.987 1.034 2.162 1.552 4.52 2.087 6.802.081.333.19.711-.148.987z" fill="#EBEBEB" fill-opacity=".8"/>
  <path d="M171.131 92.375a1.49 1.49 0 01-.441.212c-1.195-1.806-1.976-3.87-3.308-5.59-.362-.476-1.073-.797-1.005-1.606.195.006.275-.172.384-.304 1.614 2.373 3.152 4.73 4.37 7.288z" fill="#A3A3A3"/>
  <path d="M30.965 69.15c-.092.057-.109.132-.2.19l-2.569 1.607-.029-.046c-.184-.396.092-.568.367-.74.32-.201.384-.304.263-.803-.23-.878.82-.833 1.267-1.24.407.447-.24.533-.16.866.275.338.837-.396 1.061.166z" fill="#EBEBEB" fill-opacity=".8"/>
  <path d="M149.14 60.301l-.688.43c-1.852 1.224-1.554.782-.853 2.514-.763-.097-.987-.66-.999-1.29.017-.585.326-.907.929-.965.659.035.71-1.21 1.611-.689zM71.157 27.906c-.23.143-.384.304-.614.448l-.67-.155c-.19-.71.182-1.136.859-1.176.648-.087.528.436.425.883z" fill="#A3A3A3"/>
  <path d="M27.771 71.085c-.189.31-.7.31-.727.775-.333.08-.838.396-.941-.177-.075-.528.36-.546.808-.443.299.069.534-.27.86-.155z" fill="#EBEBEB" fill-opacity=".8"/>
  <path d="M151.36 60.38c-.149-.034-.206-.126-.172-.275.011.12.115.183.172.275z" fill="#A3A3A3"/>
  <path d="M28.24 70.919l2.569-1.608c3.072 4.908 6.19 9.788 9.262 14.696l10.106 16.146c.919 1.468.919 1.468-.584 2.026-.614-.063-1.244-.051-1.858-.114L28.24 70.919z" fill="#787878"/>
  <path d="M67.422 36.117c.31-.321.648-.597.751-1.044.51 0 .7-.31.848-.787.59-1.71 1.254-3.402 1.918-5.095.39.012.442.298.557.482l31.668 50.595c.172.275.27.533.442.809-1.897 1.251-3.864 2.29-5.618 3.772-3.36-5.367-6.793-10.751-10.152-16.118L68.34 37.585c-.2-.321-.31-.7-.74-.877l-.23-.367c.092-.058.034-.15.051-.224z" fill="#EBEBEB" fill-opacity=".8"/>
  <path d="M67.474 36.404l.23.366c.299.58.597 1.159.97 1.755l32.472 51.88c.23.367.58.722.609 1.278-.648.087-.706-.515-.907-.836l-12.173-19.45-20.988-33.53c-.258-.414-1.13-.89-.213-1.463z" fill="#787878"/>
  <path d="M104.611 82.682c.459.734.89 1.422 1.395 2.127.144.74-.584 1.004-.899 1.52-.865 1.372-1.834 2.68-2.699 4.052-.424.648-.676.55-1.004-.074-.844-1.45-1.705-2.827-2.595-4.249 1.88-1.177 3.675-2.492 5.802-3.376z" fill="#EBEBEB" fill-opacity=".8"/>
  <path d="M142.226 156.751l-4.421-7.064.183-.114 4.422 7.064-.184.114z" fill="#787878"/>
  <path d="M157.431 81.095c.207.126.396.326.603.453.172.275.396.326.654.229.407.447.815.894 1.177 1.37.143.23.241.487.556.481.35.356.626.694.976 1.05 3.8 4.133 6.774 8.783 8.436 14.19 2.61 8.454 2.116 16.743-1.36 24.856-1.157 2.639-2.727 5.026-4.268 7.459-.384.305-.739.655-.934 1.16l-.327.396c-.355.35-.665.671-1.02 1.021-.74.655-1.536 1.217-2.041 2.044-.137.086-.275.172-.384.304-.653.281-1.077.93-1.645 1.349-2.259 1.797-4.736 3.347-7.368 4.547l-.366.23c-1.623.569-3.436.937-4.886 1.781-1.313.758-2.673.524-3.986.771-1.388.231-2.787.34-4.187.45-7.261.332-13.933-1.557-20.102-5.293-5.549-3.358-9.814-8.03-12.726-13.805-3.383-6.628-4.575-13.735-3.611-21.169.622-4.411 2.048-8.56 4.156-12.433 3.409-6.283 8.378-10.99 14.674-14.291 6.387-3.36 13.241-4.65 20.44-3.856 5.209.57 10.056 2.196 14.572 4.924.282.143.5.39.781.533.103.063.178.08.281.143.471.344.987.659 1.458 1.003.12-.012.206.126.447.103zm-48.112 9.11c-1.347 1.417-2.149 3.196-3.128 4.895-.665 1.181-.572 2.145.203 3.384 7.166 11.347 14.286 22.723 21.406 34.099 1.867 2.981 3.779 5.934 5.553 8.973.787 1.359 1.751 1.777 3.213 1.564.769-.098 1.532-.001 2.3-.099 1.01-.121 2.117.016 2.965-.77.293.263.632.498 1.056.36.35-.155.699-.31 1.078-.419 4.915-1.225 9.45-3.361 13.343-6.628 4.878-4.138 8.431-9.171 10.394-15.316 1.895-5.846 2.229-11.737.854-17.707-1.254-5.472-3.712-10.317-7.403-14.582-4.61-5.223-10.245-8.719-16.951-10.458-5.009-1.27-10.096-1.342-15.126-.3-5.982 1.254-11.239 3.97-15.699 8.166-1.341 1.222-2.436 2.737-3.777 3.96-.247.218-.315.516-.281.878zm-4.359 8.027c-.143.281-.235.339-.27.488-2.129 6.185-2.595 12.477-.99 18.815 1.064 4.249 2.753 8.172 5.382 11.761 2.153 2.93 4.724 5.406 7.68 7.578 2.927 2.127 6.14 3.69 9.593 4.721 1.802.532 3.649 1.036 5.582 1.167.614.062.843-.081.47-.678l-.373-.596-26.443-42.247-.631-1.009zm.446-.918l-.229.144 28.366 45.32.23-.144-28.367-45.32z" fill="#000"/>
  <path d="M164.205 131.183c1.542-2.433 3.112-4.82 4.268-7.459 3.477-8.113 3.97-16.402 1.36-24.856-1.661-5.407-4.636-10.058-8.436-14.191.35-.155.631-.012.849.235 2.245 2.362 4.564 4.74 5.965 7.694 2.051 4.398 3.706 8.98 4.122 13.827.266 2.77.291 5.564-.269 8.34-.589 2.731-1.029 5.496-2.123 8.032-.819 1.853-1.638 3.706-2.887 5.382-.671.867-1.048 1.997-2.029 2.674-.321.201-.435.528-.82.322zM159.958 135.821c.504-.827 1.301-1.389 2.04-2.044.155.35.609.769.03 1.067-.7.31-.877 1.762-2.07.977zM157.899 137.428c.568-.419.992-1.068 1.646-1.349.62.888-.418.964-.688 1.451-.252.414-.653.282-.958-.102zM160.42 83.628c-.316.006-.413-.252-.557-.481.47-.167.677-.041.557.481zM158.642 81.805a.527.527 0 01-.654-.229c.321-.2.528-.075.654.23zM162.973 132.784l.326-.396c.098.258.225.562-.326.396zM150.164 142.205l.367-.229c.012.12.081.332.063.407-.2.189-.344-.04-.43-.178zM157.432 81.095c-.195-.006-.327-.115-.442-.298.304-.127.591-.178.442.298zM155.531 79.794c-.103-.063-.178-.08-.281-.143a.297.297 0 00.281.143zM65.307 63.232c.074.017.12-.011.24-.023-.017.075.04.166-.005.195-.046.029-.12.012-.212.07-.012-.121-.04-.167-.023-.242zM70.316 74.397c-.046.029-.08.178-.155.16-.046.03-.103-.062-.206-.125.046-.029.08-.178.154-.16a.41.41 0 01.207.125zM104.96 98.232l.632 1.009 26.443 42.247.373.596c.373.596.144.74-.47.677-1.887-.159-3.78-.634-5.582-1.166a31.574 31.574 0 01-9.593-4.721c-2.927-2.126-5.499-4.603-7.68-7.578-2.63-3.589-4.365-7.483-5.383-11.762-1.559-6.366-1.138-12.63.991-18.814.063-.104.126-.207.269-.488zM141.877 142.221c-.877.741-1.984.604-2.965.771-.768.098-1.531.001-2.3.099-1.462.213-2.426-.205-3.213-1.564-1.774-3.039-3.686-5.992-5.553-8.974-7.12-11.376-14.194-22.78-21.406-34.099-.775-1.238-.839-2.156-.203-3.384.933-1.67 1.781-3.477 3.128-4.894.172.275.362.475.534.75l31.611 50.504c.126.304.269.533.367.791z" fill="#EBEBEB" fill-opacity=".8"/>
  <path d="M141.876 142.222c-.143-.229-.241-.487-.385-.717l-31.61-50.503a5.241 5.241 0 00-.534-.751.883.883 0 01.281-.878c.528.436.78 1.044 1.125 1.594l31.495 50.32c.259.413.5.9.713 1.342-.453.092-.792-.143-1.085-.407z" fill="#160D09"/>
  <path d="M105.405 97.314l28.366 45.32-.229.144-28.366-45.32.229-.144z" fill="#787878"/>
  <path d="M136.643 121.11c-1.324 1.148-1.324 1.148-2.243-.319l-19.552-31.238c-1.263-2.019-1.292-2.064.48-3.62.539-.465.928-.964 1.364-1.492.579-.299.746.171.975.538l15.619 24.954c.683 1.296.97 1.755 1.958 2.924 1.028 1.846 2.13 3.71 3.434 5.384.028.046.103.063.132.109a2.92 2.92 0 00-.195.505c-.711.7-1.364 1.492-1.972 2.255zM145.628 115.679c-.579.298-1.193.235-1.801.488-.911.379-1.737.386-2.335-.773-.896-1.737-2.021-3.331-3.026-4.937-.781-1.554-.919-1.467-1.55-2.477l-.689-1.1-14.786-23.624c-.259-.413-.878-.79-.426-1.393 1.302-.368 2.633-.69 3.934-1.058.333-.08.585.017.786.338.201.32.357.67.558.992l20.097 32.109c.258.413.494.585.328 1.136M153.764 136.123c-1.13.133-1.852 1.223-2.924 1.447a2552.19 2552.19 0 01-10.864-17.459c-.833-1.33-.455-2.461.91-2.932.728-.264 1.25-.144 1.709.59 3.457 5.625 6.977 11.146 10.48 16.743.258.413.591.843.849 1.255-.034.15-.097.253-.16.356z" fill="#000"/>
  <path d="M153.763 136.123c.063-.103.052-.224.115-.327.189.2.126.304-.115.327z" fill="#A3A3A3"/>
</svg>
