<svg width="360" height="768" fill="none" xmlns="http://www.w3.org/2000/svg">
  <path d="M71.737 134.783c1.096-2.158 2.021-4.009 2.947-5.859a714.509 714.509 0 002.57-5.174c.17-.308.274-.72.548-.925.24-.172.685-.24.96-.137.205.068.376.479.41.754.035.239-.102.479-.24.719-2.09 4.181-4.18 8.395-6.304 12.541-.172.377-.651.788-.994.788-.308 0-.754-.479-.96-.822-2.09-4.112-4.146-8.258-6.236-12.404-.103-.24-.308-.48-.274-.72.034-.308.206-.753.411-.891.24-.102.72.035.925.24.309.274.446.686.651 1.063 1.542 3.083 3.05 6.133 4.592 9.217.308.445.583.857.994 1.61zM71.38 645.887a976.532 976.532 0 002.946-5.86c.857-1.713 1.714-3.426 2.57-5.174.171-.308.274-.72.548-.925.24-.171.686-.24.96-.137.205.068.377.48.411.754.034.24-.103.479-.24.719-2.09 4.181-4.18 8.395-6.305 12.541-.171.377-.65.789-.993.789-.309 0-.754-.48-.96-.823-2.09-4.112-4.146-8.258-6.236-12.404-.103-.24-.309-.48-.275-.72.035-.308.206-.753.412-.89.24-.103.72.034.925.239.308.275.445.686.651 1.063 1.542 3.084 3.05 6.133 4.592 9.217.308.446.582.857.993 1.611zM55.083 423.947c.514-.48.925-.823 1.268-1.165 2.193-2.159 4.352-4.352 6.51-6.511.309-.308.583-.617.926-.857.41-.308.959-.514 1.233-.034.172.309.103.891-.068 1.268-.138.343-.549.617-.823.925l-7.71 7.71c.275.343.514.685.789.959 2.398 2.399 4.797 4.798 7.161 7.196.308.309.617.685.788 1.097.103.205-.034.685-.24.788-.24.137-.685.137-.96.034-.307-.137-.547-.48-.787-.72l-6.853-6.853c-.343-.342-.754-.685-1.268-1.199-.617 3.427-2.262 5.962-5.14 7.573-2.125 1.199-4.455 1.542-6.82 1.096-4.728-.891-8.531-5.071-8.189-10.793.275-4.386 4.01-8.533 8.498-9.081 5.62-.719 10.417 2.433 11.685 8.567zm-18.71 1.404c-.205 4.386 3.53 8.635 8.567 8.67 4.969.034 8.772-4.009 8.807-8.67.034-4.762-3.975-8.772-8.704-8.772-5.414.035-9.046 4.935-8.67 8.772zM68.343 323.759c.445-.823.822-1.542 1.302-2.433h-7.06c.172-1.165 4.387-9.046 5.792-10.862.685 1.062 1.37 2.056 2.022 3.084.685 1.062 1.336 2.09 2.09 3.323.89-1.336 1.679-2.501 2.57-3.906 2.021 3.632 3.94 7.127 5.962 10.794H68.343zM36.853 119.021c5.894 3.393 11.582 6.648 17.544 10.074-5.928 3.427-11.616 6.682-17.338 9.972-.377-1.131-.549-16.105-.206-20.046zm1.61 2.913c-.308 4.489-.17 13.055.24 14.22 4.01-2.296 8.018-4.626 12.233-7.059a3842.233 3842.233 0 01-12.473-7.161zM61.147 182.79c.034-1.919.89-3.393 2.33-4.558 1.747-1.439 3.803-2.193 5.962-2.501 3.358-.48 6.647-.137 9.697 1.542 1.234.685 2.296 1.576 3.016 2.844 1.473 2.57.65 5.688-2.09 7.641-1.474 1.062-3.119 1.714-4.867 2.056-3.632.651-7.127.343-10.416-1.473-2.296-1.268-3.632-3.29-3.632-5.551zm1.816.856c.377 1.405 1.165 2.159 2.056 2.776 2.775 1.885 5.859 2.33 9.08 1.885 1.885-.275 3.632-.891 5.14-2.091.788-.616 1.576-1.302 1.645-2.57h-4.318c-.548 0-1.2.103-1.336-.685-.103-.582.377-.994 1.268-.994.925-.034 1.884 0 2.81 0 .548 0 1.062-.034 1.987-.102-.754-.926-1.2-1.645-1.782-2.159-1.679-1.542-3.77-2.159-5.997-2.399-3.255-.308-6.339.206-8.977 2.33-.72.583-1.405 1.2-1.44 2.33h4.147c.308 0 .72-.068.89.103.275.24.583.685.549.96-.034.239-.548.582-.89.616-1.509.035-3.085 0-4.832 0zM246.491 141.842H31.164v1.679h215.327v-1.679zM246.491 168.946H31.164v.651h215.327v-.651zM246.491 196.085H31.164v.651h215.327v-.651zM246.491 249.676H31.164v.651h215.327v-.651zM246.491 276.643H31.164v.651h215.327v-.651zM246.491 329.892H31.164v.651h215.327v-.651zM246.491 356.859H31.164v.651h215.327v-.651zM246.15 222.367H30.822v1.679H246.15v-1.679zM246.15 302.925H30.822v1.679H246.15v-1.679zM246.15 410.759H30.822v1.679H246.15v-1.679zM246.15 383.484H30.822v1.679H246.15v-1.679z" fill="#fff"/>
  <path d="M193.583 115.464h-1.679v27.029h1.679v-27.029zM113.031 115.464h-1.566v27.416h1.566v-27.416zM113.062 61.416h-1.679v26.633h1.679V61.416zM193.824 61.416h-1.679v26.633h1.679V61.416zM85.72 115.526h-.652v296.227h.651V115.526zM139.307 115.526h-.651v26.967h.651v-26.967zM166.276 115.526h-.651v26.967h.651v-26.967zM219.868 115.526h-.651v26.967h.651v-26.967zM58.749 115.526h-.651v296.227h.65V115.526z" fill="#fff"/>
  <path d="M246.491 114.875H31.164v1.679h215.327v-1.679zM246.491 87.908H31.164v1.68h215.327v-1.68zM246.491 60.633H31.164v1.679h215.327v-1.68z" fill="#fff"/>
  <path d="M248 439.542H30V34h218v405.542zm-216.355-1.76H246.32V35.76H31.645v402.022z" fill="#fff"/>
  <path d="M68.686 256.358c1.508 2.433 2.81 4.489 4.249 6.785l2.604-4.009c2.09 3.735 4.112 7.367 6.202 11.17H68.617c.377-.754.72-1.473 1.2-2.398h-7.504c2.192-3.941 4.214-7.642 6.373-11.548zM78.484 298.573c-.514-.651-1.13-1.13-1.13-1.542.034-.411.685-.822 1.096-1.199.411.411 1.096.788 1.165 1.268.103.308-.582.822-1.13 1.473zM70.09 290.11c.788-.583 1.302-1.2 1.61-1.131.446.137 1.063.788 1.063 1.165 0 .411-.651.994-1.131 1.131-.309.068-.788-.549-1.542-1.165zM75.197 291.755c.513.89 1.062 1.404.993 1.85-.068.445-.72.788-1.096 1.165-.309-.411-.857-.822-.891-1.268-.035-.411.48-.857.993-1.747zM70.056 286.957c-.89.48-1.405.96-1.747.891-.412-.103-.994-.754-.96-1.096.069-.446.651-1.063 1.062-1.097.343-.034.788.617 1.645 1.302zM66.153 283.668c-.412.274-.891.788-1.268.719-.411-.068-.925-.616-1.028-1.062-.069-.274.548-.925.925-.959.411-.069.89.377 1.336.582.035.274.035.514.035.72zM66.697 337.739c.548.377 1.233.651 1.61 1.165 1.405 1.919 3.05 2.947 5.585 2.844 2.502-.103 3.359 1.816 1.988 3.941-.308.479-.754.856-.994 1.336-.274.583-.377 1.268-.548 1.885.617-.137 1.302-.172 1.885-.412.514-.205.89-.685 1.37-.993 1.2-.754 2.467-.823 3.564.137 1.028.925.857 2.056.274 3.186-.514 1.028-.925 2.125-1.405 3.153-.103.24-.514.48-.72.445-.274-.068-.719-.445-.685-.651.103-.856.24-1.713.549-2.467.274-.685.856-1.268 1.233-1.85-.72-1.302-1.508-.96-2.33-.309-.617.48-1.2.96-1.885 1.303-1.028.514-2.021.514-2.947-.446-.89-.891-.822-1.85-.342-2.81.411-.788 1.096-1.473 1.576-2.227.206-.308.514-.857.411-1.028-.205-.343-.754-.719-1.096-.651-3.084.548-5.003-1.199-6.75-3.255-.412-.48-.583-1.165-.892-1.748.172-.205.343-.377.549-.548z" fill="#fff"/>
  <path d="M66.082 342.433c-2.707.24-4.797-1.781-4.763-4.214.068-3.255 2.296-5.174 5.242-5.243 2.468-.034 4.524 2.125 4.215 4.626-.65-.548-1.165-.925-1.645-1.371-.925-.925-1.816-1.816-3.255-1.542-1.576.309-2.638 1.268-2.81 2.844-.068.789.309 1.714.72 2.433.548.823 1.37 1.474 2.296 2.467zM64.262 360.389h5.003c.034.308.068.754.068 1.199 0 5.791-.034 11.548.035 17.339.034 1.507-.583 1.953-1.92 1.816-1.062-.137-2.33.514-3.255-1.268 1.234-.137 2.33-.274 3.496-.411v-17.27c-.96-.514-2.605.514-3.427-1.405zM73.478 360.149c1.405 0 2.605-.034 3.804.034.343.034.685.411 1.028.651-.308.274-.617.754-.96.788-.685.137-1.439.035-2.33.035v17.578c.857 0 1.645-.069 2.365.034.308.034.582.377.89.583-.24.274-.445.822-.719.822-1.13.103-2.296.103-3.426 0-.24-.034-.617-.583-.617-.891-.035-6.476-.035-12.952-.035-19.634zM67.522 237.683c0-2.501 1.576-4.077 4.111-4.077 2.57 0 4.284 1.679 4.284 4.18 0 2.433-1.885 4.249-4.42 4.215-2.33 0-3.975-1.782-3.975-4.318zM67.214 150.957c.651.788 1.337 1.439 1.782 2.227.274.48.24 1.165.309 1.748-.514-.172-1.131-.24-1.474-.549-.754-.685-1.336-1.541-2.056-2.398-1.987 2.364-3.187 4.797-2.57 7.915 1.165-.24 2.296-.445 3.667-.719-.24 2.467-2.399 1.644-3.53 2.672.377.857.857 1.816 1.2 2.879.171.479 0 1.062 0 1.61-.412-.24-1.028-.377-1.234-.754-3.598-6.065-2.159-14.528 5.174-16.961 6.682-2.227 13.193 2.912 13.33 9.628.068 2.639-.514 5.106-1.816 7.368-.24.411-.788.685-1.2.993-.171-.137-.342-.24-.514-.377.514-1.507.994-3.015 1.542-4.625-.993-.309-1.884-.514-2.707-.857-.342-.137-.582-.583-.856-.857.41-.205.856-.651 1.233-.582.891.103 1.748.411 2.639.651.514-3.221-.446-5.791-2.81-7.847-1.2.891-1.474 2.844-3.461 3.118-.48-2.056 1.542-2.707 1.987-4.146-1.062-1.611-5.414-2.125-8.635-.137zM72.113 404.865c-3.187.137-6.065-.616-8.635-2.604-3.29-2.604-3.392-7.024.034-9.389 3.084-2.124 6.51-3.015 10.314-2.432 2.365.376 4.524.959 6.51 2.364 3.325 2.364 3.564 7.367-.273 9.834-2.399 1.611-5.037 2.433-7.95 2.227zm-1.508-1.439c4.215-.068 6.922-.754 9.286-2.81 2.365-2.021 1.61-5.002-.48-6.476-4.351-3.049-10.45-3.187-14.768 0-2.913 2.159-2.741 5.072.24 7.127 2.159 1.44 4.42 2.193 5.722 2.159zM55.085 719.2c.514-.48.925-.822 1.268-1.165 2.193-2.159 4.352-4.352 6.51-6.511.309-.308.583-.616.925-.856.412-.309.96-.514 1.234-.034.171.308.103.89-.068 1.267-.137.343-.549.617-.823.926l-7.71 7.709c.275.343.514.686.788.96 2.4 2.398 4.798 4.797 7.162 7.196.308.308.617.685.788 1.096.103.206-.034.685-.24.788-.24.137-.685.137-.96.034-.308-.137-.547-.479-.787-.719l-6.853-6.853c-.343-.343-.754-.686-1.268-1.2-.617 3.427-2.262 5.963-5.14 7.573-2.125 1.199-4.455 1.542-6.82 1.097-4.728-.891-8.531-5.072-8.189-10.794.274-4.386 4.01-8.532 8.498-9.08 5.62-.72 10.417 2.432 11.685 8.566zm-18.71 1.405c-.205 4.386 3.53 8.635 8.567 8.669 4.969.034 8.772-4.009 8.807-8.669.034-4.763-3.975-8.772-8.704-8.772-5.414.034-9.046 4.934-8.67 8.772zM71.534 533.741h-7.47c-1.336 0-1.713-.171-1.748-.822-.034-.651.377-.891 1.645-.891h16.037c.582 0 1.062.24 1.028.891-.035.651-.549.822-1.097.822h-8.395zM71.534 529.355h-5.928c-.548 0-1.097-.034-1.097-.754-.034-.719.549-.822 1.028-.925.309-.069.617-.034.925-.034h10.451c.446 0 .926.068 1.371.171.48.103.754.48.548.925-.102.274-.48.549-.753.583-.823.068-1.645.034-2.502.034h-4.043zM78.693 537.819c-.446.034-.891.103-1.337.103H65.98c-.274 0-.548.068-.754-.035-.274-.137-.72-.445-.685-.582.069-.343.343-.686.617-.891.171-.137.514-.069.754-.069h11.513c1.336-.034 1.44.103 1.268 1.474zM71.773 542.308h-4.181c-.514 0-.925-.206-.96-.789 0-.582.343-.822.892-.822h8.224c.513 0 .925.137.925.788 0 .617-.343.823-.891.823a76.538 76.538 0 00-4.01 0c0-.035 0-.035 0 0zM76.536 523.496c.274.925.309 1.576-.65 1.576-2.81.034-5.586 0-8.396.034-.582 0-.89-.308-.857-.857.035-.479.343-.719.823-.719 3.015-.034 5.996-.034 9.08-.034zM71.534 209.987h-7.47c-1.336 0-1.713-.171-1.748-.823-.034-.651.377-.89 1.645-.89h16.037c.582 0 1.062.239 1.028.89-.035.652-.549.823-1.097.823h-8.395zM71.534 205.601h-5.928c-.548 0-1.097-.035-1.097-.754-.034-.72.549-.823 1.028-.925.309-.069.617-.035.925-.035h10.451c.446 0 .926.069 1.371.172.48.102.754.479.548.925-.102.274-.48.548-.753.582-.823.069-1.645.035-2.502.035h-4.043zM78.693 214.064c-.446.035-.891.103-1.337.103H65.98c-.274 0-.548.069-.754-.034-.274-.137-.72-.446-.685-.583.069-.342.343-.685.617-.891.171-.137.514-.068.754-.068h11.513c1.336-.034 1.44.103 1.268 1.473zM71.773 218.553h-4.181c-.514 0-.925-.206-.96-.788 0-.583.343-.822.892-.822h8.224c.513 0 .925.137.925.788 0 .616-.343.822-.891.822a78.788 78.788 0 00-4.01 0c0-.034 0-.034 0 0zM76.536 199.741c.274.925.309 1.576-.65 1.576-2.81.035-5.586 0-8.396.035-.582 0-.89-.309-.857-.857.035-.48.343-.72.823-.72 3.015-.034 5.996-.034 9.08-.034zM36.857 442.217c5.894 3.393 11.582 6.648 17.544 10.075-5.928 3.392-11.616 6.681-17.339 9.971-.377-1.131-.548-16.105-.205-20.046zm1.61 2.913c-.308 4.489-.171 13.055.24 14.22 4.01-2.295 8.018-4.626 12.233-7.058a4037.198 4037.198 0 01-12.473-7.162zM61.15 505.986c.035-1.919.891-3.392 2.33-4.557 1.748-1.44 3.804-2.193 5.963-2.502 3.358-.479 6.647-.137 9.697 1.542 1.234.686 2.296 1.576 3.015 2.844 1.474 2.57.651 5.688-2.09 7.641-1.473 1.063-3.118 1.714-4.866 2.056-3.632.651-7.127.343-10.416-1.473-2.296-1.268-3.633-3.289-3.633-5.551zm1.817.857c.376 1.405 1.165 2.158 2.055 2.775 2.776 1.885 5.86 2.33 9.08 1.885 1.885-.274 3.633-.891 5.14-2.09.789-.617 1.577-1.303 1.646-2.57H76.57c-.548 0-1.2.102-1.336-.686-.103-.582.377-.993 1.267-.993.926-.035 1.885 0 2.81 0 .549 0 1.063-.035 1.988-.103-.754-.925-1.2-1.645-1.782-2.159-1.68-1.542-3.77-2.159-5.997-2.399-3.255-.308-6.339.206-8.977 2.331-.72.582-1.405 1.199-1.44 2.33h4.147c.308 0 .72-.069.89.102.275.24.583.686.549.96-.034.24-.548.582-.891.617-1.508.034-3.084 0-4.831 0zM222.952 719.268c.651-3.495 2.399-5.962 5.277-7.572 2.125-1.2 4.489-1.405 6.819-.994 4.797.891 8.258 5.311 8.052 10.245-.205 5.277-4.111 8.978-8.635 9.629-4.248.582-9.765-1.268-11.581-8.532a9.577 9.577 0 00-1.063.891c-2.33 2.296-4.626 4.626-6.956 6.956-.308.308-.582.651-.925.822-.274.103-.754.034-.959-.137-.206-.171-.24-.685-.137-.959.171-.377.514-.652.822-.926l6.853-6.853c.377-.377.72-.754 1.131-1.199-.343-.377-.651-.72-.959-1.062-2.399-2.399-4.798-4.797-7.162-7.196-.925-.925-1.028-1.371-.48-1.782.823-.617 1.234.137 1.679.583 2.33 2.295 4.626 4.625 6.956 6.956.377.342.754.651 1.268 1.13zm1.405 1.337c-.206 3.975 3.187 8.737 8.704 8.703 5.277-.034 8.703-4.42 8.669-8.806-.034-4.66-3.975-8.635-8.669-8.635-5.552.034-8.944 4.866-8.704 8.738z" fill="#fff"/>
  <path d="M240.428 720.571c0 3.734-2.604 7.401-7.401 7.435-4.969 0-7.436-4.043-7.367-7.435.102-4.181 3.323-7.402 7.47-7.368 4.043 0 7.298 3.324 7.298 7.368zm-7.333-5.997c-3.221-.034-6.031 2.638-6.099 5.825-.069 3.221 2.673 6.134 5.928 6.202 2.844.069 5.962-2.056 6.202-5.928.171-3.186-2.741-6.065-6.031-6.099zM246.491 465.038H31.164v1.679h215.327v-1.679zM246.491 492.143H31.164v.651h215.327v-.651zM246.491 519.281H31.164v.651h215.327v-.651zM246.491 572.873H31.164v.651h215.327v-.651zM246.491 599.839H31.164v.652h215.327v-.652zM246.491 653.167H31.164v.651h215.327v-.651zM246.491 679.799H31.164v.651h215.327v-.651zM246.151 545.563H30.824v1.679h215.327v-1.679zM246.151 626.121H30.824v1.679h215.327v-1.679zM246.151 705.649H30.824v1.679h215.327v-1.679z" fill="#fff"/>
  <path d="M193.169 438.539h-.841v27.151h.841v-27.151zM112.712 438.539h-.982v26.825h.982v-26.825zM139.309 438.722h-.651v26.967h.651v-26.967zM166.278 438.722h-.651v26.967h.651v-26.967zM219.87 438.722h-.651v26.967h.651v-26.967zM58.721 438.722h-.59v268.493h.59V438.722zM85.336 438.722h-.59v268.493h.59V438.722z" fill="#fff"/>
  <path d="M248 734.631H30V438.539h218v296.092zm-216.355-1.285H246.32V439.825H31.645v293.521z" fill="#fff"/>
  <path d="M68.69 579.554c1.508 2.433 2.81 4.489 4.249 6.785l2.604-4.009c2.09 3.735 4.112 7.367 6.202 11.17H68.621c.377-.753.72-1.473 1.2-2.398h-7.505c2.193-3.941 4.215-7.641 6.374-11.548zM64.266 603.725h5.003c.034.308.068.753.068 1.199 0 5.791-.034 11.547.034 17.338.035 1.508-.582 1.953-1.918 1.816-1.063-.137-2.33.514-3.256-1.267 1.234-.138 2.33-.275 3.495-.412v-17.27c-.96-.513-2.604.514-3.426-1.404zM73.482 603.485c1.405 0 2.605-.035 3.804.034.343.034.685.411 1.028.651-.308.274-.617.754-.96.788-.685.137-1.439.034-2.33.034v17.579c.857 0 1.645-.069 2.365.034.308.034.582.377.89.582-.24.274-.445.823-.719.823-1.13.102-2.296.102-3.427 0-.24-.035-.616-.583-.616-.891-.035-6.476-.035-12.953-.035-19.634zM67.523 560.88c0-2.502 1.577-4.078 4.112-4.078 2.57 0 4.284 1.679 4.284 4.18 0 2.433-1.885 4.249-4.42 4.215-2.33 0-3.976-1.782-3.976-4.317zM67.523 667.428c0-2.502 1.577-4.078 4.112-4.078 2.57 0 4.284 1.679 4.284 4.18 0 2.433-1.885 4.249-4.42 4.215-2.33 0-3.976-1.782-3.976-4.317zM67.523 694.843c0-2.501 1.577-4.077 4.112-4.077 2.57 0 4.284 1.679 4.284 4.18 0 2.433-1.885 4.249-4.42 4.215-2.33 0-3.976-1.782-3.976-4.318zM71.739 457.98a976.532 976.532 0 002.947-5.86c.856-1.713 1.713-3.426 2.57-5.174.17-.308.274-.719.548-.925.24-.171.685-.24.96-.137.205.069.376.48.41.754.035.24-.102.48-.24.719-2.09 4.181-4.18 8.395-6.304 12.542-.172.377-.651.788-.994.788-.308 0-.754-.48-.96-.823-2.09-4.112-4.146-8.258-6.236-12.404-.103-.24-.308-.479-.274-.719.034-.309.206-.754.411-.891.24-.103.72.034.925.24.309.274.446.685.651 1.062 1.542 3.084 3.05 6.133 4.592 9.217.308.446.582.857.994 1.611zM67.216 474.153c.651.788 1.337 1.439 1.782 2.227.274.48.24 1.165.309 1.748-.514-.171-1.131-.24-1.474-.548-.754-.686-1.336-1.542-2.056-2.399-1.987 2.364-3.187 4.797-2.57 7.915 1.165-.239 2.296-.445 3.667-.719-.24 2.467-2.399 1.645-3.53 2.673.377.856.857 1.816 1.2 2.878.17.48 0 1.062 0 1.61-.412-.239-1.028-.376-1.234-.753-3.598-6.065-2.159-14.529 5.174-16.962 6.682-2.227 13.193 2.913 13.33 9.629.068 2.638-.514 5.105-1.816 7.367-.24.411-.789.685-1.2.994-.171-.137-.342-.24-.514-.377.514-1.508.994-3.016 1.542-4.626-.993-.309-1.884-.514-2.707-.857-.343-.137-.582-.582-.856-.857.41-.205.856-.651 1.233-.582.891.103 1.748.411 2.639.651.514-3.221-.446-5.791-2.81-7.847-1.2.891-1.474 2.844-3.461 3.118-.48-2.056 1.542-2.707 1.987-4.146-1.062-1.61-5.414-2.124-8.635-.137zM221.912 111.075c3.459-5.855 6.779-11.506 10.273-17.429 3.325 5.966 6.549 11.692 9.774 17.451-1.135.364-16.11.365-20.047-.022zm2.931-1.578c4.485.36 13.052.32 14.222-.078-2.25-4.035-4.534-8.07-6.919-12.312-2.481 4.221-4.822 8.204-7.303 12.39zM221.912 433.016c3.459-5.855 6.779-11.506 10.273-17.429 3.325 5.966 6.549 11.692 9.774 17.451-1.135.364-16.11.365-20.047-.022zm2.931-1.578c4.485.36 13.052.32 14.222-.078-2.25-4.035-4.534-8.07-6.919-12.312-2.481 4.221-4.822 8.204-7.303 12.39z" fill="#fff"/>
  <path d="M212.511 434.664l9.792-9.4-9.792-9.791M212.511 111.939l9.792-9.399-9.792-9.792" stroke="#fff" stroke-width="2" stroke-linejoin="round"/>
  <path d="M54.674 425.264h166.845M54.674 102.54h166.845" stroke="#fff" stroke-width="2" stroke-dasharray="24 6"/>
  <path fill="#fff" d="M30.781 34.783h216.194v26.633H30.781z"/>
  <path d="M71.8 58V41.296h4.464c1.072 0 1.96.128 2.664.384.72.256 1.272.696 1.656 1.32.384.608.6 1.464.648 2.568.016.4.024.744.024 1.032.016.288.016.584 0 .888 0 .304-.008.68-.024 1.128-.048 1.104-.264 1.968-.648 2.592-.384.624-.936 1.064-1.656 1.32-.72.24-1.608.36-2.664.36h-1.056V58H71.8zm3.408-8.112h1.056c.992 0 1.512-.368 1.56-1.104.048-.592.064-1.192.048-1.8 0-.608-.016-1.144-.048-1.608a1 1 0 00-.408-.792c-.256-.208-.64-.312-1.152-.312h-1.056v5.616zM82.933 58V41.296h4.464c.448 0 .944.024 1.488.072.56.048 1.096.2 1.608.456s.936.68 1.272 1.272c.352.576.552 1.4.6 2.472.016.288.024.544.024.768v.744c0 .272-.008.648-.024 1.128-.032 1.024-.232 1.824-.6 2.4-.352.56-.784.984-1.296 1.272l2.16 6.12h-3.6L87.3 52.48h-.96V58h-3.408zm3.408-8.52h1.056c.992 0 1.512-.368 1.56-1.104.048-.528.064-1.04.048-1.536 0-.512-.016-1-.048-1.464a1 1 0 00-.408-.792c-.256-.208-.64-.312-1.152-.312H86.34v5.208zm-2.496-11.592h2.304l1.416 1.368 1.416-1.368h2.304l-2.688 2.376h-2.064l-2.688-2.376zM94.3 58V41.296h8.016v2.976h-4.608v3.72h4.368v2.976h-4.368v4.056h4.608V58H94.3zm19.375-12.192c.032 1.216.048 2.496.048 3.84 0 1.328-.016 2.6-.048 3.816-.032 1.616-.44 2.776-1.224 3.48-.784.704-2.032 1.056-3.744 1.056h-4.704V41.296h4.704c1.712 0 2.96.352 3.744 1.056.784.688 1.192 1.84 1.224 3.456zm-3.408 8.064c.032-.88.048-1.824.048-2.832.016-1.008.016-2 0-2.976 0-.992-.016-1.88-.048-2.664-.016-.352-.152-.624-.408-.816-.256-.208-.64-.312-1.152-.312h-1.296v10.752h1.296c1.008 0 1.528-.384 1.56-1.152zM120.661 58v-2.832l5.232-10.896h-4.944v-2.976h8.64V44.2l-5.448 10.824h5.064V58h-8.544zm10.36 0l2.616-16.704h5.376L141.629 58h-3.504l-.384-3.288h-2.832L134.525 58h-3.504zm4.224-6.264h2.136l-.432-3.696-.312-3.768h-.648l-.312 3.768-.432 3.696zm.36-11.664V40l2.664-2.088h2.04v.072l-2.88 2.088h-1.824zM145.78 58l-2.712-16.704h3.528l1.392 8.232.24 5.496h.648l.24-5.496 1.392-8.232h3.528L151.3 58h-5.52zm14.846.216c-1.696 0-2.92-.336-3.672-1.008-.752-.688-1.152-1.824-1.2-3.408-.016-.848-.032-1.76-.048-2.736v-2.928c.016-.976.032-1.864.048-2.664.048-1.568.448-2.688 1.2-3.36.752-.688 1.976-1.032 3.672-1.032 1.712 0 2.936.344 3.672 1.032.736.672 1.136 1.8 1.2 3.384.032.8.048 1.68.048 2.64.016.96.016 1.928 0 2.904 0 .976-.016 1.888-.048 2.736-.064 1.6-.464 2.744-1.2 3.432-.736.672-1.96 1.008-3.672 1.008zm0-2.76c.944 0 1.432-.344 1.464-1.032.08-1.584.112-3.192.096-4.824 0-1.648-.032-3.232-.096-4.752-.032-.672-.52-1.008-1.464-1.008s-1.432.328-1.464.984c-.144 3.152-.144 6.36 0 9.624.032.672.52 1.008 1.464 1.008zm16.541-9.648c.032 1.216.048 2.496.048 3.84 0 1.328-.016 2.6-.048 3.816-.032 1.616-.44 2.776-1.224 3.48-.784.704-2.032 1.056-3.744 1.056h-4.704V41.296h4.704c1.712 0 2.96.352 3.744 1.056.784.688 1.192 1.84 1.224 3.456zm-3.408 8.064c.032-.88.048-1.824.048-2.832.016-1.008.016-2 0-2.976 0-.992-.016-1.88-.048-2.664-.016-.352-.152-.624-.408-.816-.256-.208-.64-.312-1.152-.312h-1.296v10.752h1.296c1.008 0 1.528-.384 1.56-1.152zM179.12 58V41.296h8.016v2.976h-4.608v3.72h4.368v2.976h-4.368v4.056h4.608V58h-8.016zm9.703 0V41.296h5.496l1.56 6.24.36 7.488h.6l.336-7.488 1.56-6.24h5.472V58h-3.384v-5.184l.648-8.544h-.648l-1.032 8.784L198.375 58h-3.696l-1.416-4.944-1.056-8.784h-.6l.624 8.544V58h-3.408z" fill="#2C2D84"/>
  <path d="M136.328 83V69.64h-1.02l-.06-1.06 1.72-1.58h2.36v16h-3zm8.849.2c-1.454 0-2.507-.307-3.16-.92-.654-.627-1.014-1.66-1.08-3.1a5.51 5.51 0 010-.68c.013-.227.026-.447.04-.66.066-.733.24-1.313.52-1.74.28-.427.693-.76 1.24-1v-.44a2.598 2.598 0 01-.98-.68c-.28-.32-.474-.72-.58-1.2a14.265 14.265 0 01-.14-1.36v-.6c.066-1.44.42-2.467 1.06-3.08.64-.627 1.666-.94 3.08-.94 1.426 0 2.453.313 3.08.94.64.613.993 1.64 1.06 3.08.013.147.013.347 0 .6-.014.24-.034.487-.06.74a3.42 3.42 0 01-.08.62c-.094.48-.287.88-.58 1.2-.28.307-.607.533-.98.68v.46c.493.24.886.573 1.18 1 .293.427.486 1 .58 1.72.026.213.04.433.04.66.013.227.013.453 0 .68-.054 1.44-.414 2.473-1.08 3.1-.654.613-1.707.92-3.16.92zm0-9.72c.826 0 1.24-.393 1.24-1.18v-1.88c0-.787-.414-1.18-1.24-1.18-.827 0-1.24.393-1.24 1.18v1.88c0 .787.413 1.18 1.24 1.18zm0 7.28c.826 0 1.24-.393 1.24-1.18v-2.06c0-.787-.414-1.18-1.24-1.18-.827 0-1.24.393-1.24 1.18v2.06c0 .787.413 1.18 1.24 1.18zm5.857 2.24v-2.78h3.4V83h-3.4zm9.4.2c-1.453 0-2.5-.307-3.14-.92-.64-.627-.96-1.653-.96-3.08v-.52c0-.187.007-.38.02-.58h2.98c-.013.253-.02.507-.02.76s.007.553.02.9c.027.293.107.533.24.72.147.187.42.28.82.28.387 0 .667-.087.84-.26.174-.173.267-.42.28-.74.027-.48.047-1.047.06-1.7.014-.653.027-1.367.04-2.14h-.44a1.962 1.962 0 01-.72.84c-.333.213-.766.32-1.3.32-.52 0-1.02-.12-1.5-.36-.48-.253-.873-.647-1.18-1.18-.293-.533-.44-1.227-.44-2.08V71.7c0-.413.007-.707.02-.88.067-1.44.427-2.467 1.08-3.08.654-.627 1.714-.94 3.18-.94 1.494 0 2.56.313 3.2.94.64.613.974 1.64 1 3.08.027 1.067.04 2.067.04 3 .014.92.014 1.82 0 2.7 0 .867-.013 1.76-.04 2.68-.026 1.427-.366 2.453-1.02 3.08-.653.613-1.673.92-3.06.92zm-.06-8.6c.747 0 1.16-.293 1.24-.88l-.04-1.7a73.884 73.884 0 00-.06-1.76c-.026-.68-.433-1.02-1.22-1.02-.386 0-.693.087-.92.26-.213.173-.32.427-.32.76 0 .04-.006.213-.02.52v2.8c.014.333.147.587.4.76.254.173.567.26.94.26zm5.778 8.4v-2.78h3.4V83h-3.4zM203.008 83c-.013-.52-.027-.947-.04-1.28v-.96c0-.307.007-.66.02-1.06.027-1.027.28-1.927.76-2.7.493-.773 1.247-1.44 2.26-2l1.34-.74c.427-.227.7-.52.82-.88.12-.373.187-.693.2-.96.04-.733.04-1.46 0-2.18-.04-.667-.453-1-1.24-1-.733 0-1.113.333-1.14 1-.04.92-.04 1.84 0 2.76h-2.96c-.013-.347-.027-.727-.04-1.14a14.306 14.306 0 010-1.06c.067-1.427.42-2.447 1.06-3.06.64-.627 1.667-.94 3.08-.94 1.013 0 1.82.133 2.42.4.6.267 1.04.693 1.32 1.28.293.587.46 1.36.5 2.32a16.18 16.18 0 010 1.62c-.027 1-.28 1.86-.76 2.58-.467.707-1.16 1.313-2.08 1.82l-1.56.86a1.481 1.481 0 00-.6.58 2.882 2.882 0 00-.28.78 3.29 3.29 0 00-.08.66v.66h5.1V83h-8.1zm14.24.2c-1.334 0-2.367-.347-3.1-1.04-.72-.693-1.094-1.687-1.12-2.98a208.78 208.78 0 01-.04-4.18c0-1.453.013-2.853.04-4.2.026-1.293.4-2.28 1.12-2.96.733-.693 1.766-1.04 3.1-1.04 1.306 0 2.32.347 3.04 1.04.733.68 1.12 1.667 1.16 2.96.053 1.36.08 2.76.08 4.2 0 1.44-.027 2.833-.08 4.18-.04 1.293-.427 2.287-1.16 2.98-.72.693-1.734 1.04-3.04 1.04zm0-2.44c.76 0 1.16-.34 1.2-1.02.066-1.533.1-3.113.1-4.74 0-1.64-.034-3.227-.1-4.76-.027-.667-.427-1-1.2-1-.787 0-1.194.333-1.22 1-.054 1.533-.08 3.12-.08 4.76 0 1.627.026 3.207.08 4.74.026.68.433 1.02 1.22 1.02zm5.916 2.24c-.013-.52-.026-.947-.04-1.28v-.96c0-.307.007-.66.02-1.06.027-1.027.28-1.927.76-2.7.494-.773 1.247-1.44 2.26-2l1.34-.74c.427-.227.7-.52.82-.88.12-.373.187-.693.2-.96.04-.733.04-1.46 0-2.18-.04-.667-.453-1-1.24-1-.733 0-1.113.333-1.14 1-.04.92-.04 1.84 0 2.76h-2.96l-.04-1.14a14.306 14.306 0 010-1.06c.067-1.427.42-2.447 1.06-3.06.64-.627 1.667-.94 3.08-.94 1.014 0 1.82.133 2.42.4.6.267 1.04.693 1.32 1.28.294.587.46 1.36.5 2.32a16.18 16.18 0 010 1.62c-.026 1-.28 1.86-.76 2.58-.466.707-1.16 1.313-2.08 1.82l-1.56.86a1.481 1.481 0 00-.6.58 2.917 2.917 0 00-.28.78 3.29 3.29 0 00-.08.66v.66h5.1V83h-8.1zm10.86 0V69.64h-1.02l-.06-1.06 1.72-1.58h2.36v16h-3zM55.072 84V70.08h4.58l1.3 5.2.3 6.24h.5l.28-6.24 1.3-5.2h4.56V84h-2.82v-4.32l.54-7.12h-.54l-.86 7.32-1.18 4.12h-3.08l-1.18-4.12-.88-7.32h-.5l.52 7.12V84h-2.84zm18.493.18c-1.453 0-2.486-.28-3.1-.84-.613-.573-.933-1.52-.96-2.84-.013-.6-.026-1.307-.04-2.12v-2.5l.04-2.34c.027-1.107.354-1.987.98-2.64.64-.667 1.667-1 3.08-1 1.387 0 2.387.28 3 .84.627.56.96 1.473 1 2.74.014.453.02.807.02 1.06 0 .24-.006.513-.02.82h-2.84c.014-.2.02-.387.02-.56v-.68c.014-.28.014-.647 0-1.1a.709.709 0 00-.32-.62c-.213-.147-.5-.22-.86-.22-.786 0-1.193.28-1.22.84-.026.853-.046 1.76-.06 2.72-.013.947-.013 1.88 0 2.8.014.907.034 1.74.06 2.5.027.56.434.84 1.22.84.387 0 .687-.073.9-.22a.746.746 0 00.36-.62c.014-.493.014-.947 0-1.36v-.94h2.84v.88c.014.36.014.653 0 .88-.04 1.32-.386 2.267-1.04 2.84-.64.56-1.66.84-3.06.84zm-3.28-16.94h1.92l1.18 1.14 1.18-1.14h1.92l-2.24 1.98h-1.72l-2.24-1.98zM79.055 84V70.08h3.72c.374 0 .787.02 1.24.06.468.04.914.167 1.34.38.427.213.78.567 1.06 1.06.294.48.46 1.167.5 2.06.014.24.02.453.02.64v.62c0 .227-.006.54-.02.94-.026.853-.193 1.52-.5 2-.293.467-.653.82-1.08 1.06l1.8 5.1h-3l-1.44-4.6h-.8V84h-2.84zm2.84-7.1h.88c.828 0 1.26-.307 1.3-.92.04-.44.054-.867.04-1.28 0-.427-.012-.833-.04-1.22a.833.833 0 00-.34-.66c-.213-.173-.532-.26-.96-.26h-.88v4.34z" fill="#fff" fill-opacity=".7"/>
</svg>
