<svg width="279" height="378" fill="none" xmlns="http://www.w3.org/2000/svg">
  <path d="M53.282 24.818c1.4-2.756 2.58-5.118 3.762-7.48a926.32 926.32 0 003.28-6.606c.22-.393.35-.918.7-1.18.307-.22.876-.307 1.226-.176.262.088.48.613.525.963.043.306-.132.612-.307.918-2.668 5.337-5.337 10.718-8.049 16.01-.218.482-.83 1.007-1.268 1.007-.394 0-.963-.613-1.225-1.05-2.669-5.25-5.293-10.542-7.962-15.835-.131-.307-.393-.613-.35-.92.044-.393.263-.961.525-1.136.306-.132.919.043 1.181.306.394.35.569.875.831 1.356 1.969 3.937 3.894 7.83 5.862 11.767.394.569.744 1.094 1.269 2.056zM32.022 358.3c.656-.612 1.18-1.05 1.618-1.487 2.8-2.756 5.556-5.556 8.312-8.312.394-.393.744-.787 1.18-1.093.526-.394 1.226-.657 1.576-.044.218.394.131 1.137-.088 1.618-.175.438-.7.788-1.05 1.182l-9.842 9.842c.35.438.656.875 1.006 1.225 3.062 3.062 6.124 6.124 9.143 9.186.393.394.787.875 1.006 1.4.131.263-.044.875-.306 1.006-.307.175-.875.175-1.225.044-.394-.175-.7-.612-1.006-.919l-8.75-8.749c-.437-.437-.962-.875-1.618-1.531-.787 4.375-2.887 7.612-6.562 9.668-2.712 1.531-5.687 1.968-8.705 1.4-6.037-1.138-10.893-6.474-10.455-13.78.35-5.599 5.118-10.892 10.849-11.592 7.174-.919 13.298 3.106 14.917 10.936zm-23.885 1.794c-.263 5.599 4.506 11.023 10.936 11.067 6.343.044 11.199-5.118 11.243-11.067.043-6.081-5.075-11.199-11.112-11.199-6.911.044-11.548 6.299-11.067 11.199zM53.02 121.538h-9.537c-1.706 0-2.187-.219-2.23-1.05-.044-.831.48-1.138 2.1-1.138h20.472c.744 0 1.356.307 1.312 1.138-.043.831-.7 1.05-1.4 1.05H53.02zM53.02 115.938h-7.568c-.7 0-1.4-.044-1.4-.962-.043-.919.7-1.05 1.313-1.181.394-.088.787-.044 1.181-.044h13.342c.569 0 1.181.087 1.75.219.613.131.962.612.7 1.181-.131.35-.612.7-.962.743-1.05.088-2.1.044-3.194.044H53.02zM62.16 126.743c-.568.044-1.136.131-1.705.131H45.932c-.35 0-.7.088-.963-.043-.35-.175-.919-.569-.875-.744.088-.438.438-.875.788-1.137.218-.175.656-.088.962-.088h14.698c1.706-.044 1.838.131 1.619 1.881zM53.325 132.474H47.99c-.657 0-1.182-.263-1.225-1.007 0-.743.437-1.049 1.137-1.049H58.4c.656 0 1.181.175 1.181 1.006 0 .787-.438 1.05-1.137 1.05a99.227 99.227 0 00-5.119 0c0-.044 0-.044 0 0zM59.407 108.458c.35 1.181.394 2.012-.83 2.012-3.588.044-7.131 0-10.718.044-.744 0-1.138-.394-1.094-1.094.044-.612.438-.919 1.05-.919 3.85-.043 7.655-.043 11.592-.043zM8.75 4.696c7.524 4.33 14.786 8.486 22.397 12.86-7.568 4.331-14.83 8.53-22.135 12.73-.481-1.444-.7-20.56-.262-25.59zm2.056 3.718c-.394 5.73-.219 16.667.306 18.154 5.118-2.931 10.236-5.906 15.617-9.012a5141.945 5141.945 0 01-15.923-9.142zM39.766 86.104c.043-2.45 1.137-4.33 2.974-5.818 2.231-1.837 4.856-2.8 7.612-3.193 4.287-.612 8.486-.175 12.38 1.968 1.575.875 2.93 2.013 3.85 3.631 1.88 3.281.83 7.262-2.67 9.755-1.88 1.356-3.98 2.188-6.21 2.625-4.638.831-9.1.437-13.3-1.881-2.93-1.619-4.636-4.2-4.636-7.087zm2.318 1.094c.481 1.793 1.487 2.756 2.625 3.543 3.543 2.406 7.48 2.975 11.592 2.406 2.406-.35 4.637-1.137 6.562-2.668 1.006-.788 2.012-1.662 2.1-3.281H59.45c-.7 0-1.531.131-1.706-.875-.131-.744.481-1.268 1.618-1.268 1.181-.044 2.406 0 3.587 0 .7 0 1.357-.044 2.538-.132-.963-1.18-1.531-2.1-2.275-2.756-2.144-1.968-4.812-2.756-7.655-3.062-4.156-.394-8.093.263-11.462 2.975-.918.743-1.793 1.53-1.837 2.975h5.293c.394 0 .919-.088 1.138.13.35.307.743.876.7 1.225-.044.307-.7.744-1.138.788-1.925.044-3.937 0-6.168 0zM246.327 358.387c.831-4.462 3.062-7.611 6.737-9.667 2.712-1.531 5.73-1.794 8.705-1.269 6.124 1.138 10.543 6.781 10.28 13.08-.262 6.737-5.249 11.461-11.024 12.292-5.424.744-12.467-1.618-14.785-10.892-.525.393-.963.743-1.357 1.137-2.974 2.931-5.905 5.906-8.88 8.88-.393.394-.743.831-1.181 1.05-.35.131-.962.044-1.225-.175-.262-.219-.306-.875-.175-1.225.219-.481.656-.831 1.05-1.181l8.749-8.749c.481-.481.919-.962 1.444-1.531-.438-.481-.831-.918-1.225-1.356a1837.21 1837.21 0 01-9.143-9.186c-1.181-1.181-1.312-1.75-.612-2.275 1.05-.787 1.575.175 2.143.744 2.975 2.931 5.906 5.905 8.88 8.88.482.437.963.831 1.619 1.443zm1.794 1.706c-.263 5.075 4.068 11.155 11.111 11.112 6.737-.044 11.111-5.643 11.067-11.243-.043-5.949-5.074-11.023-11.067-11.023-7.087.043-11.418 6.211-11.111 11.154z" fill="#fff"/>
  <path d="M268.639 360.05c0 4.768-3.325 9.449-9.449 9.492-6.343 0-9.493-5.162-9.405-9.492.131-5.337 4.243-9.449 9.536-9.405 5.162 0 9.318 4.243 9.318 9.405zm-9.361-7.656c-4.112-.043-7.699 3.369-7.787 7.437-.087 4.112 3.412 7.83 7.568 7.918 3.631.087 7.612-2.625 7.918-7.568.218-4.068-3.5-7.743-7.699-7.787zM276.38 33.83H1.486v2.143H276.38V33.83zM276.38 68.431H1.486v.832H276.38v-.832zM276.38 103.077H1.486v.831H276.38v-.831zM276.38 171.494H1.486v.831H276.38v-.831zM276.38 205.921H1.486v.831H276.38v-.831zM276.38 274H1.486v.831H276.38V274zM276.38 308H1.486v.831H276.38V308zM275.944 136.629H1.051v2.144h274.893v-2.144zM275.944 239.473H1.051v2.143h274.893v-2.143zM275.944 341H1.051v2.143h274.893V341z" fill="#fff"/>
  <path d="M208.301 0h-1.072v34.66h1.072V0zM105.593 0h-1.253v34.246h1.253V0zM139.546.233h-.831V34.66h.831V.233zM173.974.233h-.831V34.66h.831V.233zM242.392.233h-.831V34.66h.831V.233zM36.663.234h-.753V343h.754V.234zM70.642.234h-.753V343h.753V.234z" fill="#fff"/>
  <path d="M278.306 378H0V0h278.306v378zM2.1 376.359h274.062V1.641H2.1v374.718z" fill="#fff"/>
  <path d="M49.389 180.024c1.924 3.106 3.587 5.731 5.424 8.661l3.325-5.118a2100.09 2100.09 0 017.917 14.261H49.301c.481-.962.919-1.881 1.531-3.062h-9.58c2.8-5.031 5.38-9.755 8.136-14.742zM43.744 210.881h6.386c.044.393.088.962.088 1.531 0 7.392-.044 14.742.044 22.134.044 1.925-.744 2.494-2.45 2.319-1.356-.175-2.975.656-4.156-1.619 1.575-.175 2.975-.35 4.462-.525v-22.047c-1.225-.656-3.324.656-4.374-1.793zM55.51 210.574c1.793 0 3.324-.044 4.855.044.438.044.875.525 1.313.831-.394.35-.788.962-1.225 1.006-.875.175-1.837.044-2.975.044V234.94c1.094 0 2.1-.088 3.019.044.393.043.743.481 1.137.743-.306.35-.569 1.05-.919 1.05-1.443.131-2.93.131-4.374 0-.306-.044-.788-.743-.788-1.137-.043-8.268-.043-16.536-.043-25.066zM47.9 156.183c0-3.193 2.013-5.205 5.25-5.205 3.28 0 5.468 2.143 5.468 5.337 0 3.105-2.406 5.424-5.643 5.38-2.975 0-5.075-2.275-5.075-5.512zM47.9 292.206c0-3.194 2.013-5.206 5.25-5.206 3.28 0 5.468 2.143 5.468 5.337 0 3.106-2.406 5.424-5.643 5.381-2.975 0-5.075-2.275-5.075-5.512zM47.9 327.206c0-3.194 2.013-5.206 5.25-5.206 3.28 0 5.468 2.143 5.468 5.337 0 3.106-2.406 5.424-5.643 5.381-2.975 0-5.075-2.275-5.075-5.512zM47.51 45.465c.83 1.007 1.705 1.838 2.274 2.844.35.612.306 1.487.394 2.23-.656-.218-1.444-.305-1.881-.699-.963-.875-1.706-1.969-2.625-3.062-2.537 3.018-4.068 6.124-3.28 10.105 1.486-.306 2.93-.569 4.68-.919-.306 3.15-3.062 2.1-4.506 3.412.481 1.094 1.094 2.319 1.531 3.675.219.612 0 1.356 0 2.056-.525-.306-1.312-.481-1.575-.963-4.593-7.742-2.756-18.547 6.606-21.653 8.53-2.844 16.842 3.718 17.017 12.292.087 3.368-.656 6.518-2.319 9.405-.306.525-1.006.875-1.53 1.269-.22-.175-.438-.306-.657-.481.656-1.925 1.268-3.85 1.968-5.906-1.268-.394-2.405-.656-3.455-1.093-.438-.175-.744-.744-1.094-1.094.525-.263 1.094-.831 1.575-.744 1.137.131 2.23.525 3.368.831.656-4.112-.569-7.392-3.587-10.017-1.531 1.137-1.881 3.63-4.418 3.98-.613-2.624 1.968-3.455 2.537-5.293-1.356-2.056-6.912-2.712-11.024-.175zM52.672 264.53c1.4-2.756 2.582-5.118 3.763-7.48a926.56 926.56 0 003.28-6.606c.22-.393.35-.918.7-1.181.307-.218.875-.306 1.225-.175.263.088.481.613.525.963.044.306-.131.612-.306.918-2.669 5.337-5.337 10.718-8.05 16.011-.218.481-.83 1.006-1.268 1.006-.393 0-.962-.612-1.225-1.05-2.668-5.249-5.293-10.542-7.961-15.835-.131-.307-.394-.613-.35-.919.044-.394.262-.962.525-1.137.306-.132.918.043 1.18.306.395.35.57.875.832 1.356 1.969 3.937 3.893 7.83 5.862 11.767.394.569.744 1.094 1.268 2.056z" fill="#fff"/>
</svg>
