<svg width="279" height="518" fill="none" xmlns="http://www.w3.org/2000/svg">
  <path d="M245.003 98.396c4.416-7.474 8.654-14.688 13.114-22.25 4.245 7.617 8.361 14.926 12.478 22.278-1.449.465-20.567.467-25.592-.028zm3.741-2.014c5.726.46 16.663.409 18.156-.1-2.872-5.15-5.788-10.302-8.833-15.718a5064.59 5064.59 0 01-9.323 15.818zM245.003 509.396c4.416-7.474 8.654-14.688 13.114-22.25 4.245 7.617 8.361 14.926 12.478 22.279-1.449.464-20.567.466-25.592-.029zm3.741-2.014c5.726.459 16.663.409 18.156-.099-2.872-5.152-5.788-10.303-8.833-15.719a5029.918 5029.918 0 01-9.323 15.818z" fill="#fff"/>
  <path d="M233 511.5l12.5-12L233 487M233 99.5l12.5-12L233 75" stroke="#fff" stroke-width="2" stroke-linejoin="round"/>
  <path d="M31.5 499.5h213M31.5 87.5h213" stroke="#fff" stroke-width="2" stroke-dasharray="24 6"/>
  <path fill="#fff" d="M1 1h276v34H1z"/>
  <path d="M136.594 62V45.968h-1.224l-.072-1.272 2.064-1.896h2.832V62h-3.6zm10.618.24c-1.744 0-3.008-.368-3.792-1.104-.784-.752-1.216-1.992-1.296-3.72a6.942 6.942 0 010-.816l.048-.792c.08-.88.288-1.576.624-2.088s.832-.912 1.488-1.2v-.528a3.123 3.123 0 01-1.176-.816c-.336-.384-.568-.864-.696-1.44a18.053 18.053 0 01-.168-1.632v-.72c.08-1.728.504-2.96 1.272-3.696.768-.752 2-1.128 3.696-1.128 1.712 0 2.944.376 3.696 1.128.768.736 1.192 1.968 1.272 3.696a5.31 5.31 0 010 .72c-.016.288-.04.584-.072.888a4.034 4.034 0 01-.096.744c-.112.576-.344 1.056-.696 1.44-.336.368-.728.64-1.176.816v.552a3.582 3.582 0 011.416 1.2c.352.512.584 1.2.696 2.064.032.256.048.52.048.792.016.272.016.544 0 .816-.064 1.728-.496 2.968-1.296 3.72-.784.736-2.048 1.104-3.792 1.104zm0-11.664c.992 0 1.488-.472 1.488-1.416v-2.256c0-.944-.496-1.416-1.488-1.416s-1.488.472-1.488 1.416v2.256c0 .944.496 1.416 1.488 1.416zm0 8.736c.992 0 1.488-.472 1.488-1.416v-2.472c0-.944-.496-1.416-1.488-1.416s-1.488.472-1.488 1.416v2.472c0 .944.496 1.416 1.488 1.416zM154.241 62v-3.336h4.08V62h-4.08zm11.28.24c-1.744 0-3-.368-3.768-1.104-.768-.752-1.152-1.984-1.152-3.696v-.624c0-.224.008-.456.024-.696h3.576c-.016.304-.024.608-.024.912 0 .304.008.664.024 1.08.032.352.128.64.288.864.176.224.504.336.984.336.464 0 .8-.104 1.008-.312.208-.208.32-.504.336-.888.032-.576.056-1.256.072-2.04.016-.784.032-1.64.048-2.568h-.528c-.176.4-.464.736-.864 1.008-.4.256-.92.384-1.56.384a3.976 3.976 0 01-1.8-.432c-.576-.304-1.048-.776-1.416-1.416-.352-.64-.528-1.472-.528-2.496V48.44c0-.496.008-.848.024-1.056.08-1.728.512-2.96 1.296-3.696.784-.752 2.056-1.128 3.816-1.128 1.792 0 3.072.376 3.84 1.128.768.736 1.168 1.968 1.2 3.696.032 1.28.048 2.48.048 3.6.016 1.104.016 2.184 0 3.24 0 1.04-.016 2.112-.048 3.216-.032 1.712-.44 2.944-1.224 3.696-.784.736-2.008 1.104-3.672 1.104zm-.072-10.32c.896 0 1.392-.352 1.488-1.056l-.048-2.04a93.093 93.093 0 00-.072-2.112c-.032-.816-.52-1.224-1.464-1.224-.464 0-.832.104-1.104.312-.256.208-.384.512-.384.912 0 .048-.008.256-.024.624v3.36c.016.4.176.704.48.912.304.208.68.312 1.128.312zM172.382 62v-3.336h4.08V62h-4.08zM222.11 62a111.17 111.17 0 00-.048-1.536v-1.152c0-.368.008-.792.024-1.272.032-1.232.336-2.312.912-3.24.592-.928 1.496-1.728 2.712-2.4l1.608-.888c.512-.272.84-.624.984-1.056.144-.448.224-.832.24-1.152a23.78 23.78 0 000-2.616c-.048-.8-.544-1.2-1.488-1.2-.88 0-1.336.4-1.368 1.2a38.106 38.106 0 000 3.312h-3.552c-.016-.416-.032-.872-.048-1.368-.016-.496-.016-.92 0-1.272.08-1.712.504-2.936 1.272-3.672.768-.752 2-1.128 3.696-1.128 1.216 0 2.184.16 2.904.48a3.09 3.09 0 011.584 1.536c.352.704.552 1.632.6 2.784.032.592.032 1.24 0 1.944-.032 1.2-.336 2.232-.912 3.096-.56.848-1.392 1.576-2.496 2.184l-1.872 1.032c-.304.16-.544.392-.72.696a3.46 3.46 0 00-.336.936 3.92 3.92 0 00-.096.792v.792h6.12V62h-9.72zm17.087.24c-1.6 0-2.84-.416-3.72-1.248-.864-.832-1.312-2.024-1.344-3.576a253.563 253.563 0 01-.048-5.016c0-1.744.016-3.424.048-5.04.032-1.552.48-2.736 1.344-3.552.88-.832 2.12-1.248 3.72-1.248 1.568 0 2.784.416 3.648 1.248.88.816 1.344 2 1.392 3.552.064 1.632.096 3.312.096 5.04 0 1.728-.032 3.4-.096 5.016-.048 1.552-.512 2.744-1.392 3.576-.864.832-2.08 1.248-3.648 1.248zm0-2.928c.912 0 1.392-.408 1.44-1.224.08-1.84.12-3.736.12-5.688 0-1.968-.04-3.872-.12-5.712-.032-.8-.512-1.2-1.44-1.2-.944 0-1.432.4-1.464 1.2-.064 1.84-.096 3.744-.096 5.712 0 1.952.032 3.848.096 5.688.032.816.52 1.224 1.464 1.224zm7.1 2.688a111.17 111.17 0 00-.048-1.536v-1.152c0-.368.008-.792.024-1.272.032-1.232.336-2.312.912-3.24.592-.928 1.496-1.728 2.712-2.4l1.608-.888c.512-.272.84-.624.984-1.056.144-.448.224-.832.24-1.152a23.78 23.78 0 000-2.616c-.048-.8-.544-1.2-1.488-1.2-.88 0-1.336.4-1.368 1.2a38.106 38.106 0 000 3.312h-3.552c-.016-.416-.032-.872-.048-1.368-.016-.496-.016-.92 0-1.272.08-1.712.504-2.936 1.272-3.672.768-.752 2-1.128 3.696-1.128 1.216 0 2.184.16 2.904.48a3.09 3.09 0 011.584 1.536c.352.704.552 1.632.6 2.784.032.592.032 1.24 0 1.944-.032 1.2-.336 2.232-.912 3.096-.56.848-1.392 1.576-2.496 2.184l-1.872 1.032c-.304.16-.544.392-.72.696a3.46 3.46 0 00-.336.936 3.92 3.92 0 00-.096.792v.792h6.12V62h-9.72zm13.032 0V45.968h-1.225l-.071-1.272 2.064-1.896h2.832V62h-3.6zM32.886 62V45.296h5.496l1.56 6.24.36 7.488h.6l.336-7.488 1.56-6.24h5.472V62h-3.384v-5.184l.648-8.544h-.648l-1.032 8.784L42.438 62h-3.696l-1.416-4.944-1.056-8.784h-.6l.624 8.544V62h-3.408zm22.193.216c-1.744 0-2.984-.336-3.72-1.008-.736-.688-1.12-1.824-1.152-3.408-.016-.72-.032-1.568-.048-2.544v-3c.016-1.024.032-1.96.048-2.808.032-1.328.424-2.384 1.176-3.168.768-.8 2-1.2 3.696-1.2 1.664 0 2.864.336 3.6 1.008.752.672 1.152 1.768 1.2 3.288.016.544.024.968.024 1.272 0 .288-.008.616-.024.984H56.47c.016-.24.024-.464.024-.672v-.816c.016-.336.016-.776 0-1.32a.851.851 0 00-.384-.744c-.256-.176-.6-.264-1.032-.264-.944 0-1.432.336-1.464 1.008a188.638 188.638 0 00-.072 3.264 117.6 117.6 0 000 3.36c.016 1.088.04 2.088.072 3 .032.672.52 1.008 1.464 1.008.464 0 .824-.088 1.08-.264a.895.895 0 00.432-.744c.016-.592.016-1.136 0-1.632v-1.128h3.408v1.056c.016.432.016.784 0 1.056-.048 1.584-.464 2.72-1.248 3.408-.768.672-1.992 1.008-3.672 1.008zm-3.936-20.328h2.304l1.416 1.368 1.416-1.368h2.304l-2.688 2.376H53.83l-2.688-2.376zM61.667 62V45.296h4.464c.448 0 .944.024 1.488.072.56.048 1.096.2 1.608.456s.936.68 1.272 1.272c.352.576.552 1.4.6 2.472.016.288.024.544.024.768v.744c0 .272-.008.648-.024 1.128-.032 1.024-.232 1.824-.6 2.4-.352.56-.784.984-1.296 1.272l2.16 6.12h-3.6l-1.728-5.52h-.96V62h-3.408zm3.408-8.52h1.056c.992 0 1.512-.368 1.56-1.104.048-.528.064-1.04.048-1.536 0-.512-.016-1-.048-1.464a1 1 0 00-.408-.792c-.256-.208-.64-.312-1.152-.312h-1.056v5.208z" fill="#fff" fill-opacity=".7"/>
  <path d="M71.8 27V10.296h4.464c1.072 0 1.96.128 2.664.384.72.256 1.272.696 1.656 1.32.384.608.6 1.464.648 2.568.016.4.024.744.024 1.032.016.288.016.584 0 .888 0 .304-.008.68-.024 1.128-.048 1.104-.264 1.968-.648 2.592-.384.624-.936 1.064-1.656 1.32-.72.24-1.608.36-2.664.36h-1.056V27H71.8zm3.408-8.112h1.056c.992 0 1.512-.368 1.56-1.104.048-.592.064-1.192.048-1.8 0-.608-.016-1.144-.048-1.608a1 1 0 00-.408-.792c-.256-.208-.64-.312-1.152-.312h-1.056v5.616zM82.933 27V10.296h4.464c.448 0 .944.024 1.488.072.56.048 1.096.2 1.608.456s.936.68 1.272 1.272c.352.576.552 1.4.6 2.472.016.288.024.544.024.768v.744c0 .272-.008.648-.024 1.128-.032 1.024-.232 1.824-.6 2.4-.352.56-.784.984-1.296 1.272l2.16 6.12h-3.6L87.3 21.48h-.96V27h-3.408zm3.408-8.52h1.056c.992 0 1.512-.368 1.56-1.104.048-.528.064-1.04.048-1.536 0-.512-.016-1-.048-1.464a1 1 0 00-.408-.792c-.256-.208-.64-.312-1.152-.312H86.34v5.208zM83.845 6.888h2.304l1.416 1.368 1.416-1.368h2.304l-2.688 2.376h-2.064l-2.688-2.376zM94.3 27V10.296h8.016v2.976h-4.608v3.72h4.368v2.976h-4.368v4.056h4.608V27H94.3zm19.375-12.192c.032 1.216.048 2.496.048 3.84 0 1.328-.016 2.6-.048 3.816-.032 1.616-.44 2.776-1.224 3.48-.784.704-2.032 1.056-3.744 1.056h-4.704V10.296h4.704c1.712 0 2.96.352 3.744 1.056.784.688 1.192 1.84 1.224 3.456zm-3.408 8.064c.032-.88.048-1.824.048-2.832.016-1.008.016-2 0-2.976 0-.992-.016-1.88-.048-2.664-.016-.352-.152-.624-.408-.816-.256-.208-.64-.312-1.152-.312h-1.296v10.752h1.296c1.008 0 1.528-.384 1.56-1.152zM120.661 27v-2.832l5.232-10.896h-4.944v-2.976h8.64V13.2l-5.448 10.824h5.064V27h-8.544zm10.36 0l2.616-16.704h5.376L141.629 27h-3.504l-.384-3.288h-2.832L134.525 27h-3.504zm4.224-6.264h2.136l-.432-3.696-.312-3.768h-.648l-.312 3.768-.432 3.696zm.36-11.664V9l2.664-2.088h2.04v.072l-2.88 2.088h-1.824zM145.78 27l-2.712-16.704h3.528l1.392 8.232.24 5.496h.648l.24-5.496 1.392-8.232h3.528L151.3 27h-5.52zm14.846.216c-1.696 0-2.92-.336-3.672-1.008-.752-.688-1.152-1.824-1.2-3.408-.016-.848-.032-1.76-.048-2.736v-2.928c.016-.976.032-1.864.048-2.664.048-1.568.448-2.688 1.2-3.36.752-.688 1.976-1.032 3.672-1.032 1.712 0 2.936.344 3.672 1.032.736.672 1.136 1.8 1.2 3.384.032.8.048 1.68.048 2.64.016.96.016 1.928 0 2.904 0 .976-.016 1.888-.048 2.736-.064 1.6-.464 2.744-1.2 3.432-.736.672-1.96 1.008-3.672 1.008zm0-2.76c.944 0 1.432-.344 1.464-1.032.08-1.584.112-3.192.096-4.824 0-1.648-.032-3.232-.096-4.752-.032-.672-.52-1.008-1.464-1.008s-1.432.328-1.464.984c-.144 3.152-.144 6.36 0 9.624.032.672.52 1.008 1.464 1.008zm16.541-9.648c.032 1.216.048 2.496.048 3.84 0 1.328-.016 2.6-.048 3.816-.032 1.616-.44 2.776-1.224 3.48-.784.704-2.032 1.056-3.744 1.056h-4.704V10.296h4.704c1.712 0 2.96.352 3.744 1.056.784.688 1.192 1.84 1.224 3.456zm-3.408 8.064c.032-.88.048-1.824.048-2.832.016-1.008.016-2 0-2.976 0-.992-.016-1.88-.048-2.664-.016-.352-.152-.624-.408-.816-.256-.208-.64-.312-1.152-.312h-1.296v10.752h1.296c1.008 0 1.528-.384 1.56-1.152zM179.12 27V10.296h8.016v2.976h-4.608v3.72h4.368v2.976h-4.368v4.056h4.608V27h-8.016zm9.703 0V10.296h5.496l1.56 6.24.36 7.488h.6l.336-7.488 1.56-6.24h5.472V27h-3.384v-5.184l.648-8.544h-.648l-1.032 8.784L198.375 27h-3.696l-1.416-4.944-1.056-8.784h-.6l.624 8.544V27h-3.408z" fill="#2C2D84"/>
  <path d="M53.282 128.663c1.4-2.756 2.58-5.118 3.762-7.48a921.994 921.994 0 003.28-6.605c.22-.394.35-.919.7-1.181.307-.219.876-.307 1.226-.175.262.087.48.612.525.962.043.306-.132.612-.307.919-2.668 5.336-5.337 10.717-8.049 16.01-.218.481-.83 1.006-1.268 1.006-.394 0-.963-.612-1.225-1.05-2.669-5.249-5.293-10.542-7.962-15.835-.131-.306-.393-.613-.35-.919.044-.394.263-.962.525-1.137.306-.131.919.044 1.181.306.394.35.569.875.831 1.356 1.969 3.937 3.894 7.83 5.862 11.767.394.569.744 1.094 1.269 2.056zM32.022 497.818c.656-.612 1.18-1.05 1.618-1.487 2.8-2.756 5.556-5.556 8.312-8.312.394-.393.744-.787 1.18-1.093.526-.394 1.226-.657 1.576-.044.218.394.131 1.137-.088 1.618-.175.438-.7.788-1.05 1.182l-9.842 9.842c.35.438.656.875 1.006 1.225 3.062 3.062 6.124 6.124 9.143 9.186.393.394.787.875 1.006 1.4.131.263-.044.875-.306 1.006-.307.175-.875.175-1.225.044-.394-.175-.7-.612-1.006-.919l-8.75-8.749c-.437-.437-.962-.874-1.618-1.531-.787 4.375-2.887 7.612-6.562 9.668-2.712 1.531-5.687 1.968-8.705 1.4-6.037-1.138-10.893-6.474-10.455-13.78.35-5.599 5.118-10.892 10.849-11.592 7.174-.919 13.298 3.106 14.917 10.936zm-23.885 1.794c-.263 5.599 4.506 11.023 10.936 11.067 6.343.044 11.199-5.118 11.243-11.067.043-6.081-5.075-11.199-11.112-11.199-6.911.044-11.548 6.299-11.067 11.199zM53.018 225.383H43.48c-1.706 0-2.187-.219-2.23-1.05-.044-.831.48-1.137 2.1-1.137h20.472c.744 0 1.356.306 1.312 1.137-.043.831-.7 1.05-1.4 1.05H53.019zM53.018 219.783H45.45c-.7 0-1.4-.043-1.4-.962-.043-.919.7-1.05 1.313-1.181.394-.088.787-.044 1.181-.044h13.342a8 8 0 011.75.219c.613.131.962.612.7 1.181-.131.35-.612.7-.962.744-1.05.087-2.1.043-3.194.043h-5.162zM62.16 230.588c-.568.044-1.136.132-1.705.132H45.932c-.35 0-.7.087-.963-.044-.35-.175-.919-.569-.875-.744.088-.437.438-.875.788-1.137.218-.175.656-.088.962-.088h14.698c1.706-.043 1.838.132 1.619 1.881zM53.325 236.319H47.99c-.657 0-1.182-.263-1.225-1.006 0-.744.437-1.05 1.137-1.05H58.4c.656 0 1.181.175 1.181 1.006 0 .787-.438 1.05-1.137 1.05a99.227 99.227 0 00-5.119 0c0-.044 0-.044 0 0zM59.407 212.303c.35 1.181.394 2.012-.83 2.012-3.588.044-7.131 0-10.718.044-.744 0-1.138-.394-1.094-1.094.044-.612.438-.918 1.05-.918 3.85-.044 7.655-.044 11.592-.044zM48.95 369.915c.57-1.05 1.05-1.969 1.663-3.106h-9.011c.218-1.487 5.599-11.548 7.393-13.867.874 1.356 1.75 2.625 2.58 3.937a199.213 199.213 0 012.669 4.243c1.137-1.706 2.143-3.193 3.28-4.987 2.582 4.637 5.031 9.099 7.612 13.78H48.951zM8.75 108.541c7.524 4.331 14.786 8.486 22.397 12.861-7.568 4.374-14.83 8.53-22.135 12.729-.481-1.443-.7-20.56-.262-25.59zm2.056 3.718c-.394 5.731-.219 16.667.306 18.154 5.118-2.931 10.236-5.905 15.617-9.011a5164.43 5164.43 0 01-15.923-9.143zM39.764 189.95c.043-2.45 1.137-4.331 2.974-5.818 2.231-1.838 4.856-2.8 7.612-3.194 4.287-.612 8.486-.175 12.38 1.969 1.575.875 2.93 2.012 3.85 3.631 1.88 3.28.83 7.261-2.67 9.755-1.88 1.356-3.98 2.187-6.21 2.624-4.638.831-9.1.438-13.3-1.881-2.93-1.618-4.636-4.199-4.636-7.086zm2.318 1.093c.481 1.794 1.487 2.756 2.625 3.544 3.543 2.406 7.48 2.974 11.592 2.406 2.406-.35 4.637-1.138 6.562-2.669 1.006-.787 2.012-1.662 2.1-3.281h-5.512c-.7 0-1.531.132-1.706-.875-.131-.743.481-1.268 1.618-1.268 1.181-.044 2.406 0 3.588 0 .7 0 1.356-.044 2.537-.131-.963-1.182-1.531-2.1-2.275-2.756-2.143-1.969-4.812-2.756-7.655-3.062-4.156-.394-8.093.262-11.462 2.974-.918.744-1.793 1.531-1.837 2.975h5.293c.394 0 .919-.088 1.138.131.35.306.743.875.7 1.225-.044.306-.7.744-1.138.787-1.925.044-3.937 0-6.168 0zM276.38 137.675H1.486v2.143H276.38v-2.143zM276.38 172.277H1.486v.831H276.38v-.831zM276.38 206.922H1.486v.832H276.38v-.832zM276.38 275.339H1.486v.831H276.38v-.831zM276.38 309.766H1.486v.831H276.38v-.831zM276.38 377.745H1.486v.831H276.38v-.831zM276.38 412.172H1.486v.831H276.38v-.831zM275.942 240.475H1.049v2.143h274.893v-2.143zM275.942 343.318H1.049v2.144h274.893v-2.144zM275.942 480.983H1.049v2.143h274.893v-2.143zM275.942 446.162H1.049v2.144h274.893v-2.144z" fill="#fff"/>
  <path d="M208.837 104h-2.144v34.506h2.144V104zM106 104h-2v35h2v-35zM106.038 35h-2.143v34h2.143V35zM209.144 35H207v34h2.144V35zM71.13 104.079h-.831v378.172h.831V104.079zM139.546 104.079h-.831v34.427h.831v-34.427zM173.974 104.079h-.831v34.427h.831v-34.427zM242.392 104.079h-.831v34.427h.831v-34.427zM36.7 104.079h-.83v378.172h.83V104.079z" fill="#fff"/>
  <path d="M276.38 103.248H1.486v2.143H276.38v-2.143zM276.38 68.82H1.486v2.144H276.38v-2.143zM276.38 34H1.486v2.144H276.38V34z" fill="#fff"/>
  <path d="M278.306 517.728H0V0h278.306v517.728zM2.1 515.481h274.062V2.247H2.1v513.234z" fill="#fff"/>
  <path d="M49.389 283.869c1.924 3.106 3.587 5.731 5.424 8.662 1.137-1.75 2.187-3.369 3.325-5.118 2.668 4.768 5.249 9.405 7.917 14.26H49.301c.481-.962.919-1.881 1.531-3.062h-9.58c2.8-5.03 5.38-9.755 8.136-14.742zM61.899 337.763c-.657-.832-1.444-1.444-1.444-1.969.044-.525.875-1.05 1.4-1.531.525.525 1.4 1.006 1.487 1.619.132.393-.743 1.049-1.443 1.881zM51.182 326.958c1.006-.744 1.662-1.531 2.056-1.444.568.175 1.356 1.006 1.356 1.487 0 .525-.831 1.269-1.444 1.444-.393.088-1.006-.7-1.968-1.487zM57.7 329.058c.656 1.137 1.356 1.793 1.269 2.362-.087.568-.919 1.006-1.4 1.487-.394-.525-1.094-1.05-1.137-1.618-.044-.525.612-1.094 1.268-2.231zM51.137 322.933c-1.137.613-1.793 1.225-2.23 1.138-.525-.132-1.27-.963-1.225-1.4.087-.569.83-1.356 1.356-1.4.437-.044 1.006.787 2.1 1.662zM46.153 318.734c-.526.35-1.138 1.006-1.62.918-.524-.087-1.18-.787-1.311-1.356-.088-.35.7-1.181 1.18-1.224.526-.088 1.138.481 1.707.743.044.35.044.656.044.919zM46.85 387.763c.7.481 1.575.831 2.056 1.487 1.794 2.45 3.894 3.762 7.13 3.631 3.194-.131 4.288 2.319 2.538 5.031-.394.612-.962 1.093-1.269 1.706-.35.743-.48 1.618-.7 2.406.788-.175 1.663-.219 2.406-.525.657-.263 1.138-.875 1.75-1.269 1.531-.962 3.15-1.05 4.55.175 1.312 1.181 1.093 2.625.35 4.068-.657 1.313-1.181 2.713-1.794 4.025-.131.306-.656.612-.918.569-.35-.088-.92-.569-.875-.832.13-1.093.306-2.187.7-3.149.35-.875 1.093-1.619 1.574-2.362-.918-1.663-1.925-1.225-2.974-.394-.788.612-1.531 1.225-2.406 1.662-1.313.656-2.581.656-3.762-.568-1.138-1.138-1.05-2.363-.438-3.588.525-1.006 1.4-1.881 2.012-2.843.263-.394.657-1.094.525-1.312-.262-.438-.962-.919-1.4-.831-3.937.699-6.386-1.532-8.617-4.156-.525-.613-.744-1.487-1.138-2.231.22-.263.438-.481.7-.7z" fill="#fff"/>
  <path d="M46.063 393.756c-3.455.306-6.124-2.275-6.08-5.381.087-4.155 2.93-6.605 6.693-6.693 3.15-.043 5.774 2.713 5.38 5.906-.83-.7-1.487-1.181-2.1-1.75-1.18-1.181-2.318-2.318-4.155-1.968-2.012.393-3.368 1.618-3.587 3.63-.087 1.007.394 2.188.919 3.106.7 1.05 1.75 1.881 2.93 3.15zM43.744 416.679h6.386c.044.393.088.962.088 1.531 0 7.392-.044 14.742.044 22.134.044 1.925-.744 2.494-2.45 2.319-1.356-.175-2.975.656-4.156-1.619 1.575-.175 2.975-.35 4.462-.525v-22.047c-1.225-.656-3.324.656-4.374-1.793zM55.51 416.372c1.793 0 3.324-.044 4.855.044.438.044.875.525 1.313.831-.394.35-.788.962-1.225 1.006-.875.175-1.837.044-2.975.044V440.738c1.094 0 2.1-.088 3.019.044.393.043.743.481 1.137.743-.306.35-.569 1.05-.919 1.05-1.443.131-2.93.131-4.374 0-.306-.044-.788-.744-.788-1.137-.043-8.268-.043-16.536-.043-25.066zM47.9 260.028c0-3.193 2.013-5.205 5.25-5.205 3.28 0 5.468 2.143 5.468 5.337 0 3.106-2.406 5.424-5.643 5.38-2.975 0-5.075-2.274-5.075-5.512zM47.507 149.311c.832 1.006 1.706 1.837 2.275 2.843.35.613.306 1.488.394 2.231-.656-.218-1.444-.306-1.881-.7-.963-.875-1.706-1.968-2.625-3.062-2.537 3.019-4.068 6.124-3.28 10.105 1.486-.306 2.93-.568 4.68-.918-.306 3.149-3.062 2.099-4.506 3.412.481 1.093 1.094 2.318 1.531 3.674.219.613 0 1.356 0 2.056-.525-.306-1.312-.481-1.575-.962-4.593-7.743-2.756-18.548 6.606-21.654 8.53-2.843 16.842 3.719 17.017 12.292.087 3.369-.656 6.518-2.319 9.406-.306.525-1.006.874-1.53 1.268-.22-.175-.438-.306-.657-.481.656-1.925 1.269-3.85 1.968-5.906-1.268-.393-2.405-.656-3.455-1.093-.438-.175-.744-.744-1.094-1.094.525-.262 1.094-.831 1.575-.743 1.137.131 2.23.524 3.368.831.656-4.112-.569-7.393-3.587-10.018-1.531 1.138-1.88 3.631-4.418 3.981-.613-2.625 1.968-3.456 2.537-5.293-1.356-2.056-6.912-2.712-11.024-.175zM53.762 473.459c-4.068.174-7.743-.788-11.024-3.325-4.2-3.325-4.33-8.968.044-11.986 3.937-2.712 8.312-3.85 13.167-3.106 3.019.481 5.775 1.225 8.312 3.018 4.243 3.019 4.55 9.405-.35 12.555-3.062 2.056-6.43 3.106-10.149 2.844zm-1.925-1.838c5.381-.087 8.837-.962 11.855-3.587 3.019-2.581 2.056-6.387-.612-8.268-5.556-3.893-13.342-4.068-18.854 0-3.719 2.756-3.5 6.475.306 9.099 2.756 1.838 5.643 2.8 7.305 2.756z" fill="#fff"/>
</svg>
