<svg width="138" height="104" fill="none" xmlns="http://www.w3.org/2000/svg">
  <path d="M118.819 40.03c1.497-.452 3.069-.653 4.551-1.154 3.683-1.328 6.676.655 8.451 3.114.38.539.745 1.027 1.076 1.581l.406 1.348c-.21.39.011.758.066 1.123.208 2.495-.518 4.783-1.654 6.976-.368.764-.992 1.224-1.84 1.48-2.995.902-5.974 1.855-8.953 2.807-.849.255-1.262.87-1.531 1.604-.552 1.419-1.22 2.817-1.707 4.27-.523 1.519-1.54 2.479-2.992 3.08-1.018.415-2.036.83-3.064 1.032-.27-.354-.654-.184-.939-.044-.184.11-.434.186-.633.246-.869.37-1.792.376-2.721.547-.813.191-1.722.247-2.55.388-.1.03-.215.01-.26-.14-.04-.314-.116-.564-.106-.893a18.824 18.824 0 00-.449-3.838c-.261-1.228-1.071-2.29-1.347-3.568-.061-.2-.32-.34-.146-.664.205.32.48.509.635.843.25.469.859.503 1.203.018.155-.21.404-.285.584-.23.31.124.579-.066.859-.041.744-.06 1.207-.69 1.921-.851.664-.146 1.358-.191 2.006-.387 1.777-.427 3.494-1.053 5.24-1.58.4-.12.654-.36.813-.734.135-.095.335-.155.404-.285.374-.93.647-1.828.296-2.811-.41-1.183-.736-2.445-1.112-3.693-.432-1.612-.499-3.28-1.479-4.726-.096-.678-.735-.812-1.135-1.236.359-.435.054-.724-.236-.963-.08-.085-.259-.14-.19-.27.07-.13.185-.11.3-.09.344.06.689.119 1.053.064.315-.04.564-.116.889.058.779.419 1.228.283 1.452-.6.278-1.064 1.057-1.19 1.871-1.38.379-.006.853.123.968-.401z" fill="#E1E1E1" fill-opacity=".6"/>
  <path d="M93.927 39.802c.25-.075.434-.185.683-.26.495.014.765.368 1.17.627 1.533 1.116 2.18 2.718 2.376 4.455.232 1.672.349 3.324.565 4.946.328 2.351 1.07 4.632 1.811 6.912.366 1.033.866 1.971 1.282 2.989.37.868.99 1.661 1.161 2.59.045.149.106.349.186.433.354.275.07.415-.134.64-.136-.45-.371-.869-.77-.748-.634.245-1.188.031-1.812-.053-.345-.06-.375-.16-.301-.454.075-.294.134-.639-.325-.718l-.03-.1c-.17-.384-.041-.859-.53-1.038-.09-.3-.23-.584-.336-.933-.216-.534-.131-1.158-.631-1.552-.196-.648-.456-1.332-.652-1.98a1.27 1.27 0 00-.18-.6l-.105-.349-.076-.25c-.255-.848-.476-1.761-.732-2.61.29-.304 0-.543-.075-.793-.086-.464-.236-.963-.322-1.427.26-.405-.046-.694-.15-1.044-.121-.399-.192-.813-.312-1.212.125-.31.08-.46-.3-.454-.43.02-.779.126-1.113.28-.37.221-.459.466-.204.77.06.2.07.414.13.614-.248.62.032 1.188.048 1.782.025.264.016.594.34.768.026.265.1.514.126.779-.3.09-.24.29-.179.49l1.805 5.988c.075.25.185.434.484.343l.106.35c-.134.639.28 1.113.396 1.677.04.314.376.703-.124.854-.349.105-.778.125-1.113-.264-.51-.608-.82-1.277-1.031-1.975-.667-2.031-1.233-4.092-1.9-6.123-.06-.2-.035-.48-.33-.554-.03-.1.005-.165-.025-.264.2-.06.334-.156.259-.405-.46-1.168-.308-2.466-.818-3.618-.11-.185-.05-.53-.385-.374-.115-.02-.23-.04-.295-.075l-.015-.05.015.05c-.05.015-.135.095-.184.11-.225-.204-.375-.159-.45.136-.05.015-.164-.005-.214.01l-.015-.05.015.05c-.085.08-.12.145-.205.225-.464.085-.144.424-.099.574.261 1.228.122 1.487-.841 1.723-.35.106-.53.05-.65-.348l-.36-1.198c-.061-.2-.106-.35-.336-.389-.919-.158-1.582.531-1.326 1.38l.075.25c.036.478.056.908.092 1.387-.44.35-1.023.58-1.547.466-.51-.064-.326-.718-.546-1.088l-.015-.05-.24-.798c-.06-.2-.101-.514-.415-.474-.315.04-.86.041-.919.386-.134.64-.303 1.343.058 1.997-.235.125-.14.26-.03.444.015.05-.02.115-.02.115-.299.09-.613.13-.913.22-.798.241-.798.241-1.039-.557l-.27-.898-.151-.5c.085-.08.07-.13.04-.229-.175-.22-.335-.389-.62-.249-.334.155-.858.041-.923.55-.079.46-.058.89.162 1.258l.045.15c-.215.01-.22.175-.175.325.061.743-.123.854-.987 1.06-.614.13-.684-.284-.805-.684l-.27-.898c-.221-.913-.286-.948-1.17-.627-.299.09-.453.3-.463.63-.014.493-.028.988-.058 1.432-.014 1.038-.014 1.038-.962 1.324-.648.196-.908.056-.954-.638-.066-.579-.066-1.123-.282-1.657-.045-.15-.105-.349-.22-.369-.43.02-.908.056-1.248.376-.204.225-.283.684.022.974.015.05.045.15.01.214-.17.16-.16.375-.15.59-.078 1.003-.232 1.213-.966 1.488-.449.136-.694.046-.844-.453-.15-.499-.101-1.058-.202-1.572-.04-.314-.06-.744-.59-.693-.678.096-1.117.446-1.097.875.016.594-.018 1.203-.053 1.812-.034.61-.692 1.134-1.316 1.05-.23-.04-.275-.19-.32-.339-.116-.564-.431-1.068-.297-1.707.114-.524-.225-.748-.675-.613l-.2.06c-.504-.229-.758.011-.788.455-.064.51-.178 1.034.037 1.568.026.264.05.529.061.744-.344.484-.768.884-1.447.98-.264.025-.444-.03-.519-.279-.115-.564-.396-1.133-.312-1.757.079-1.003-.246-1.178-1.164-.792-.334.155-.424.4-.433.73-.015.494-.11.903-.009 1.417.141.829-.048 1.103-.817 1.444a.967.967 0 00-.319.205c-.439.35-.668.31-.849-.288-.195-.65-.011-1.303-.107-1.982-.091-.844-.301-.998-1.084-.708-.534.216-.449.68-.508 1.024-.04.23.035.48-.02.66-.323.913-.132 1.727.188 2.61l.06.2.016.05.015.05c.03.1.025.264.055.364-.17.16-.14.26.09.3.015.049.065.034.08.084.145.12.245.09.38-.006l.25-.075c.428-.02.438-.35.448-.68-.026-.264-.001-.544.313-.584.365-.055.774-.505 1.104.049.782 2.595 1.564 5.19 2.296 7.8.12.399.295.618.73.433.349-.105.509.064.684.284.45.408.58 1.022.83 1.491-.15.045-.22.175-.124.31.185.434-.034.609-.449.68-.15.044-.349.105-.534.215-.234.125-.449.135-.594.015-.37-.324-.74-.648-1.024-1.052a25.467 25.467 0 01-.956-1.726c-.25-.469-.645-.513-1.129-.313s-.478.58-.373.93c.12.398.34.768.545 1.087.33.553.626 1.172.921 1.79.125.235.07.415-.294.47-.793.076-1.681.562-1.958-.716 0 0-.015-.05-.065-.035-.594-.528-.97-1.232-1.28-1.9-.295-.619-1.18-.842-1.688-.362-.204.225-.294.47.13.614.06.2.17.384.231.583-.01.33.066.58.425.689l.06.2c-.01.329.066.578.426.688l.06.2c-.285.14-.11.359-.114.523.045.15.09.3-.015.495-.359.434-1.257.705-1.761.476-.226-.748-.94-1.132-1.266-1.85-.185-.434-.455-.788-.725-1.142-.365-.49-.775-.584-1.264-.218-.454.3-.119.688.037 1.023.185.434.57.808.82 1.277.235.419.55.923.371 1.412-.268.734-1.442.816-1.902.192-.27-.354-.525-.658-.76-1.077-.345-.604-.705-1.257-1.22-1.7-.37-.325-.725-.6-.81-1.063-.015-.05-.03-.1.02-.115.349-.105.648-.196 1.013-.251.464-.085.668-.31.518-.81-.18-.598-.554-.213-.854-.123-.3.09-.549.165-.863.206-.216-.534.154-.754.538-.924.234-.126.564-.116.768-.341.324-.37.45-.135.475.13 0 .543.32.882.555 1.301.346.604.925.538 1.288-.061.344-.485.194-.984.043-1.483-.12-.399-.485-.888-.18-1.143.403-.285.853.124 1.208.398.645.513 1.464.702 2.163 1.036l.015.05c.565.428 1.493.257 1.892-.407.05-.015.035-.065.084-.08.2-.06.205-.225.16-.375.07-.13.09-.244.159-.374.135-.095.17-.16.124-.31.759-.555.832-1.394 1.006-2.263.114-.524.044-.938-.495-1.102-.475-.13-1.178.246-1.243.755-.139.804-.487 1.453-.82 2.153-.105.195-.21.39-.44.35-.23-.04-.41-.095-.484-.344-.126-.235.029-.445.214-.555.503-.315.598-.724.298-1.178-.285-.404-.725-.598-1.209-.398-.833.306-1.597.481-2.461.143-.015-.05-.065-.035-.08-.085-.065-.035-.115-.02-.18-.054-.05.014-.05.015-.115-.02-.195-.105-.394-.045-.499.15-.05.015-.1.03-.084.08-.035.065-.085.08-.12.145-.215.01-.38.005-.594.016-.26-.14-.445-.03-.649.195-.05.015-.05.015-.085.08-.17.16-.399.12-.599.18-.758.012-.963.237-.802.95.06.2.105.35.115.564.04.315-.049.56-.398.665-1.732.576-3.494 1.052-5.342.52-.065-.034-.114-.02-.13-.07-.064-.034-.114-.019-.18-.054a.392.392 0 00-.424-.144 4.768 4.768 0 01-.804-.139c-.325-.174-.51-.064-.619.296-.293.47-.208.933.227 1.292.275.19.335.39.275.734-.099.574-.233 1.213.062 1.832.236.419.5.938.98.902.629-.08 1.253.004 1.887-.242.883-.32 1.831-.606 2.745-.827.648-.196 1.053.063 1.149.742.025.265.05.53.226.749.55.923 1.32 1.67 1.97 2.563.285.404.156.879-.328 1.079-.435.185-.804.405-1.298.391-.385-.374-.77-.748-1.105-1.137-.735-.813-1.3-1.785-1.95-2.678-.27-.354-.565-.429-.934-.209-.354.27-.149.59.041.859.57.808 1.155 1.666 1.675 2.489.01.215.09.3.32.339.08.085.175.22.206.32.065.034.08.084.145.119.11.184.17.384.28.569-.194.44-.564.66-.968.944-.673.475-.953.45-1.478-.207-.43-.524-.86-1.048-1.46-1.411a1.442 1.442 0 00-.344-.604c-1.32-1.67-2.421-3.516-3.087-5.547-.637-1.931-.545-3.973-.387-5.98.167-1.793.27-3.62.602-5.408.04-.23.1-.574-.195-.648-.295-.075-.58.065-.704.375s-.234.67-.358.979c-.597 1.813-.685 3.69-.722 5.552-.019 1.203-.102 2.371.244 3.52l.075.249c-.124.31-.014.494.16.713l.106.35c-.125.31-.15.589.24.798l.166.549c-.025.28 0 .544.26.684l.106.349c.075.25.05.529.395.589l.06.2c.055.364.195.648.4.967.93 1.462 1.946 2.843 3.026 4.26.16.17.3.453.096.678-.14.26-.42.236-.699.21-.394-.044-.67-.233-.994-.407-.584-.314-.79-1.177-1.619-1.036-.05.015-.095-.135-.11-.185-.025-.265-.27-.354-.43-.524-.37-.324-.74-.648-.974-1.067-.266-.519-.58-1.022-1.03-1.431-.697-2.131-1.429-4.197-1.561-6.443-.123-2.032.25-4.049.407-6.056.063-1.053.406-2.082.88-3.041.752-1.479 1.854-2.519 3.436-3.05.933-.336 1.866-.671 2.83-.907 13.185-3.756 26.42-7.527 39.59-11.333 1.647-.496 3.404-.808 4.976-1.554 1.187-.575 2.17-1.47 3.372-1.996.769-.34 1.522-.73 2.29-1.071.3-.09.385-.17.42-.235zM45.73 64.669c.286.948.63 1.008 1.359.353.304-.255.408-.45.338-.864a3.63 3.63 0 01.014-1.039c.138-1.348-.119-2.74.07-4.103.044-.395-.216-.534-.545-.544-.61-.034-.819.356-.892 1.194-.064 1.054-.228 2.137-.391 3.22-.069.675-.118 1.234.047 1.783zm8.87-1.639c.314-.04.584-.23.593-.56.004-.708-.041-1.402-.037-2.111-.041-.859-.117-1.652-.108-2.526-.031-.644-.126-.779-.755-.698-.514.1-.723.49-.753.934-.138 1.349-.211 2.731-.12 4.12.076.793.431 1.067 1.18.841zm-12.732 2.912c.075.25.155.334.4.424.574.099.948-.286.952-.995-.016-.594.018-1.203.102-1.827.139-1.348.077-2.636.33-3.964.04-.23.03-.445-.215-.534-.245-.09-.51-.064-.65.195-.119.145-.173.325-.228.505-.209.934-.432 1.818-.576 2.786-.213 1.099-.197 2.237-.115 3.41zm7.904-2.491c.056.364.28.569.695.498.364-.055.649-.195.678-.64-.022-1.517.022-3 0-4.518-.026-.264.084-.624-.296-.618-.379.005-.663.145-.743.605-.089.789-.277 1.608-.301 2.431-.154.754-.093 1.498-.032 2.242z" fill="#C1C1C1"/>
  <path d="M56.052 70.377c-.41-.094-.385-.374-.13-.614.508-.48 1.377-.306 1.687.362.326.719.686 1.372 1.28 1.9l.066.036c.276 1.277 1.164.792 1.958.716.314-.04.419-.235.293-.47-.295-.618-.59-1.237-.92-1.79-.22-.37-.426-.689-.546-1.088-.105-.35-.11-.729.373-.93.484-.2.879-.155 1.13.314.294.619.625 1.172.955 1.726.3.454.655.728 1.024 1.052.145.12.375.16.595-.016.134-.095.319-.205.533-.215.415-.07.634-.245.449-.68-.045-.15.04-.23.124-.31.38.54.746 1.028 1.026 1.597.185.434.584.314.919.159.384-.17.359-.435.203-.77-.125-.234-.4-.423-.39-.753.15-.045.265-.025.444.03.705.168 1.378-.307 1.477-.88.025-.28-.285-.405-.26-.684.38-.006.42.308.544.543.136.449.42.853.656 1.272.345.604.784.254 1.233.118.45-.135.23-.504.14-.804-.046-.15-.206-.319-.3-.453-.201-.485-.72-.763-.886-1.312.115.02.264-.026.36.11.345.603.854.667 1.518.521.414-.07.499-.15.379-.55-.076-.249-.216-.533.053-.723.396.588.826 1.112 1.021 1.76.105.35.345.604.794.469.764-.176.889-.485.498-1.239-.265-.519-.75-.862-.93-1.461.374.16.614.413.785.798.125.234.38.538.58.478.383-.17.858-.041 1.117-.446.07-.13.04-.23.01-.33l-.512-1.696c-.12-.4-.445-.573-.894-.438-.584.23-1.148.346-1.746.526-.225-.204-.026-.264.124-.31l1.846-.556c.2-.06.345.06.525.114.454.244.854.124 1.033-.365.09-.245.289-.305.489-.365l1.597-.482c.25-.075.429-.02.654.184.4.424.849.289 1.048-.316.054-.18.124-.31.354-.27-.18.49.24.799.396 1.133-.115-.02-.23-.04-.33-.01-.314.04-.874-.008-.853.42.126.78.267 1.608.876 2.186.32.34.77.204 1.089-.001.369-.22.229-.505.089-.789-.205-.32-.46-.623-.466-1.003.115.02.18.055.26.14.335.389.69.663 1.243.333.504-.316.664-.69.448-1.224-.045-.15-.09-.3-.07-.414.28.024.29.239.35.438.135.45.305.834.54 1.253.266.519.725.598 1.279.268.519-.265.364-.6.129-1.019-.206-.319-.46-.623-.466-1.002.2-.06.26.139.34.224.404.259.819.188 1.188-.032.234-.125.504-.315.413-.614-.39-1.298-.241-1.887-1.808-1.306l-.1.03c-.63.08-.754.39-.488.91-.544 0-1.009.085-1.448.435l-.33-.553c.5-.15 1.283.103 1.342-.786-.015-.05.235-.125.334-.155l.899-.27c.449-.136.833-.306 1.368.023.34.224.774.038.903-.436.055-.18.11-.36.309-.42.599-.18 1.203-.525 1.842-.391.999.243 1.632-.547 2.43-.787.25-.075.174-.325.13-.475l-.602-1.996c-.06-.2-.236-.419.064-.509l.812 2.695c.12.399.046.694-.403.829-.3.09-.354.27-.264.57l.165.548c-.05.015-.165-.005-.165-.005-.285-.404-.654-.183-.938-.043-.334.155-.23.504-.09.789.136.449.356.818.492 1.267.15.5.43.524.814.353.384-.17.733-.275.568-.824-.09-.3-.495-.558-.336-.933.145.12.34.224.435.359.345.603.764.368 1.149.198.384-.17.379-.55.273-.899-.03-.1-.075-.25.06-.344.305.289.325.718.43 1.067.2.484.575.644 1.194.348.434-.185.673-.475.408-.994-.125-.234-.2-.484-.31-.668-.75-1.407-1.267-2.939-1.833-4.456-.566-1.517-1.032-3.064-1.184-4.651.295.074.27.354.33.554.617 2.046 1.184 4.107 1.9 6.123.21.698.586 1.402 1.03 1.975.336.39.715.384 1.114.263.5-.15.165-.54.124-.853-.065-.58-.48-1.053-.396-1.677.485.888.87 1.806 1.191 2.689.186.434.326.718.89.603.848-.256.933-.336.787-1 .51.065.385.374.326.719-.075.294-.045.394.3.454.624.084 1.163.248 1.812.052.399-.12.619.25.77.748.204-.225.504-.315.134-.639-.13-.07-.19-.27-.185-.434-.186-.978-.791-1.721-1.162-2.59-.465-1.002-.966-1.94-1.282-2.988-.741-2.28-1.483-4.561-1.81-6.912-.232-1.672-.349-3.324-.566-4.947-.261-1.771-.842-3.338-2.377-4.454-.354-.275-.674-.614-1.168-.628.438-.35 1.047-.316 1.562-.416 2.844-.858 5.639-1.7 8.499-2.507 2.211-.612 4.343-.22 6.167 1.135.984.738 1.884 1.555 2.833 2.358.725.598 1.509.852 2.457.566.914-.221 1.777-.427 2.69-.648-.114.525-.588.396-.937.5-.814.192-1.628.382-1.871 1.381-.224.884-.623 1.004-1.452.601-.325-.174-.559-.05-.889-.059-.314.04-.724-.054-1.053-.063-.115-.02-.295-.075-.3.09-.054.18.11.184.19.27.305.288.595.528.236.962-.03-.1-.06-.2-.21-.154 0 0-.05.015-.035.065.046.15.145.12.245.09.4.423 1.039.557 1.135 1.236-.1.03-.25.075-.345-.06-.745-1.027-1.754-1.485-2.982-1.224-.663.146-.798.24-1.901.736-.674-.069-1.262.327-1.891.407-.609-.034-1.178.246-1.742.362-.315.04-.724-.054-.884.32l-.998.301c-.299.09-.743.061-.873.536-.254.24-.703.375-.828.685-.368.764-.557 1.583-.301 2.431.762 2.71 1.639 5.44 2.401 8.15.271.898 2.304 1.863 3.003 1.653 1.397-.421 2.805-.628 4.217-.999 1.697-.511 3.519-.788 5.08-1.749a1.209 1.209 0 01-.813.735c-1.746.527-3.478 1.103-5.24 1.58-.664.145-1.357.19-2.006.386-.714.161-1.177.79-1.921.851-.265.026-.534.216-.859.041-.195-.104-.444-.029-.584.23-.344.485-.938.501-1.203-.018-.155-.334-.43-.523-.635-.842-.174.324.085.464.146.663.276 1.278 1.071 2.29 1.347 3.568s.437 2.536.449 3.838c-.025.28.066.58.106.894.045.15.095.135.26.14.828-.142 1.737-.198 2.55-.388.914-.221 1.852-.177 2.721-.548.199-.06.434-.185.633-.245.285-.14.669-.31.939.043l-7.441 2.406c-.499.15-1.048.316-1.607.267.599-.18 1.118-.446 1.352-1.115.179-.49-.161-.714-.301-.998-.205-.32-.35.105-.579.065-.165-.004-.4.12-.564.116-1.004-.079-1.942.422-2.99.193-.82-.188-1.748-.017-2.607.024-.858.04-1.777-.118-2.425.622-.12.145-.42.235-.599.18-.425-.144-.809.026-1.208.146l-5.74 1.73c-.299.09-.598.18-.908.056a.565.565 0 00-.549.166c-.259.404-.723.49-1.102.495-.545 0-.964.236-1.448.436-1.232.426-2.4.887-3.693 1.113-.414.07-.938-.043-1.277.276-1.013.796-2.236.892-3.364 1.123-.464.085-.893.65-1.477.336-.429.565-1.153.511-1.737.741-1.232.426-2.62.518-3.717 1.393l-.1.03c-.55.165-1.058.101-1.608.267l-3.144.947-4.092 1.234c-1.148.345-2.406.507-3.383 1.237-.185.11-.47.25-.714.16-.31-.124-.56-.049-.779.126-.922.55-1.936.801-2.934 1.102l-1.746.527c-.2.06-.415.07-.325.37.046.15-.109.36.136.449.18.054.284-.14.419-.236.22-.175.394.045.604.2-.284.14-.584.23-.883.32-.285.14-.744.06-.903.435-1.402.586-2.726.169-3.89-.624-1.084-.707-1.914-1.655-2.844-2.572-1.474-1.46-2.814-3.017-3.65-4.888-.11-.184-.17-.384-.23-.583.449.408.764.912 1.03 1.431.25.469.57.808.974 1.067.21.155.405.26.43.524.015.05.11.184.11.184.844-.09 1.084.708 1.62 1.037.324.174.599.363.993.408.295.074.51.064.699-.21.14-.26.014-.495-.096-.68-1.065-1.366-2.08-2.748-3.026-4.26-.19-.268-.395-.588-.4-.967.23.04.325.174.385.374.42.853.99 1.661 1.545 2.42 1.046 1.48 2.36 2.772 3.575 4.093.32.34.764.368.988.029.225-.34.02-.66-.32-.883a7.491 7.491 0 01-1.274-.977c-.56-.594-1.205-1.107-1.495-1.89.6.363 1.03.887 1.46 1.41.524.659.804.683 1.477.208.404-.285.773-.505.968-.944.184-.11.264-.026.424.144.255.304.525.658.78.962.255.305.6.364.889.06.204-.226.279-.52-.026-.81-.305-.289-.475-.673-.73-.977.494.014.848-.256 1.297-.391.484-.2.614-.675.329-1.079-.636-.843-1.42-1.64-1.97-2.563-.126-.235-.151-.5-.226-.749-.096-.679-.5-.938-1.15-.742-.898.27-1.861.506-2.744.827-.634.245-1.258.161-1.887.242-.53.05-.745-.483-.98-.902-.295-.619-.196-1.193-.062-1.832.06-.345 0-.544-.275-.734-.435-.359-.52-.823-.227-1.293.066.58.506.774.945.968.684.283.684.283.256.848-.035.065-.07.13-.155.21-.279.52-.428 1.109-.048 1.647.445.574.985.738 1.733.512l1.398-.42c.35-.106.683-.261.563-.66-.135-.45-.534-.33-.849-.289-.464.086-.898.27-1.348.406-.249.075-.564.116-.654-.184-.09-.3.114-.524.364-.6l.549-.165 5.29-1.594c.848-.256 1.247-.92.976-1.818-.15-.5-.236-.963-.536-1.417.215-.01.445.03.6-.18l.074.249c.127 1.323.718 2.56 1.059 3.872.09.3.35.44.714.384.25-.076.434-.186.344-.485-.57-1.352-.508-2.95-1.393-4.261.214-.01.38-.006.594-.016.14.284.245.633.52.823l3.148 2.317c.21.155.52.28.56.594-.7-.334-1.518-.523-2.163-1.036-.355-.274-.805-.683-1.209-.398-.304.255.076.794.181 1.143.15.5.286.948-.043 1.483-.378.55-.893.65-1.288.061-.235-.419-.555-.758-.555-1.302.024-.28-.166-.549-.475-.13-.19.276-.534.216-.768.341-.37.22-.754.39-.538.925-.185.11-.365.055-.425-.145-.045-.15-.19-.269-.39-.209-.2.06-.154.21-.159.375-.01.33-.194.44-.458.465.024-.28.103-.74-.261-.684-.729.11-1.462.386-2.161.597.52.279.974.523 1.523.357-.134.64-.054.724.61.579.35-.106.654-.36 1.038.013.56.594.595.529.914-.22.1.514.44.738.81 1.062.515.443.875 1.097 1.22 1.7.22.37.49.724.76 1.078.51.608 1.633.542 1.902-.192.18-.49-.12-.944-.371-1.412-.235-.42-.57-.809-.82-1.278-.14-.284-.475-.673-.037-1.023.44-.35.899-.27 1.264.218.27.354.555.758.725 1.142.31.67 1.04 1.102 1.266 1.851-1.005-.623-1.47-1.626-2.07-2.533-.19-.27-.246-.634-.68-.449-.434.185-.13.475-.054.724.03.1.11.185.14.284l2.13 3.278c.221.369.53.493.9.273.369-.22.229-.504.139-.804-.14-.284-.45-.409-.505-.773.504.229 1.417.008 1.761-.477.12-.144.075-.294.015-.494s-.236-.419.114-.524c.245.09.32.339.445.574.22.369.49.723.71 1.092.3.454.77.203 1.054.063.369-.22.114-.524-.061-.743-.806-1.227-1.745-2.36-2.451-3.617-.14-.284-.355-.274-.62-.248-.554-.214-.658-.02-.633.245zm21.233-3.786c-.264.025-.29-.24-.435-.359-.305-.289-.669-.234-1.003-.079-.335.156-.144.425-.07.674.146.664.591 1.238.921 1.791.25.47.7.334 1.084.164.434-.185.294-.47.204-.77-.116-.563-.6-.907-.7-1.421.344.06.569.264.674.613.09.3.3.454.565.429.314-.04.583-.23.853-.42.22-.176.03-.445-.031-.645-.03-.1-.025-.264-.055-.364-.147-1.208-.566-1.517-1.744-1.27l-.2.06c-.664.145-.823.52-.408.993a.83.83 0 01.345.604zm-28.854 6.137c.045.15.09.3.186.434.83 1.492 1.965 2.728 3.015 4.045.19.27.65.349.904.109s.084-.624-.126-.779c-.775-.583-1.045-1.481-1.685-2.16-.56-.593-.95-1.346-1.44-2.07-.19-.269-.47-.293-.77-.203-.334.155-.159.375-.084.624zm11.619-3.175c.62.793.966 1.941 1.63 2.884.256.304.341.768.696 1.042.37.324.684.284 1.024-.036.389-.335.084-.624-.141-.829-.835-.782-1.365-1.82-2.016-2.713-.19-.27-.21-.698-.535-.873-.21-.154-.394-.044-.594.016-.2.06-.14.26-.064.51zm29.16-5.303c.358-.435.567-.825.982-.895.05-.015.134-.095.154-.21.199-.605-.216-1.078-.466-1.547-.205-.32-.494-.014-.71-.004-.314.04-.598.18-.897.27-.45.136-.44.35-.184.655.365.488 1.014.837 1.12 1.73zm-2.233-.362c.2.484.386.918.586 1.402.25.469.65.349 1.049.228.3-.09.698-.21.498-.694a20.228 20.228 0 00-.846-1.542c-.315-.504-.749-.318-1.133-.148-.549.165-.13.474-.154.754z" fill="#D1D1D1"/>
  <path d="M48.05 84.11c.208-.389.618-.295.902-.435.285-.14.6-.18.884-.32-.21-.155-.385-.374-.605-.2-.135.096-.24.29-.419.236-.195-.105-.09-.3-.135-.45-.075-.249.174-.324.324-.37l1.747-.525c.998-.301 2.01-.552 2.934-1.103.234-.125.484-.2.778-.125.245.09.545-.001.714-.16 1.028-.746 2.236-.892 3.383-1.238l4.093-1.234 3.144-.947c.499-.15 1.073-.051 1.607-.267l.1-.03c1.112-.825 2.5-.916 3.718-1.392.583-.23 1.307-.177 1.736-.741.585.313 1.013-.251 1.477-.337 1.128-.23 2.401-.342 3.364-1.122.354-.27.863-.206 1.278-.276 1.292-.227 2.525-.653 3.693-1.113.484-.2.903-.436 1.447-.436.38-.006.844-.092 1.103-.496.104-.195.369-.22.549-.166.31.125.609.035.908-.056l5.74-1.73c.399-.12.783-.29 1.207-.145.18.054.48-.036.6-.181.697-.755 1.566-.581 2.425-.622.859-.041 1.787-.212 2.606-.023 1.049.228 1.987-.272 2.99-.194.165.005.349-.105.564-.116.215-.01.359-.434.579-.065.14.284.48.509.301.998-.234.67-.753.934-1.352 1.115-.728.11-1.507.237-2.251.297l-.015-.05-.1.03c-.878.156-1.767.098-2.62-.026-.675-.07-1.304.011-1.968.157-3.638.933-7.251 2.131-10.86 3.164-11.972 3.445-23.93 6.94-35.902 10.384-.15.046-.3.09-.415.07-.08-.084-.13-.069-.15.046.046.15-.054.18-.104.195z" fill="#C1C1C1"/>
  <path d="M93.926 39.802c-.07.13-.17.16-.285.14.07-.13.17-.16.285-.14zM48.25 84.05c.035-.065.085-.08.15-.045l-.15.045zM100.215 70.241l.099-.03.015.05s-.064-.035-.114-.02z" fill="#D1D1D1"/>
  <path d="M108.74 44.156c.499-.15 1.132-.396 1.796-.541 1.243-.212 2.237.197 2.982 1.224.095.135.245.09.345.06.93 1.46 1.047 3.113 1.478 4.725.327 1.263.687 2.46 1.113 3.693.366 1.033.093 1.932-.296 2.81-.07.13-.269.19-.404.286-1.561.96-3.383 1.237-5.08 1.749-1.397.42-2.805.627-4.217.998-.699.21-2.732-.755-3.003-1.653-.762-2.71-1.639-5.44-2.401-8.15-.241-.798-.067-1.667.301-2.43.125-.31.574-.446.828-.686l1.669 5.54c.091.299.181.598.58.478.814-.19 1.577-.367 2.376-.607.549-.166.648-.74.248-1.164-.255-.304-.574-.099-.824-.024-.464.086-.674-.069-.809-.518-.401-1.512-.902-2.994-1.304-4.506.209-.39.569-.28.884-.32.564-.116 1.132-.396 1.741-.362l1.997-.602zm-3.81 11.926c.241.799 1.135 1.237 1.968.931a1.371 1.371 0 00.877-1.788c-.211-.699-1.105-1.137-1.804-.926-.848.255-1.331 1-1.041 1.783z" fill="#C3C3C3" fill-opacity=".4"/>
  <path d="M80.346 63.926c-.23-.04-.3.09-.355.27-.198.605-.648.74-1.048.316-.224-.204-.354-.274-.654-.184l-1.597.481c-.2.06-.399.12-.489.366-.179.489-.628.624-1.033.365-.194-.104-.324-.174-.524-.114l-1.846.557c-.15.045-.35.105-.125.31.056.364.246.633.486.887-.035.065.03.1.094.135l.03.1c.181.599.666.942.931 1.461.375.704.25 1.013-.498 1.239-.449.135-.689-.119-.794-.468-.196-.649-.64-1.223-1.02-1.761l-.181-.599c-.01-.215-.12-.4-.4-.424l-.195-.105c-.455-.243-1.997.058-2.306.478-.12.145-.06.344.086.464.205.32.58.478.65.893.165.549.685.828.885 1.311.045.15.205.32.3.454.14.285.295.619-.139.804-.399.12-.838.47-1.233-.118-.235-.419-.505-.773-.656-1.272-.06-.2-.165-.549-.544-.544l-.166-.548c-.32-.884-.66-1.108-1.574-.887-.464.085-.898.27-1.297.391-.39.335-.164.54.175.764.53.493.94 1.132 1.3 1.785-.009.33.266.519.391.753.155.335.13.614-.204.77-.334.155-.748.225-.918-.16-.28-.568-.71-1.092-1.026-1.595-.315-.504-.43-1.068-.83-1.492-.225-.204-.385-.374-.685-.284-.434.186-.624-.084-.73-.433-.781-2.595-1.513-5.205-2.295-7.8.07-.13.159-.374.259-.404.943-.121.718-.87.817-1.444.04-.23.044-.395-.016-.594-.035-.48.059-.889.383-1.259.204-.225.484-.2.51.064.01.76.4 1.513.361 2.286.006.38.12.4.37.324l1.697-.511c.15-.045.35-.105.29-.305-.186-.434.123-.854-.047-1.238-.025-.264-.05-.529-.06-.744.268-.19.143-.424.168-.704.014-.494-.116-1.108.582-1.318l.2-.06c.42.308.34.768.361 1.197.09.844.182 1.687.288 2.58.709.005 1.377-.306 2.076-.516.1-.03.234-.125.204-.225-.17-.384.104-.739.114-1.069.044-.394-.091-.843.068-1.218.11-.36.424-.4.704-.375.264-.025.305.29.3.454.016.594.216 1.078.381 1.627-.104.195.026.264.175.22.564-.116 1.113-.282 1.677-.397.2-.06.4-.12.31-.42-.012-.759.177-1.578-.113-2.361-.015-.05-.046-.15-.01-.215.084-.08.119-.145.074-.294-.13-.614.333-.7.748-.77.514-.1.434.359.51.608.24.799.117 1.652.472 2.47-.135.096-.27.19-.224.34.045.15.23.04.33.01.548-.165 1.097-.33 1.661-.446.2-.06.35-.106.324-.37.085-.08.055-.18.075-.295-.106-.893-.012-1.847-.004-2.72.01-.33.225-.34.474-.415.15-.046.385-.17.46.079.335.933.571 1.896.493 2.9-.035.065-.055.18.01.214.774.04 1.457-.221 2.19-.497.25-.075.04-.23-.04-.314 0-.544.214-1.099-.067-1.667l-.045-.15c.04-.23.065-.51.104-.74.104-.738.623-1.003 1.288-.605l.15.5c-.089.788.087 1.552.263 2.315-.035.065-.04.23.06.2.694-.046 1.342-.242 1.976-.487.25-.075.04-.23-.04-.314l.014-.495c-.015-.05.02-.114.02-.114.17-.16.19-.275.03-.445-.36-.653-.127-1.323-.058-1.997.06-.344.604-.345.918-.385.315-.04.34.224.415.474l.24.798c-.213.554.267 1.063.152 1.587-.084.625.216.534.565.429.749-.226 1.512-.401 2.296-.692.3-.09.689.12.898-.27.38-.006.734-.276 1.178-.247.24.799.282 1.657.757 2.33l.12.4c-.07.13-.04.23.09.3.12.398.24.798.296 1.162-.135.095-.154.21.075.25.106.349.196.648.251 1.013-.284.14-.11.36-.064.509l.602 1.996c.06.2.12.4-.13.474-.813.191-1.431 1.03-2.43.787-.59-.149-1.228.261-1.842.392-.2.06-.27.19-.309.42-.129.474-.613.675-.903.435-.535-.328-.904-.108-1.368-.023l-.898.27c-.1.03-.3.091-.334.156-.11.904-.843.635-1.342.785-.08-.084-.175-.219-.255-.304-.485-.344-.84-.074-1.228.261-.48.036-.779.126-1.013.251zM99.848 61.26c.096.68.06.744-.788 1-.549.165-.689-.119-.889-.603-.336-.933-.721-1.851-1.192-2.69l-.105-.349c-.721-1.85-1.227-3.712-1.799-5.608-.12-.4.009-.874-.326-1.263-.025-.264-.1-.514-.126-.779l-.422-2.485c-.06-.2-.07-.414-.13-.614.203-.77 1.086-1.09 1.616-.596.12.4.19.813.311 1.213-.06.344.046.693.151 1.043.085.464.236.963.321 1.427-.074.295-.049.56.076.794.256.848.477 1.761.732 2.61-.07.13-.054.18.075.25l.106.349c-.09.244-.03.444.18.598.196.65.456 1.333.652 1.981.115.564.33 1.098.63 1.552.09.3.231.584.336.933.155.334.226.749.53 1.038l.061.2zM92.88 52.583a21.135 21.135 0 001.183 4.651c.566 1.517 1.082 3.049 1.833 4.456.125.234.2.484.31.668.25.47.076.794-.408.994-.634.246-1.043.151-1.194-.348-.155-.334-.125-.778-.43-1.067l-.076-.25c-.075-.25-.05-.529-.325-.718-.125-.235-.3-.454-.375-.704-.736-1.9-1.388-3.882-1.875-5.858-.25-1.013-.601-1.996-.652-3.07.028-.988-.272-1.986-.343-2.945.084-.08.12-.144.204-.224.05-.015.165.004.215-.01.164.004.33.009.449-.136.05-.015.134-.095.184-.11.115.02.23.04.295.074.18.6.426 1.233.457 1.877.09.843.231 1.672.487 2.52.065.035.03.1.06.2zM49.136 65.493c.285.404.386.918.536 1.417.206.864-.128 1.563-.976 1.819l-5.29 1.594-.55.165c-.284.14-.503.316-.363.6.09.3.405.259.654.184.45-.136.884-.32 1.348-.406.314-.04.729-.111.849.288.12.4-.214.555-.563.66l-1.398.42c-.748.227-1.288.063-1.733-.511-.43-.524-.28-1.113.048-1.647.035-.066.07-.13.154-.21.43-.565.43-.565-.255-.849-.44-.194-.88-.388-.945-.967.2-.06.464-.085.619-.295.28.024.51.064.804.138.075.25.275.19.424.145.015.05.08.084.18.054.03.1.08.085.13.07 1.848.532 3.61.055 5.341-.52.35-.106.44-.35.399-.665-.01-.215-.105-.35-.116-.564-.26-.684-.02-.974.703-.92z" fill="#E1E1E1" fill-opacity=".6"/>
  <path d="M43.204 77.242c.29.784.985 1.282 1.495 1.89.385.374.804.683 1.274.977.34.225.545.544.32.884-.224.34-.668.31-.988-.03-1.215-1.32-2.53-2.612-3.575-4.093a24.026 24.026 0 01-1.545-2.42c-.11-.184-.205-.319-.385-.373l-.06-.2c-.026-.264.049-.56-.395-.588l-.106-.35c.125-.31.05-.559-.26-.683l-.166-.55c.025-.279-.05-.528-.24-.798l-.105-.349c.239-.29.114-.524-.161-.714l-.075-.25c.25-.074.14-.259.144-.424-.08-.629-.096-1.223-.127-1.867-.062-1.288.157-2.55.21-3.819.069-.674.138-1.348.437-1.982.054-.18.144-.425.374-.385.294.074.105.35.085.464-.178 1.034-.012 2.127-.355 3.155-.2.605.16 1.258.012 1.848-.258 1.493.048 2.87.42 4.282.516 2.076 1.587 3.822 2.857 5.508.305.29.44.738.915.867zM55.305 68.805c-.04-.314-.35-.439-.56-.593l-3.148-2.317c-.275-.19-.38-.539-.52-.823.035-.065.084-.08.12-.145.05-.015.099-.03.084-.08l.5-.15c.049-.016.049-.016.114.02.065.034.115.019.18.054.015.05.065.035.08.085.2.484.575.643 1.024.507.514-.1 1.063-.266 1.577-.366.314-.04.544 0 .65.349.105.349-.065.509-.35.65-.199.06-.349.104-.548.165-.15.045-.3.09-.305.254-.004.165.11.185.24.255.275.19.55.379.79.633.775.583 1.059.443 1.447-.436.304-.8.478-1.668.911-2.398.14-.26.359-.434.669-.31.31.124.385.374.26.683-.105.195-.194.44-.234.67-.149.589-.608 1.054-.462 1.718-.2.06-.234.125-.124.31-.07.13-.09.244-.16.374-.264.025-.22.175-.159.374-.05.016-.035.066-.085.08-.668.31-1.267.491-1.991.437z" fill="#E1E1E1" fill-opacity=".6"/>
  <path d="M64.82 57.391c.221.37-.138.804.047 1.238.045.15-.14.26-.289.305l-1.697.511c-.25.076-.364.056-.37-.324-.01-.759-.386-1.462-.362-2.286-.01-.214-.255-.304-.51-.064-.323.37-.418.78-.382 1.259.01.214.07.414.016.594-.1.574.076 1.337-.817 1.444-.1.03-.19.274-.26.404-.33-.553-.738-.104-1.103-.048-.314.04-.339.32-.314.584-.01.33-.019.66-.448.68.174-.325.284-.685.228-1.049-.05-1.073-.087-2.097-.138-3.17-.026-.264.034-.609-.31-.668-.345-.06-.405.285-.43.564-.143.969-.172 1.957-.15 2.93-.005.166.04.315-.11.36-.355-.818-.511-1.696-.188-2.61.055-.18-.02-.43.02-.66.044-.394.008-.873.507-1.023.784-.29.994-.136 1.084.707.096.679-.088 1.333.108 1.982.165.549.41.639.849.288.085-.08.17-.16.32-.205.718-.325.957-.615.816-1.443-.085-.465.044-.939.008-1.418.025-.28.1-.574.434-.73.918-.385 1.278-.276 1.164.793-.07.674.196 1.193.312 1.757.09.299.205.319.52.278.663-.145 1.087-.545 1.446-.98zM43.203 77.242c-.474-.129-.61-.578-.88-.932-1.27-1.686-2.39-3.417-2.857-5.508-.372-1.412-.628-2.805-.42-4.282.084-.625-.211-1.243-.012-1.847.343-1.03.127-2.107.355-3.156.005-.165.195-.44-.085-.464-.18-.055-.27.19-.374.385-.299.634-.368 1.308-.437 1.982-.103 1.283-.271 2.531-.21 3.82.03.643.096 1.222.127 1.866-.005.165.106.35-.144.425-.346-1.148-.277-2.366-.244-3.52.038-1.861.125-3.739.722-5.552.11-.36.234-.669.358-.979.125-.31.394-.5.704-.375.294.075.285.404.195.649-.332 1.788-.435 3.615-.602 5.407-.157 2.007-.2 4.034.387 5.98.666 2.031 1.767 3.877 3.087 5.548.16.17.305.289.33.553zM72.256 54.062c.24.799.086 1.553.112 2.361-.698.21-1.447.436-2.16.597-.166-.549-.381-1.083-.382-1.627.005-.165-.036-.48-.3-.454-.265.026-.594.016-.704.376-.144.424-.024.823-.068 1.218-.06.344-.284.684-.114 1.068.03.1-.104.195-.204.225-.699.21-1.367.52-2.076.517-.106-.894-.197-1.737-.288-2.58-.07-.415.009-.874-.36-1.198.448-.136.788.089.674.613-.134.639.181 1.143.297 1.707.045.15.09.3.32.339.609.034 1.267-.491 1.316-1.05.034-.61.019-1.203.053-1.813.014-.494.468-.794 1.097-.874.58-.066.55.378.59.693.1.514.036 1.023.202 1.572.15.499.445.573.844.453.749-.225.888-.485.967-1.489.074-.294.014-.494.184-.654z" fill="#D1D1D1"/>
  <path d="M48.447 77.296c.255.304.425.688.73.977.305.29.23.584.026.809-.29.305-.634.245-.889-.059s-.56-.593-.78-.962c-.11-.185-.24-.255-.424-.145-.11-.184-.17-.384-.28-.568-.03-.1-.03-.1-.146-.12a.967.967 0 01-.205-.32c-.01-.214-.055-.364-.32-.338-.57-.808-1.105-1.681-1.675-2.49-.19-.269-.445-.573-.041-.858.354-.27.664-.145.934.209.65.892 1.215 1.865 1.95 2.678.35.439.735.813 1.12 1.187z" fill="#E1E1E1" fill-opacity=".6"/>
  <path d="M90.526 48.393c.086 1.008.372 1.956.343 2.944-.32.206-.684.261-1.063.266-.38.006-.889-.058-.923.55-.21.39-.599.181-.898.272-.734.275-1.483.5-2.296.691-.35.106-.649.196-.565-.428.065-.51-.415-1.018-.151-1.588l.015.05c.22.37.02.974.545 1.088.525.114 1.108-.116 1.547-.466.21.698.65.348 1.064.278.364-.055.634-.245.563-.66a20.191 20.191 0 00-.411-1.727c-.045-.15-.09-.299-.32-.339-.494-.014-.834.306-.848.8-.005.165-.04.23-.174.325l-.075-.25c-.206-.863.457-1.553 1.326-1.38.23.04.29.24.335.39l.36 1.197c.106.35.3.454.65.35.949-.287 1.103-.496.842-1.724-.025-.265-.33-.554.134-.64zM45.73 64.67c-.166-.55-.067-1.124-.018-1.683.164-1.084.277-2.152.39-3.22.075-.84.299-1.18.893-1.195.33.01.59.15.545.544-.188 1.363.053 2.705-.07 4.103-.06.345-.069.674-.014 1.039.056.364-.084.624-.338.864-.808.57-1.103.495-1.389-.453zm1.002-4.984c-.24.29-.379.55-.389.879-.233 1.213-.286 2.481-.24 3.72.026.264-.049.558.316.503.314-.04.484-.2.493-.53-.001-1.088.063-2.141.061-3.23-.02-.429.159-.919-.241-1.342z" fill="#D1D1D1"/>
  <path d="M56.051 70.377c-.04-.315.08-.46.38-.55.299-.09.478-.035.618.249.706 1.257 1.646 2.39 2.451 3.616.175.22.43.524.061.744-.334.155-.738.44-1.053-.064-.27-.354-.49-.723-.71-1.092-.126-.234-.201-.484-.446-.573l-.06-.2c-.04-.315-.165-.549-.425-.689l-.06-.2c-.04-.313-.166-.548-.425-.688-.16-.169-.27-.354-.33-.553z" fill="#E1E1E1" fill-opacity=".6"/>
  <path d="M57.825 67.23c-.146-.664.313-1.129.462-1.718.04-.23.145-.425.234-.67.124-.31.05-.559-.26-.683s-.48.035-.669.31c-.434.73-.607 1.599-.91 2.398-.34.864-.688.97-1.448.436-.275-.19-.5-.394-.79-.633-.08-.085-.26-.14-.24-.254.005-.165.155-.21.305-.255l.549-.166c.284-.14.454-.3.348-.65-.105-.349-.335-.388-.65-.348-.513.1-1.077.216-1.576.367-.514.1-.824-.024-1.024-.508.864.338 1.627.162 2.46-.143.45-.136.924-.006 1.21.398.3.453.205.863-.299 1.178-.134.095-.289.305-.214.555.11.184.305.289.485.343.23.04.384-.17.439-.35.334-.699.682-1.348.821-2.152.064-.51.818-.9 1.242-.756.54.164.61.579.496 1.103-.154.754-.278 1.608-.971 2.198zM54.6 63.03c-.799.241-1.154-.033-1.23-.827-.14-1.372-.003-2.72.12-4.118.03-.445.239-.834.753-.935.63-.08.774.04.755.698-.024.824.067 1.667.108 2.526.046.694.106 1.438.037 2.112.09.3-.229.504-.543.545zm-.086-.464c.2-.06.37-.22.33-.534l-.2-3.37c.005-.164-.04-.314-.17-.384-.18-.055-.284.14-.419.235-.135.095-.14.26-.16.375-.213 1.098-.196 2.237-.08 3.345.05.529.35.439.7.333zM41.868 65.942c-.067-1.123-.098-2.311.065-3.395.159-.918.367-1.852.576-2.786.055-.18.11-.36.23-.505a.548.548 0 01.648-.195c.245.09.255.304.215.534-.253 1.328-.191 2.616-.33 3.964l-.102 1.827c-.004.71-.378 1.094-.952.995-.145-.12-.29-.24-.35-.439zm1.057-5.163c-.564.66-.553 1.418-.672 2.107-.123.854-.083 1.713-.091 2.586-.005.165.02.43.285.404.214-.01.414-.07.439-.35.004-.164.06-.344.064-.509-.026-.808.063-1.597.087-2.421 0-.544.248-1.164-.112-1.817zM79.718 52.63c.216.534.067 1.123.067 1.667l-2.146.647c.08-1.004-.157-1.967-.492-2.9-.076-.25-.31-.124-.46-.08-.2.061-.464.086-.474.416.007.923-.102 1.827.004 2.72.03.1.06.2-.075.295-.724-.054-1.347.406-2.091.467-.39-.753-.232-1.672-.472-2.47-.075-.25.004-.71-.51-.609-.415.07-.879.156-.748.77.03.1.01.215-.075.294-.305-.289-.225-.748-.02-.973.288-.305.767-.34 1.247-.376.165.005.175.22.22.37.215.533.216 1.077.282 1.656.045.694.255.849.954.638.948-.286.948-.286.962-1.324.014-.494.043-.939.058-1.433.01-.33.179-.49.463-.63.884-.32.949-.285 1.17.628l.27.898c.12.4.14.829.805.683.863-.206 1.048-.316.987-1.06-.145-.12-.125-.234.074-.294z" fill="#D1D1D1"/>
  <path d="M50.483 65.087c.87 1.262.807 2.86 1.393 4.262.14.284-.094.41-.344.485-.35.105-.609-.035-.714-.384-.341-1.312-.917-2.5-1.058-3.873l-.076-.249c.05-.015.035-.065.085-.08.25-.075.45-.135.714-.16zM57.423 60.655c.184-.11.154-.21.109-.36-.021-.973.008-1.961.151-2.93.025-.28.084-.624.429-.565.344.06.285.405.31.67.051 1.072.088 2.096.139 3.169.005.38-.054.724-.228 1.049l-.25.075c-.145-.12-.245-.09-.38.005-.015-.05-.064-.035-.08-.084l-.09-.3c-.03-.1-.025-.264-.055-.364.1-.03.085-.08-.03-.1-.03-.1-.01-.215-.025-.265z" fill="#E1E1E1" fill-opacity=".6"/>
  <path d="M49.771 63.45c-.01-.758-.071-1.502-.017-2.226.024-.824.227-1.593.301-2.431.08-.46.364-.6.743-.605.395.044.335.389.296.618a136.62 136.62 0 010 4.518c.02.43-.313.585-.678.64-.364.055-.59-.149-.645-.513zm.205-.224c.125.234.1.514.4.424.214-.01.464-.086.439-.35-.071-.959.122-1.943-.049-2.87-.045-.15-.055-.365-.27-.355-.215.01-.284.14-.339.32-.243.999-.122 1.942-.181 2.83z" fill="#D1D1D1"/>
  <path d="M47 70.329c.265-.026.45-.136.459-.465.005-.165-.04-.315.16-.375.199-.06.294.075.389.21.075.249.24.254.424.144.3-.09.55-.166.864-.206.195.104.614-.13.634.299.006.379-.354.27-.523.43-.27.19-.71-.005-.788.455.014.05.03.1-.02.115-.319.749-.319.749-.914.22-.385-.374-.724-.054-1.038-.013-.664.145-.744.06-.61-.579l.25-.075.15-.045c.164.005.364-.055.563-.115zM86.99 50.384c.15-.045.17-.16.175-.325.014-.494.353-.814.847-.8.215-.01.26.14.32.34.116.563.296 1.162.412 1.726.07.414-.2.604-.563.66-.415.07-.854.42-1.064-.279-.006-.379-.091-.843-.127-1.322z" fill="#E1E1E1" fill-opacity=".6"/>
  <path d="M94.7 51.762c.32.339.19.813.326 1.263.572 1.896 1.078 3.757 1.8 5.608-.3.09-.41-.094-.485-.343L94.535 52.3c-.025-.264-.136-.449.164-.539zM83.423 52.82l-.014.494-1.997.602c-.175-.764-.351-1.527-.262-2.316l.27.898c.241.798.241.798 1.04.558.364-.056.663-.146.963-.236zM92.854 52.319a14.15 14.15 0 01-.488-2.52c-.08-.63-.276-1.278-.456-1.877.399-.12.34.224.385.374.51 1.152.357 2.45.818 3.618.075.25-.06.344-.26.405zM81.065 51.135c-.665-.398-1.184-.133-1.288.606-.04.23-.064.51-.104.739-.235-.42-.255-.848-.16-1.258.113-.524.588-.395.922-.55.284-.14.444.03.62.249.08.084.044.15.01.214zM48.633 70.87c.065-.509.504-.315.789-.455.184-.11.529-.05.523-.43-.02-.429-.39-.209-.634-.298.3-.09.638-.41.854.123.135.45-.07.674-.518.81-.365.055-.664.145-1.014.25zM65.496 54.575c-.698.21-.568.824-.582 1.319-.04.23.1.514-.169.704-.215-.534-.101-1.059-.037-1.568.045-.394.334-.7.788-.455zM94.201 48.483l.423 2.485c-.31-.124-.316-.504-.34-.768-.101-.514-.332-1.098-.083-1.717zM95.688 47.273c-.58-.479-1.448-.108-1.617.596-.27-.354-.18-.599.204-.769.37-.22.719-.325 1.113-.281.38-.006.425.144.3.454zM55.355 68.79a4.06 4.06 0 001.891-.407c-.448.68-1.312.886-1.891.407zM98.937 59.14a4.546 4.546 0 01-.63-1.552c.55.379.48 1.053.63 1.552zM38.293 69.795c.275.19.4.424.16.714-.16-.17-.285-.404-.16-.714zM38.98 72.256c.325.174.385.374.26.683-.275-.189-.285-.403-.26-.683zM56.282 70.96c.26.14.385.375.426.69-.36-.11-.435-.36-.426-.69zM99.818 61.16c-.305-.288-.325-.718-.53-1.037.474.13.41.638.53 1.038zM56.816 71.834c.26.14.435.359.425.688-.344-.06-.485-.344-.425-.688zM38.574 70.908c.175.22.25.47.24.799-.39-.21-.365-.489-.24-.799zM96.149 49.529c-.105-.35-.21-.699-.151-1.044.105.35.41.639.151 1.044zM39.395 73.273c.38-.005.32.34.396.59-.395-.045-.32-.34-.396-.59zM41.171 67.785c-.154.21-.419.235-.618.295.109-.36.294-.47.618-.295zM96.546 51.75c-.125-.235-.15-.5-.076-.794.076.25.316.504.076.794zM91.396 48.022a.723.723 0 01-.45.136c.06-.345.21-.39.45-.136zM83.472 52.26c.16.17.14.285-.03.445-.11-.185-.205-.32.03-.444zM57.332 68.304c-.06-.2-.056-.365.16-.375.044.15.04.315-.16.375zM46.173 76.62c.264-.026.31.124.32.339-.18-.055-.31-.125-.32-.34zM97.605 55.622c-.21-.154-.27-.354-.18-.598.16.17.17.384.18.598zM50.419 65.052l-.65.196c.205-.225.405-.285.65-.196zM42.384 68.018c-.2.06-.35.106-.425-.144.165.005.33.01.425.144zM57.7 67.54c-.11-.185-.075-.25.124-.31.045.15-.04.23-.124.31zM51.766 64.646l-.499.15c.105-.194.304-.254.5-.15zM57.518 61.334l.09.3c-.215.01-.245-.09-.09-.3zM57.688 61.718c.15-.045.285-.14.38-.005-.085.08-.22.175-.38.005zM97.32 54.674c-.13-.07-.16-.17-.076-.25l.075.25z" fill="#D1D1D1"/>
  <path d="M42.563 68.073c-.05.015-.115-.02-.18-.055.065.035.13.07.18.055zM51.13 64.892c-.034.065-.084.08-.119.145.085-.08.135-.095.12-.145zM52.06 64.72c-.066-.034-.116-.019-.18-.054.064.035.114.02.18.055zM57.433 60.87c.115.02.13.07.03.1l-.03-.1zM46.748 77.263c.1-.03.115.02.145.12-.065-.035-.13-.07-.145-.12zM42.694 68.143c-.085.08-.1.03-.13-.07l.13.07z" fill="#D1D1D1"/>
  <path d="M104.083 45.505c.451 1.497.902 2.994 1.303 4.506.136.45.346.604.81.518.264-.025.584-.23.824.024.4.424.251 1.013-.249 1.164-.798.24-1.562.416-2.375.607-.399.12-.505-.23-.58-.479l-1.669-5.539c.144-.424.539-.38.873-.535.414-.07.714-.16 1.063-.266z" fill="#E1E1E1" fill-opacity=".6"/>
  <path d="M88.885 52.154c.034-.61.593-.56.923-.55.38-.006.744-.061 1.063-.266.051 1.073.402 2.056.653 3.07.486 1.975 1.138 3.956 1.874 5.858.075.249.25.468.376.703.025.264.05.529.325.718l.075.25c-.135.095-.09.245-.06.344.17.385.111.73-.273.9-.434.185-.868.37-1.148-.199-.096-.135-.29-.24-.435-.359l-.33-.553-.166-.55c-.14-.284-.085-.464.264-.569.45-.135.524-.43.403-.829l-.812-2.695c-.105-.35-.195-.648-.25-1.013.084-.08.054-.18-.076-.25-.12-.399-.24-.798-.296-1.162.12-.145.14-.26-.09-.3l-.12-.399c.024-.823-.302-1.542-.577-2.275-.015-.05-.115-.02-.18-.055-.41-.094-.764.176-1.143.181zM66.611 70.733c-.36-.654-.77-1.292-1.3-1.786-.075-.25-.1-.514-.176-.763l1.298-.391c.913-.221 1.253.003 1.573.886l.166.55c-.075.294.285.403.26.683-.099.574-.772 1.049-1.476.88-.08-.085-.195-.104-.345-.06z" fill="#C1C1C1"/>
  <path d="M48.43 72.728c-.025-.265-.2-.484.135-.64.3-.09.564-.115.769.205.475.673.865 1.426 1.44 2.07.59.693.91 1.576 1.685 2.159.21.154.38.539.126.778-.254.24-.714.161-.904-.108-1.05-1.317-2.185-2.553-3.015-4.045-.145-.12-.19-.27-.235-.419z" fill="#E1E1E1" fill-opacity=".6"/>
  <path d="M82.357 63.374c.08.085.175.22.255.305l.33.553.106.35c.045.15.04.314.07.414.23.584.12.943-.448 1.224-.554.33-.909.056-1.243-.333a.407.407 0 00-.26-.14 2.16 2.16 0 00-.39-.753c-.17-.384-.576-.643-.396-1.133.25-.075.549-.165.783-.29.425.144.779-.126 1.193-.197zM73.211 67.165c-.24-.254-.43-.524-.485-.888l1.746-.527c.45-.135.725.055.895.439.215.534.33 1.098.511 1.696.03.1.075.25-.01.33-.259.404-.733.275-1.117.445-.185.11-.455-.243-.58-.478-.17-.384-.41-.638-.785-.798l-.03-.1c-.065-.034-.13-.07-.145-.12z" fill="#C1C1C1"/>
  <path d="M60.048 69.553c-.09-.3-.15-.499.05-.559.199-.06.383-.17.593-.016.34.225.346.604.536.873.7.878 1.23 1.916 2.015 2.713.24.255.48.509.14.829-.338.32-.653.36-1.023.036-.355-.274-.425-.688-.695-1.042-.65-.893-.98-1.99-1.616-2.834z" fill="#E1E1E1" fill-opacity=".6"/>
  <path d="M77.285 66.59c-.06-.199-.136-.448-.296-.618-.43-.523-.27-.898.409-.994l.2-.06c1.177-.246 1.597.063 1.743 1.27.03.1.025.265.056.365.01.215.25.47.03.644-.27.19-.539.38-.853.42-.25.076-.474-.129-.565-.428a.825.825 0 00-.724-.598z" fill="#C1C1C1"/>
  <path d="M55.462 74.201c.005.38.365.49.505.774.14.284.245.633-.139.803-.37.22-.679.096-.899-.273l-2.13-3.277c-.08-.085-.11-.185-.14-.284-.026-.265-.381-.54.053-.724.434-.186.49.179.68.448.565.973 1.08 1.96 2.07 2.533 0 0-.05.016 0 0z" fill="#E1E1E1" fill-opacity=".6"/>
  <path d="M71.163 66.693l.195.105c.01.215.07.414.4.424l.18.599c-.32.205-.18.49-.054.724.12.399-.014.494-.379.55-.664.145-1.173.08-1.518-.523-.08-.085-.195-.105-.36-.11-.07-.414-.445-.573-.65-.892.174-.325.474-.415.823-.52.48-.036.913-.221 1.363-.357z" fill="#C1C1C1"/>
  <path d="M83.048 64.582l-.105-.35c.374-.384.903-.435 1.447-.436.015.05.015.05.08.085.04.315.15.5.425.689.006.379.26.683.466 1.002.22.37.375.704-.129 1.019-.553.33-1.028.2-1.278-.268a6.017 6.017 0 01-.54-1.252c-.076-.25-.086-.465-.366-.49z" fill="#E1E1E1" fill-opacity=".6"/>
  <path d="M84.42 63.896c-.015-.05-.015-.05-.08-.085-.28-.569-.091-.843.488-.91l.1-.03c1.567-.58 1.418.009 1.809 1.306.09.3-.164.54-.414.615-.384.17-.783.29-1.188.031-.13-.07-.125-.234-.34-.224-.04-.314-.016-.594-.375-.703z" fill="#C1C1C1"/>
  <path d="M77.334 66.576c.1.514.535.873.685 1.372.09.3.23.584-.203.769-.435.185-.834.305-1.084-.164-.345-.603-.775-1.127-.92-1.79-.076-.25-.216-.535.068-.675.335-.155.699-.21 1.004.079.11.184.185.434.45.409 0 0-.05.015 0 0z" fill="#E1E1E1" fill-opacity=".6"/>
  <path d="M89.209 64.25c-.106-.894-.756-1.243-1.17-1.717-.256-.304-.281-.568.183-.654l.898-.27c.25-.076.554-.33.71.004.25.469.665.942.466 1.547-.035.065-.105.195-.155.21-.414.07-.574.445-.933.88z" fill="#C1C1C1"/>
  <path d="M86.976 63.888c.025-.28-.395-.589.09-.79.383-.17.867-.37 1.133.15.315.503.58 1.022.845 1.54.2.485-.199.605-.498.695-.334.155-.784.29-1.049-.228-.135-.45-.32-.883-.52-1.367zM80.742 65.059c.224.204.365.489.39.753.005.38.26.684.465 1.003.206.32.33.554-.088.789-.37.22-.769.34-1.089.001-.56-.593-.75-1.407-.876-2.185-.07-.415.489-.365.853-.42.165.004.23.039.345.059zM91.976 62.054l.33.554c-.16.375.196.649.336.933.18.6-.17.704-.568.825-.385.17-.664.145-.814-.354-.136-.449-.356-.818-.491-1.267-.09-.3-.23-.584.088-.789.285-.14.639-.41.94.044.014.05.114.02.179.054z" fill="#E1E1E1" fill-opacity=".6"/>
  <path d="M46.3 70.54l-.25.074c-.548.166-1.003-.078-1.522-.357.698-.21 1.432-.486 2.16-.597.415-.07.336.389.261.684l-.599.18c.02-.115-.03-.1-.05.015z" fill="#C1C1C1"/>
  <path d="M112.742 43.712c-.1.03-.2.06-.245-.09 0 0-.015-.05.035-.065.1-.03.13.07.21.154zM104.929 56.082c-.226-.749.192-1.528 1.041-1.784.748-.225 1.593.228 1.803.927.241.798-.128 1.562-.876 1.788-.849.256-1.743-.182-1.968-.931z" fill="#E1E1E1" fill-opacity=".6"/>
  <path d="M74.052 55.862c.728-.111 1.367-.521 2.09-.467.076.25-.124.31-.323.37-.55.165-1.098.33-1.662.446-.1.03-.285.14-.33-.01-.045-.15.14-.26.225-.34zM77.639 54.944l2.146-.647c.08.085.29.24.04.315-.684.26-1.417.535-2.191.496-.1.03-.08-.084.005-.164zM81.427 53.965l1.996-.601c.08.084.29.239.04.314-.633.245-1.282.441-1.976.487-.114-.02-.095-.135-.06-.2z" fill="#C1C1C1"/>
  <path d="M71.163 66.694l-1.397.42c-.3.09-.649.196-.823.52-.145-.119-.19-.269-.086-.463.31-.42 1.852-.722 2.306-.478z" fill="#D1D1D1"/>
  <path d="M70.208 57.02c.698-.21 1.447-.437 2.16-.597.09.3-.109.36-.308.42-.55.165-1.113.28-1.677.396-.15.045-.28-.024-.175-.22z" fill="#C1C1C1"/>
  <path d="M90.026 51.972c.065.035.165.005.18.055.276.734.65 1.437.577 2.276-.49-.723-.531-1.582-.757-2.33zM82.358 63.375c-.414.07-.768.34-1.228.26.39-.334.743-.604 1.228-.26zM65.184 68.169c.075.25.1.514.175.763-.39-.209-.564-.428-.175-.763zM71.744 67.172c-.264.025-.374-.16-.4-.424.245.09.34.224.4.424zM91.306 56.215c.13.07.145.12.075.249-.18-.055-.21-.154-.075-.25zM90.903 54.702c.18.055.21.155.09.3a.332.332 0 01-.09-.3zM73.212 67.165c.015.05.08.085.095.135-.065-.035-.13-.07-.095-.135zM94.097 61.687c-.26-.14-.25-.469-.325-.718.26.14.25.469.325.718z" fill="#D1D1D1"/>
  <path d="M46.732 59.686c.415.474.221.913.192 1.357.001 1.089-.063 2.142-.061 3.23-.01.33-.18.49-.494.53-.43.02-.305-.289-.315-.504-.047-1.238.007-2.506.24-3.72.11-.359.184-.653.438-.893zM54.513 62.566c-.4.12-.664.146-.684-.284a13.378 13.378 0 01.08-3.344c.005-.165.025-.28.16-.375.135-.095.24-.29.419-.235.13.07.175.22.17.384l.199 3.37c.025.264-.08.459-.344.484zM42.924 60.779c.41.638.161 1.258.127 1.867-.024.824-.113 1.612-.087 2.421-.004.165-.01.33-.064.51-.025.279-.224.34-.439.35-.28-.025-.29-.24-.285-.405.009-.873-.032-1.732.092-2.586.104-.739.093-1.497.656-2.157zM49.976 63.226c.059-.889-.077-1.882.181-2.83.055-.18.125-.31.34-.32.214-.011.274.189.27.353.17.929-.023 1.912.048 2.87.025.265-.224.34-.439.35-.3.091-.325-.174-.4-.423z" fill="#E1E1E1" fill-opacity=".6"/>
  <path d="M46.3 70.54c.02-.116.07-.13.15-.046l-.15.045zM84.421 63.896c.36.11.335.389.425.688-.26-.14-.385-.374-.425-.688z" fill="#D1D1D1"/>
  <path d="M48.966 14.506c.751-1.372 1.73-2.618 2.436-4.014 1.695-3.53 5.22-4.214 8.209-3.706.649.117 1.252.21 1.875.373l1.235.676c.124.424.54.533.835.754 1.898 1.634 2.984 3.774 3.712 6.133.273.804.151 1.569-.274 2.346a563.385 563.385 0 00-4.415 8.28c-.425.777-.29 1.505.034 2.217.6 1.398 1.106 2.863 1.778 4.241.692 1.449.64 2.847.026 4.293-.435 1.01-.869 2.02-1.461 2.885-.44-.063-.595.328-.7.627-.054.208-.18.436-.28.62-.359.872-1.013 1.524-1.555 2.297-.446.707-1.055 1.384-1.547 2.065-.05.091-.145.158-.283.083-.249-.196-.477-.321-.702-.563a18.788 18.788 0 00-3.011-2.422c-1.047-.692-2.37-.881-3.463-1.598-.182-.1-.465-.018-.569-.371.37.083.699.026 1.044.155.507.159.965-.244.87-.83-.036-.258.089-.487.255-.574.308-.129.367-.453.584-.631.487-.565.376-1.34.773-1.954.37-.57.833-1.089 1.159-1.683.967-1.55 1.752-3.2 2.628-4.8.2-.366.214-.716.064-1.095.03-.162.13-.345.089-.486-.386-.924-.821-1.757-1.76-2.212-1.123-.555-2.24-1.226-3.383-1.852-1.438-.847-2.655-1.989-4.368-2.332-.544-.417-1.094-.065-1.676-.086-.05-.562-.47-.554-.844-.521-.116-.005-.283.082-.324-.06-.042-.14.054-.207.15-.274.287-.199.575-.398.796-.693.195-.25.32-.478.674-.581.85-.248 1.075-.66.614-1.447-.547-.953-.08-1.59.366-2.296.267-.27.695-.51.41-.964z" fill="#E1E1E1" fill-opacity=".6"/>
  <path d="M31.059 31.799c.125-.229.18-.437.304-.665.363-.337.804-.273 1.274-.372 1.876-.28 3.46.409 4.818 1.509 1.338 1.03 2.58 2.126 3.872 3.13 1.882 1.447 4.01 2.552 6.138 3.658.985.48 2 .798 3.01 1.232.872.36 1.87.49 2.643 1.032.137.075.32.175.437.18.445-.054.34.245.352.549-.411-.225-.873-.36-1.073.007-.28.619-.825.855-1.329 1.233-.287.2-.379.149-.532-.113-.154-.263-.353-.55-.736-.284l-.091-.05c-.391-.155-.632-.584-1.106-.368-.275-.15-.574-.255-.894-.43-.528-.23-.906-.734-1.538-.664-.594-.325-1.26-.63-1.853-.956a1.27 1.27 0 00-.549-.3l-.32-.175-.229-.125c-.777-.426-1.575-.922-2.352-1.348-.007-.42-.382-.387-.61-.512-.387-.271-.844-.522-1.23-.793-.1-.47-.52-.462-.84-.637-.365-.2-.706-.447-1.072-.647-.128-.308-.265-.383-.532-.113a2.88 2.88 0 00-.596.98c-.11.416-.001.654.394.692.183.1.34.246.523.346.257.616.856.825 1.284 1.237.203.171.427.413.781.31.204.17.432.296.636.466-.15.275.032.375.215.475l5.486 3.004c.228.125.436.18.587-.095l.32.175c.352.55.98.597 1.458.918.25.196.761.238.51.695-.175.32-.466.636-.978.594-.79-.077-1.48-.336-2.12-.686-1.9-.98-3.749-2.053-5.648-3.033-.183-.1-.361-.317-.624-.163-.091-.05-.112-.121-.203-.171.1-.183.13-.345-.1-.47-1.147-.51-1.948-1.543-3.12-2.006-.208-.055-.407-.342-.537.003a1.141 1.141 0 01-.262.153l-.046-.025.046.025c-.025.046-.03.163-.054.208-.304.012-.379.15-.225.412-.026.046-.121.112-.146.158l-.046-.025.046.025c-.005.116.016.187.012.303-.271.387.194.404.332.48 1.047.691 1.13.974.608 1.818-.175.32-.342.407-.708.207l-1.097-.6c-.183-.101-.32-.176-.511-.043-.766.53-.755 1.488.022 1.913l.228.125c.361.317.677.609 1.038.925-.067.558-.322 1.132-.776 1.418-.408.311-.735-.284-1.151-.393l-.046-.025-.731-.4c-.183-.1-.432-.297-.628-.047-.196.249-.584.631-.384.918.352.55.726 1.17 1.44 1.384-.079.253.083.283.291.337.046.025.067.096.067.096-.15.274-.346.523-.497.798-.4.731-.4.731-1.132.33l-.822-.45-.458-.25c.005-.117-.041-.142-.132-.192-.28-.033-.512-.042-.616.257-.13.345-.584.632-.273 1.04.266.383.582.675.997.783l.138.075c-.146.158-.034.28.103.354.565.488.51.696.04 1.448-.347.523-.688.277-1.053.077l-.823-.45c-.798-.497-.869-.476-1.274.372-.15.274-.113.532.111.774.337.362.673.725.964 1.062.718.75.718.75.242 1.619-.325.594-.608.677-1.127.214-.453-.367-.835-.754-1.363-.984-.137-.075-.32-.175-.416-.108-.291.315-.608.677-.626 1.142.012.304.278.687.698.68.046.025.137.075.158.146-.009.232.149.378.307.524.647.77.684 1.029.355 1.74-.226.41-.463.519-.92.268-.457-.25-.814-.683-1.246-.98-.25-.195-.565-.487-.907-.08-.417.545-.484 1.102-.169 1.394.428.412.83.87 1.234 1.329.402.458.301 1.294-.203 1.672-.191.132-.329.057-.466-.018-.478-.321-1.055-.46-1.408-1.009-.286-.454-.686-.375-.911.036l-.1.183c-.52.19-.534.54-.243.877.311.409.598.862 1.125 1.092.204.17.407.342.565.488.095.586.073 1.169-.344 1.713-.17.203-.337.29-.566.165-.477-.32-1.076-.53-1.454-1.033-.647-.771-1.001-.668-1.385.251-.13.345-.022.582.202.824.336.362.556.72.988 1.017.682.492.74.82.43 1.602a.965.965 0 00-.083.37c-.068.557-.26.69-.808.39-.594-.326-.922-.921-1.466-1.338-.657-.538-.915-.5-1.27.256-.229.528.157.799.357 1.086.132.192.361.317.448.483.41.879 1.117 1.325 1.965 1.73l.183.1.045.025.046.025c.091.05.203.17.295.22-.009.234.083.284.274.151.046.025.071-.02.117.004.187-.016.237-.107.266-.27l.126-.228c.291-.316.067-.557-.157-.799-.204-.17-.382-.388-.186-.637.22-.295.197-.902.82-.739 2.377 1.302 4.755 2.603 7.107 3.95.366.201.644.235.824-.202.175-.32.408-.311.686-.277.608-.024 1.131.322 1.639.48-.076.138-.034.28.128.309.436.18.403.458.157.799-.075.137-.175.32-.23.528-.08.253-.225.411-.412.427-.491.029-.982.057-1.469-.031a25.444 25.444 0 01-1.891-.56c-.508-.16-.82.086-1.025.568-.204.482.066.749.386.924.365.2.781.309 1.151.393.624.163 1.268.397 1.913.63.253.08.34.247.12.542-.513.61-.806 1.58-1.899.862 0 0-.046-.025-.07.02-.795.041-1.556-.197-2.246-.456-.644-.234-1.431.226-1.457.925.012.304.12.541.523.346.183.1.39.155.574.255.224.241.453.367.786.192l.182.1c.225.242.453.367.786.193l.183.1c-.104.3.174.333.286.454.138.075.275.15.337.363.049.561-.402 1.384-.922 1.575-.686-.376-1.464-.148-2.2-.432-.436-.18-.877-.243-1.318-.306-.603-.093-.961.127-1.054.73-.113.533.399.575.744.704.436.18.973.177 1.48.336.462.134 1.04.272 1.255.746.323.712-.456 1.593-1.221 1.47-.441-.062-.836-.1-1.298-.234-.669-.188-1.384-.402-2.062-.357-.491.028-.936.082-1.323-.19-.045-.024-.091-.05-.066-.095.175-.32.325-.594.546-.89.271-.386.26-.69-.198-.94-.548-.3-.545.236-.695.51a5.06 5.06 0 01-.471.753c-.528-.23-.42-.646-.265-1.036.08-.254.321-.478.31-.782-.03-.49.224-.411.428-.24.382.387.848.404 1.31.538.669.189 1.035-.264.874-.947-.094-.587-.551-.837-1.009-1.087-.365-.2-.968-.293-.93-.688.088-.487.695-.51 1.14-.564.82-.086 1.536-.526 2.269-.778l.045.025c.704-.09 1.246-.864 1.064-1.617.025-.046-.02-.07.004-.116.1-.183-.012-.304-.149-.379-.041-.141-.108-.237-.149-.379.03-.162.009-.233-.128-.308.15-.927-.385-1.577-.87-2.318-.286-.454-.627-.7-1.127-.439-.428.24-.667 1.002-.355 1.41.464.67.671 1.378.924 2.11.062.213.124.425-.068.558-.192.132-.358.22-.587.094-.253-.08-.29-.337-.236-.545.139-.578-.081-.936-.614-1.05-.486-.087-.936.083-1.14.565-.38.802-.801 1.463-1.655 1.827-.046-.025-.07.021-.116-.004-.071.02-.096.067-.167.087-.025.046-.025.046-.096.067-.212.062-.312.245-.25.457-.025.045-.05.091-.004.116.02.07-.005.117.016.187-.146.158-.267.27-.412.428-.283.083-.338.29-.326.594-.025.046-.025.046-.004.117-.009.233-.2.366-.3.549-.534.54-.522.843.093 1.24.183.1.32.175.478.32.25.196.357.434.182.754-.83 1.625-1.753 3.2-3.443 4.117-.07.02-.096.066-.142.04-.07.022-.095.067-.166.088a.392.392 0 00-.404.195 4.77 4.77 0 01-.67.465c-.354.103-.409.311-.234.644.12.541.506.812 1.067.763.33-.058.512.042.711.33.332.479.685 1.028 1.33 1.262.46.134 1.013.318 1.33-.043.392-.499.896-.877 1.176-1.496.405-.848.88-1.717 1.377-2.514.325-.595.795-.694 1.34-.277.203.17.407.342.685.376 1.04.272 2.113.265 3.202.445.487.089.727.517.523 1-.18.436-.289.852-.651 1.188-.537.004-1.073.007-1.585-.035-1.094-.065-2.179-.362-3.268-.542-.441-.063-.703.09-.812.506-.063.44.307.525.63.583.974.177 1.993.378 2.94.6.159.146.275.15.467.017a.968.968 0 01.37.084c.07-.02.116.004.187-.016.208.054.39.154.599.209.17.45.06.865-.028 1.352-.146.81-.363.989-1.2.888-.673-.072-1.346-.144-2.029.017a1.443 1.443 0 00-.67-.188c-2.112-.265-4.19-.81-6.09-1.79-1.808-.93-3.174-2.451-4.47-3.992-1.137-1.396-2.345-2.77-3.362-4.278-.132-.191-.332-.479-.594-.325-.262.153-.367.453-.238.76.128.309.302.642.43.95.846 1.71 2.1 3.11 3.38 4.465.83.87 1.59 1.762 2.64 2.337l.23.126c.128.308.336.362.614.396l.32.175c.129.308.307.525.732.4l.503.276c.178.216.382.387.665.305l.32.175c.228.125.407.341.694.142l.183.1c.295.221.594.326.964.41 1.689.39 3.381.662 5.144.915.233.008.533.113.545.416.082.284-.134.462-.35.64-.313.246-.642.303-.996.407-.636.186-1.389-.285-1.88.396-.026.046-.163-.03-.208-.054-.204-.171-.441-.064-.674-.072-.491.028-.982.056-1.443-.077-.553-.184-1.131-.323-1.739-.299-1.99-1.03-3.96-1.99-5.63-3.499-1.512-1.362-2.661-3.061-3.957-4.603-.693-.795-1.17-1.77-1.505-2.785-.5-1.581-.444-3.095.311-4.583.43-.894.86-1.788 1.382-2.631A10856.827 10856.827 0 0026.58 43.015c.826-1.509 1.86-2.963 2.458-4.597.443-1.243.515-2.57 1.004-3.788.31-.781.573-1.588.882-2.37.15-.274.154-.39.134-.461zM14.135 83.324c.869.476 1.156.277 1.216-.7.038-.396-.024-.608-.365-.854a3.63 3.63 0 01-.718-.75c-.847-1.058-2.006-1.87-2.828-2.975-.245-.312-.528-.23-.77-.005-.458.403-.334.827.202 1.477.693.796 1.337 1.683 1.98 2.57.423.529.78.962 1.283 1.237zm5.174-7.388c.196-.249.255-.573.03-.815-.493-.508-1.012-.97-1.507-1.479-.63-.583-1.242-1.096-1.848-1.725-.473-.438-.636-.467-1.027.032-.296.432-.172.856.118 1.194.847 1.058 1.765 2.095 2.803 3.02.61.513 1.056.46 1.431-.227zM12.274 86.94c.228.126.345.13.582.022.479-.332.476-.868-.018-1.377-.428-.412-.83-.87-1.209-1.374-.846-1.058-1.793-1.933-2.544-3.058-.133-.191-.291-.337-.528-.23-.238.108-.408.312-.326.595.017.187.104.354.19.52.507.812.967 1.6 1.544 2.39.619.933 1.428 1.733 2.309 2.512zm3.889-7.319c.295.221.598.21.844-.132.221-.295.326-.594.035-.931-1.08-1.067-2.089-2.154-3.168-3.22-.204-.172-.378-.505-.645-.235-.266.27-.37.57-.105.953.49.624.93 1.34 1.49 1.945.419.645.984 1.133 1.549 1.62z" fill="#C1C1C1"/>
  <path d="M25.497 80.156c-.358.22-.537.003-.524-.346.026-.699.767-1.184 1.457-.925.736.284 1.451.497 2.246.457l.07-.021c1.093.717 1.386-.251 1.899-.862.196-.25.134-.462-.12-.541-.644-.234-1.289-.468-1.912-.631-.416-.11-.786-.193-1.152-.393-.32-.175-.59-.442-.385-.924.204-.483.517-.727 1.024-.569.644.234 1.268.398 1.892.56.532.114.977.06 1.468.032.187-.016.379-.149.413-.427.029-.163.083-.37.23-.528.245-.341.279-.62-.158-.8-.137-.074-.132-.19-.128-.307.649.117 1.252.21 1.85.419.437.18.637-.186.767-.532.154-.39-.05-.561-.394-.69-.254-.08-.583-.022-.807-.264.075-.137.171-.204.338-.29.62-.374.767-1.185.435-1.664-.179-.217-.487-.088-.665-.305.267-.27.516-.074.77.006.41.225.897.313 1.359.447.67.188.737-.37.962-.78.225-.412-.19-.52-.465-.671-.137-.075-.37-.084-.532-.113-.482-.205-1.048-.04-1.551-.315.096-.066.17-.203.333-.174.67.188 1.078-.123 1.449-.692.246-.34.25-.457-.116-.658-.228-.125-.528-.23-.469-.554.695.143 1.368.215 1.963.54.32.175.669.188.894-.223.421-.66.293-.969-.513-1.232-.553-.184-1.14-.09-1.689-.39.38-.149.729-.136 1.12.019.253.08.648.117.748-.066.155-.39.584-.631.485-1.101-.042-.142-.133-.192-.225-.242l-1.554-.851c-.366-.2-.72-.097-.945.315-.254.573-.576 1.051-.876 1.6-.304.012-.203-.171-.128-.308l.926-1.692c.1-.183.287-.199.454-.286.495-.145.695-.51.48-.985-.108-.237-.008-.42.092-.603l.801-1.463c.126-.229.292-.316.596-.328.582.022.807-.39.525-.96-.087-.166-.128-.308.064-.44.215.474.731.4 1.076.53-.096.066-.192.132-.242.223-.196.25-.629.607-.313.898.636.467 1.317.96 2.157.944.466.017.691-.394.775-.764.109-.416-.19-.52-.49-.625-.37-.084-.765-.122-1.035-.388a.407.407 0 01.283-.083c.512.042.957-.011 1.12-.635.139-.578-.01-.957-.539-1.186-.137-.075-.274-.15-.34-.246.216-.179.374-.033.557.067.411.225.802.38 1.264.514.553.184.936-.082 1.099-.706.184-.552-.161-.682-.623-.816-.37-.084-.765-.122-1.035-.388.1-.183.283-.083.4-.079.47-.099.716-.44.825-.855.08-.254.138-.578-.136-.729-1.189-.65-1.496-1.175-2.205.338l-.05.092c-.392.498-.264.806.29.99-.388.382-.66.769-.727 1.326l-.624-.163c.25-.458.988-.827.406-1.501-.045-.025.08-.254.13-.345l.45-.823c.226-.412.38-.803.992-.943.4-.078.58-.515.339-.944-.087-.166-.175-.333-.074-.516.3-.548.488-1.218 1.038-1.57.883-.527.78-1.534 1.18-2.266.126-.228-.103-.353-.24-.429l-1.828-1c-.183-.101-.462-.135-.312-.409l2.469 1.352c.366.2.52.462.294.874-.15.274-.063.44.211.59l.503.276a.526.526 0 01-.12.112c-.487-.088-.596.328-.7.627-.13.345.19.52.489.625.412.225.827.334 1.239.56.457.25.673.071.828-.32.154-.39.33-.71-.173-.986-.274-.15-.745-.05-.894-.43.188-.016.4-.078.562-.049.67.189.803-.273.958-.664.154-.39-.116-.657-.436-.832-.091-.05-.228-.125-.199-.288.42-.007.736.284 1.056.46.482.204.86.055 1.095-.59.18-.436.147-.81-.406-.994-.254-.08-.482-.205-.69-.26-1.522-.476-2.964-1.206-4.431-1.89-1.467-.685-2.884-1.461-4.106-2.486.263-.154.441.063.624.163 1.874 1.026 3.724 2.098 5.648 3.033.64.35 1.4.589 2.12.686.512.042.778-.228.979-.594.25-.457-.262-.5-.51-.695-.454-.367-1.082-.414-1.46-.918.97.293 1.888.677 2.736 1.082.436.18.736.284 1.057-.194.425-.777.43-.893-.14-1.265.409-.31.537-.003.736.285.154.262.245.312.532.113.504-.378 1.004-.64 1.33-1.234.2-.365.615-.257 1.073-.006-.012-.304.138-.578-.353-.55-.142.041-.324-.059-.436-.18-.819-.567-1.771-.672-2.644-1.031-1.035-.389-2.05-.706-3.01-1.232-2.128-1.106-4.256-2.212-6.138-3.658-1.337-1.03-2.58-2.126-3.871-3.13-1.43-1.08-2.942-1.79-4.819-1.51-.445.054-.91.036-1.273.373.067-.558.526-.96.822-1.393a502.46 502.46 0 014.301-7.747c1.147-1.986 2.942-3.202 5.193-3.515 1.219-.164 2.434-.212 3.673-.306.936-.081 1.673-.45 2.149-1.32l1.464-2.347c.286.454-.143.694-.318 1.014-.446.707-.892 1.413-.366 2.296.46.787.26 1.153-.614 1.447-.353.103-.433.357-.674.58-.196.25-.554.47-.796.694-.096.067-.262.154-.15.275.087.166.208.054.324.058.42-.007.795-.04.844.522-.092-.05-.183-.1-.258.037 0 0-.025.046.02.07.138.076.188-.016.238-.107.582.021 1.132-.331 1.676.086-.05.091-.125.228-.287.199-1.252-.21-2.293.17-2.985 1.218-.371.57-.4.732-.84 1.858-.528.424-.67 1.118-1.063 1.617-.458.402-.667 1.001-.988 1.479-.196.25-.554.47-.405.848l-.5.914c-.15.274-.488.565-.247.994-.013.35-.239.76-.11 1.069.273.803.713 1.52 1.49 1.945 2.443 1.397 4.983 2.728 7.426 4.126.823.45 2.95-.287 3.3-.927.701-1.28 1.56-2.414 2.307-3.67.85-1.553 1.956-3.028 2.395-4.808.15.379.136.728-.064 1.094-.876 1.6-1.707 3.225-2.628 4.8-.372.57-.834 1.089-1.16 1.683-.396.615-.285 1.389-.772 1.954-.171.203-.23.528-.584.631-.212.062-.337.29-.254.574.094.587-.318 1.014-.871.83-.345-.13-.674-.071-1.044-.155.103.354.386.27.57.371 1.092.717 2.369.882 3.462 1.599 1.092.717 2.09 1.5 3.011 2.421.179.217.453.367.702.563.138.075.163.03.283-.083.492-.681 1.1-1.358 1.547-2.065.496-.797 1.196-1.425 1.555-2.297.1-.183.18-.437.28-.62.104-.3.26-.69.7-.627l-3.618 6.933c-.25.457-.526.96-.959 1.317.3-.549.484-1.102.182-1.743-.216-.474-.615-.396-.914-.5-.37-.084-.176.32-.367.452-.121.113-.2.366-.321.478-.77.648-1.089 1.663-1.996 2.235-.717.44-1.259 1.213-1.842 1.844-.584.632-1.35 1.163-1.293 2.145.016.187-.134.461-.3.548-.404.195-.559.586-.76.952l-2.878 5.257c-.15.274-.3.549-.608.677a.565.565 0 00-.276.503c.1.47-.172.857-.439 1.127-.387.382-.52.843-.726 1.325-.58 1.168-1.089 2.316-1.852 3.384-.246.34-.7.627-.717 1.093-.165 1.276-.969 2.203-1.611 3.158-.271.387-.18 1.09-.817 1.276.09.703-.464 1.172-.719 1.746-.58 1.168-1.505 2.207-1.674 3.6l-.05.091c-.275.503-.683.814-.959 1.317l-1.577 2.88-2.053 3.75c-.575 1.051-1.36 2.048-1.544 3.254-.055.208-.159.507-.396.615-.308.129-.434.357-.467.636-.272 1.04-.819 1.929-1.32 2.843l-.876 1.6c-.1.183-.246.34.029.491.137.075.174.333.411.225.167-.087.105-.299.134-.461.034-.279.312-.245.57-.282-.104.3-.254.574-.405.848-.104.3-.487.565-.338.944-.589 1.4-1.825 2.03-3.21 2.282-1.27.256-2.526.163-3.832.16-2.076-.007-4.122-.177-6.03-.924a2.532 2.532 0 01-.574-.255c.608-.024 1.185.114 1.738.298a2.77 2.77 0 001.444.077c.258-.037.47-.099.674.072.045.025.207.055.207.055.538-.657 1.27-.256 1.881-.397.354-.103.683-.16.995-.406.262-.153.408-.311.35-.64-.082-.283-.336-.362-.544-.417-1.717-.227-3.41-.5-5.144-.915-.324-.058-.694-.142-.964-.409.192-.133.354-.103.537-.003.897.313 1.87.49 2.798.64 1.784.324 3.627.323 5.42.413.465.017.802-.273.724-.673-.078-.4-.448-.483-.848-.405a7.489 7.489 0 01-1.593.197c-.816-.03-1.635.056-2.392-.299.683-.16 1.357-.09 2.03-.017.836.1 1.053-.078 1.2-.889.088-.486.197-.902.027-1.352.054-.207.17-.203.404-.194.395.038.836.1 1.23.139.396.038.683-.161.676-.581-.012-.304-.166-.566-.586-.559-.42.008-.81-.147-1.206-.185.363-.336.426-.777.651-1.188.205-.483-.036-.911-.522-1-1.044-.155-2.163-.174-3.203-.446-.253-.08-.457-.25-.685-.375-.545-.417-1.015-.318-1.34.276-.45.823-.972 1.667-1.377 2.515-.28.62-.784.997-1.175 1.496-.342.407-.87.177-1.332.043-.644-.234-.976-.713-1.329-1.262-.199-.288-.382-.388-.71-.33-.562.049-.948-.222-1.068-.763.453.367.902.197 1.352.027.687-.277.687-.277.777.426.02.07.041.141.037.258.165.566.472 1.09 1.12 1.208.72.097 1.22-.165 1.595-.85l.701-1.28c.176-.32.305-.666-.06-.866-.412-.225-.612.14-.808.39-.271.386-.45.823-.676 1.234-.125.229-.321.478-.595.328-.275-.15-.287-.454-.162-.683l.276-.502 2.653-4.847c.426-.777.244-1.53-.579-1.98-.457-.25-.843-.522-1.375-.635.145-.158.337-.29.3-.549l.229.126c1.017.854 2.306 1.322 3.47 2.018.274.15.557.068.778-.227.125-.229.18-.437-.095-.587-1.355-.564-2.43-1.747-3.982-2.061.146-.158.267-.27.413-.428.3.105.62.28.948.222l3.87-.555c.257-.037.565-.166.815.03-.733.253-1.45.692-2.269.779-.445.053-1.052.077-1.14.563-.038.395.61.513.93.688.457.25.869.476 1.01 1.088.115.657-.181 1.09-.876.947-.461-.134-.927-.152-1.31-.54-.178-.216-.502-.275-.428.242.058.328-.23.527-.31.781-.108.416-.263.807.265 1.036-.054.208-.22.295-.404.195-.137-.075-.324-.059-.424.124-.1.183.037.258.15.379.223.242.169.45-.002.653-.178-.216-.444-.6-.665-.305-.442.59-.772 1.301-1.122 1.941.566-.165 1.061-.31 1.336-.813.353.55.47.554.84-.015.176-.32.214-.715.75-.719.816.03.795-.04.497-.798.432.296.832.218 1.322.19.678-.045 1.394.168 2.063.357.416.108.857.171 1.297.235.79.076 1.545-.76 1.222-1.471-.216-.475-.748-.588-1.255-.747-.462-.133-.973-.176-1.48-.335-.3-.104-.811-.147-.744-.704.067-.557.45-.823 1.054-.73.44.063.927.15 1.318.305.69.26 1.514.057 2.2.432-1.153.26-2.188-.128-3.253-.354-.324-.06-.62-.28-.799.156-.18.437.24.43.47.555.09.05.207.054.299.104l3.817.842c.416.109.724-.02.832-.435.11-.416-.19-.52-.464-.67-.3-.105-.608.023-.903-.198.52-.19 1.017-.988.922-1.575-.016-.187-.153-.262-.336-.362-.183-.1-.462-.134-.286-.454.237-.108.466.017.72.097.415.109.856.172 1.272.28.532.114.69-.394.795-.693.11-.416-.286-.454-.565-.487-1.434-.31-2.898-.459-4.283-.86-.299-.105-.445.053-.616.257-.545.236-.483.448-.28.62zM37.98 62.568c-.171.203-.375.032-.562.049-.42.007-.641.302-.77.647-.13.345.194.404.423.53.57.37 1.288.467 1.912.63.507.16.733-.252.887-.643.18-.436-.12-.54-.394-.691-.478-.321-1.064-.226-1.496-.522.287-.2.59-.212.91-.036.275.15.533.113.704-.09.196-.25.255-.574.313-.899.034-.278-.29-.337-.473-.437-.092-.05-.204-.171-.295-.221-.952-.759-1.467-.685-2.135.317l-.1.183c-.37.569-.222.948.406.994a.83.83 0 01.67.189zM21.712 87.176c.137.075.274.15.437.18 1.638.48 3.314.566 4.986.769.324.058.707-.207.72-.556.013-.35-.378-.504-.635-.467-.961.127-1.784-.324-2.716-.358-.815-.03-1.622-.294-2.478-.466-.325-.059-.541.12-.692.394-.13.345.15.379.378.504zm6.057-10.41c.998.13 2.05.706 3.185.911.395.038.781.31 1.227.256.49-.028.686-.278.704-.744.042-.511-.378-.503-.682-.491-1.144.027-2.25-.34-3.339-.522-.324-.058-.64-.35-.994-.247-.258.037-.312.245-.412.428-.1.183.083.283.311.408zm17.07-24.23c-.05-.56-.173-.985.073-1.326.025-.046.03-.162-.037-.258-.282-.57-.91-.617-1.417-.776-.37-.084-.363.336-.509.494-.196.25-.3.549-.45.823-.226.412-.068.557.327.596.603.092 1.31-.115 2.013.448zm-1.845 1.308c.482.205.919.384 1.4.589.508.159.708-.207.909-.573.15-.274.35-.64-.132-.844a20.228 20.228 0 00-1.684-.506c-.578-.139-.758.298-.912.689-.275.503.24.429.419.645z" fill="#D1D1D1"/>
  <path d="M29.423 95.558c-.124-.425.234-.645.339-.944.104-.3.3-.549.404-.848-.258.037-.536.003-.57.282-.03.162.033.374-.134.462-.212.062-.274-.15-.411-.226-.229-.125-.104-.353-.028-.49l.876-1.6c.5-.915 1.047-1.804 1.319-2.844.08-.253.204-.482.467-.636.237-.107.387-.382.396-.615.21-1.251.969-2.203 1.544-3.254l2.053-3.75 1.577-2.88c.25-.457.73-.788.96-1.317l.05-.09c.214-1.37 1.139-2.408 1.673-3.6.255-.574.809-1.043.719-1.747.636-.186.546-.889.817-1.275.642-.956 1.472-1.928 1.61-3.16.064-.44.472-.751.718-1.092.763-1.068 1.343-2.236 1.853-3.383.204-.482.338-.944.726-1.326.266-.27.537-.656.438-1.127-.062-.212.11-.416.276-.502.308-.129.458-.403.608-.678l2.879-5.257c.2-.366.355-.757.758-.952.167-.087.317-.361.3-.548-.03-1.028.71-1.513 1.294-2.145.583-.63 1.125-1.404 1.842-1.844.907-.572 1.225-1.587 1.996-2.234.12-.113.175-.32.32-.478.147-.158-.048-.562.368-.453.299.104.698.026.914.5.302.642.119 1.195-.182 1.743-.442.59-.909 1.226-1.396 1.79l-.046-.024-.05.091c-.517.727-1.192 1.309-1.887 1.82-.53.423-.921.921-1.292 1.49-1.94 3.217-3.676 6.605-5.524 9.871-6.12 10.852-12.195 21.728-18.315 32.58-.075.137-.15.274-.246.34-.116-.004-.141.042-.075.138.137.075.087.166.062.212z" fill="#C1C1C1"/>
  <path d="M31.06 31.799c.04.141-.01.233-.105.3-.041-.142.009-.234.104-.3zM29.524 95.375c-.021-.07.004-.117.075-.137l-.075.137zM56.887 49.09l.05-.09.046.025s-.07.02-.096.066z" fill="#D1D1D1"/>
  <path d="M44.673 24.516c.25-.457.53-1.076.902-1.646.738-1.022 1.732-1.428 2.984-1.218.162.03.237-.108.287-.2 1.689.39 2.93 1.486 4.368 2.333a47.614 47.614 0 003.383 1.852c.985.48 1.42 1.313 1.76 2.212.042.142-.059.325-.088.487-.44 1.78-1.544 3.254-2.395 4.809-.702 1.28-1.56 2.414-2.307 3.67-.35.64-2.477 1.376-3.3.926-2.444-1.398-4.983-2.729-7.426-4.126-.732-.4-1.217-1.142-1.49-1.945-.129-.308.096-.72.11-1.07l5.074 2.78c.274.15.548.3.749-.066.446-.706.867-1.367 1.267-2.099.276-.503-.056-.981-.638-1.003-.395-.038-.48.332-.604.56-.271.387-.53.424-.94.199-1.347-.797-2.744-1.502-4.09-2.299-.124-.424.209-.599.405-.848.32-.478.53-1.076.988-1.48l1.001-1.828zM50.32 35.69c.732.4 1.676.086 2.056-.716a1.37 1.37 0 00-.629-1.89c-.64-.35-1.584-.036-1.935.604-.426.777-.248 1.647.508 2.002z" fill="#C3C3C3" fill-opacity=".4"/>
  <path d="M38.294 58.52c-.191.133-.15.275-.063.441.282.57.057.982-.525.96-.304.013-.446.054-.596.328l-.8 1.463c-.1.183-.201.366-.093.603.215.475-.01.886-.48.985-.213.062-.354.104-.454.287l-.926 1.691c-.075.137-.176.32.128.308.295.221.62.28.969.293.02.07.091.05.162.03.046.024.046.024.091.05.549.3 1.136.205 1.688.389.761.238.89.546.514 1.232-.225.412-.574.398-.894.223-.595-.325-1.314-.422-1.963-.54l-.548-.3c-.158-.146-.366-.2-.583-.022l-.212.062c-.495.145-1.383 1.442-1.31 1.958.017.187.2.287.387.27.37.084.749-.065 1.09.181.502.276 1.068.11 1.55.315.138.075.37.084.533.113.3.104.644.234.465.67-.2.366-.268.923-.963.78-.461-.133-.902-.196-1.36-.446-.182-.1-.502-.276-.769-.006l-.502-.275c-.848-.405-1.248-.327-1.744.471-.271.387-.45.823-.651 1.189-.042.511.261.5.66.421.725-.02 1.465.148 2.18.361.224.242.553.184.806.264.345.13.524.346.394.69-.13.346-.375.687-.766.532-.599-.209-1.272-.28-1.85-.419-.578-.138-1.056-.46-1.638-.48-.304.011-.537.002-.687.277-.18.436-.504.377-.824.202-2.377-1.301-4.73-2.649-7.107-3.95-.041-.142-.149-.38-.099-.47.588-.748-.098-1.124-.43-1.603-.132-.191-.245-.312-.427-.412-.362-.317-.582-.675-.61-1.166-.012-.304.205-.482.408-.311.54.533 1.347.796 1.861 1.375.27.267.366.2.491-.028l.852-1.554c.075-.138.175-.32-.008-.42-.436-.18-.51-.696-.901-.85-.204-.172-.407-.342-.565-.488.059-.325-.195-.404-.373-.62-.337-.363-.86-.71-.51-1.35l.1-.182c.516-.074.782.309 1.097.6.657.538 1.313 1.076 2.015 1.639.508-.495.767-1.185 1.118-1.825.05-.091.08-.253-.012-.303-.39-.155-.444-.6-.668-.842-.245-.312-.657-.537-.806-.916-.174-.333.022-.583.239-.761.17-.204.42-.008.532.113.427.413.91.617 1.413.893.062.212.203.17.278.033.321-.477.597-.98.918-1.458.1-.183.2-.366-.074-.516-.54-.533-.98-1.25-1.736-1.605-.046-.025-.137-.075-.158-.145.004-.117-.016-.188-.154-.263-.523-.346-.252-.732-.006-1.073.296-.432.561-.049.79.076.731.4 1.242 1.096 2.07 1.43-.03.163-.06.325.078.4.137.075.191-.133.241-.224a19 19 0 01.872-1.484c.1-.183.175-.32-.028-.491.004-.117-.087-.166-.154-.262-.702-.563-1.304-1.309-1.91-1.938-.224-.241-.078-.4.047-.628.075-.137.154-.39.383-.265.893.43 1.737.95 2.385 1.722.02.07.087.166.158.145.578-.515.883-1.18 1.213-1.89.125-.229-.133-.192-.25-.196-.381-.388-.617-.933-1.216-1.142l-.137-.075c-.133-.192-.311-.408-.444-.6-.444-.6-.26-1.153.493-1.334l.457.25c.49.625 1.15 1.046 1.811 1.467.02.07.133.192.183.1.462-.519.788-1.113 1.068-1.733.125-.228-.133-.191-.25-.196l-.336-.362c-.046-.025-.066-.096-.066-.096.008-.233-.058-.329-.29-.337-.716-.214-1.019-.855-1.442-1.384-.2-.287.188-.67.384-.918.196-.25.4-.079.628.046l.732.4c.236.546.935.572 1.22 1.026.379.504.529.23.704-.09.376-.686.797-1.347 1.152-2.103.15-.274.574-.399.45-.823.267-.27.33-.71.667-1.002.732.4 1.363.984 2.174 1.131l.366.2c.041.142.133.192.274.15.366.2.731.401 1.026.622-.029.162.037.258.229.125.32.175.594.326.89.547-.105.299.173.333.31.408l1.83 1.001c.182.1.365.2.24.429-.447.706-.299 1.738-1.181 2.265-.525.307-.693 1.047-1.039 1.57-.1.184-.058.325.074.517.24.429.036.91-.338.944-.612.14-.72.556-.992.942l-.45.823c-.05.091-.15.274-.13.345.556.72-.155 1.044-.406 1.501-.116-.004-.278-.033-.395-.038-.587.095-.65.536-.692 1.047-.317.362-.467.636-.547.89zM50.33 42.945c.544.416.564.487.139 1.264-.276.503-.575.399-1.057.194-.894-.43-1.813-.814-2.736-1.081l-.32-.176c-1.812-.814-3.478-1.786-5.215-2.737-.366-.2-.606-.629-1.118-.671-.204-.171-.432-.296-.636-.467l-2.044-1.476c-.183-.1-.34-.246-.523-.346-.394-.691.01-1.54.734-1.559.366.2.707.446 1.072.646.2.288.52.463.84.638.386.271.843.522 1.23.793.153.262.357.433.61.512.777.426 1.575.922 2.352 1.348.042.141.087.166.229.125l.32.175c.108.237.29.337.548.3.595.326 1.26.63 1.854.956.478.321 1.006.55 1.538.664.274.15.574.255.894.43.345.13.685.375 1.106.368l.182.1zM39.274 41.646a21.14 21.14 0 004.106 2.486c1.467.684 2.91 1.414 4.431 1.891.254.08.482.205.69.26.507.158.61.512.406.994-.28.62-.638.84-1.095.589-.345-.13-.636-.467-1.056-.46l-.228-.125c-.229-.125-.407-.341-.736-.284-.254-.08-.532-.113-.76-.238-1.859-.839-3.712-1.795-5.445-2.862-.89-.547-1.829-1.002-2.618-1.73-.673-.726-1.587-1.226-2.31-1.86.005-.116-.016-.187-.012-.303.025-.046.121-.112.146-.158.121-.112.242-.224.226-.412.025-.045.029-.162.054-.208.096-.066.191-.132.262-.153.549.3 1.168.58 1.642 1.017.656.538 1.337 1.03 2.115 1.456.07-.021.09.05.182.1zM17.142 81.524c.486.088.918.384 1.376.634.752.471 1.004 1.204.579 1.981a211862.49 211862.49 0 01-2.93 5.35c-.104.298-.138.577.162.682.274.15.47-.1.595-.328.226-.412.405-.848.676-1.234.196-.25.442-.59.808-.39.365.2.236.545.06.865l-.7 1.28c-.376.686-.875.947-1.595.85-.674-.071-.98-.596-1.12-1.208a.72.72 0 01-.038-.258c-.09-.703-.09-.703-.777-.425-.45.17-.9.34-1.352-.027.1-.183.271-.387.234-.645.217-.178.408-.311.67-.465.23.126.33-.057.404-.194.046.025.117.004.167-.088.091.05.116.005.141-.04 1.69-.918 2.613-2.493 3.443-4.118.175-.32.067-.557-.182-.753-.158-.146-.32-.175-.478-.321-.665-.305-.697-.68-.143-1.148z" fill="#E1E1E1" fill-opacity=".6"/>
  <path d="M21.152 94.06c.756.354 1.601.222 2.391.299a7.487 7.487 0 001.594-.197c.4-.079.77.005.848.404.078.4-.26.69-.725.673-1.793-.09-3.636-.089-5.42-.412a24.031 24.031 0 01-2.798-.641c-.208-.054-.37-.084-.537.003l-.182-.1c-.204-.17-.357-.433-.695-.142l-.32-.176c-.128-.308-.357-.433-.665-.304l-.503-.276c-.178-.216-.407-.341-.731-.4l-.32-.175c-.033-.375-.286-.454-.615-.397l-.229-.125c.125-.228-.082-.283-.194-.403-.499-.392-.927-.805-1.4-1.242-.947-.875-1.678-1.929-2.529-2.87-.423-.53-.847-1.058-1.078-1.72-.087-.167-.195-.404-.004-.537.263-.153.32.175.387.271.597.862 1.482 1.525 1.959 2.5.282.57.997.783 1.304 1.307.863 1.246 2.047 2.013 3.302 2.76 1.824 1.117 3.812 1.611 5.9 1.922.42-.007.831.218 1.26-.022zM23.864 79.558c-.25-.195-.557-.067-.815-.03l-3.87.555c-.328.058-.648-.117-.948-.221-.02-.071.005-.117-.016-.188.025-.045.05-.091.004-.116l.25-.457c.026-.046.026-.046.096-.067.071-.02.096-.066.167-.087.046.025.07-.02.117.004.482.205.86.056 1.086-.355.296-.433.571-.936.867-1.368.196-.249.388-.382.708-.206.32.175.311.408.206.707l-.275.503c-.075.137-.15.274-.038.395.112.12.208.054.35.013.328-.058.657-.115 1.006-.102.961-.128 1.066-.427.726-1.326-.344-.783-.83-1.524-1.032-2.348-.082-.283-.049-.562.26-.69.307-.129.536-.003.664.305.063.212.17.45.303.64.307.525.306 1.178.875 1.55-.1.183-.08.253.129.308.04.141.107.237.149.378-.171.204-.034.28.149.38-.025.045.02.07-.005.116-.259.69-.559 1.238-1.113 1.707z" fill="#E1E1E1" fill-opacity=".6"/>
  <path d="M22.643 64.748c.416.109.465.67.901.85.137.075.083.283.008.42l-.851 1.554c-.125.229-.221.295-.491.029-.54-.534-1.3-.772-1.861-1.376-.158-.146-.396-.038-.409.311.029.491.248.85.61 1.166.158.146.34.246.428.413.332.479.992.9.43 1.602-.05.091.057.329.099.47-.624-.163-.6.444-.821.74-.196.248-.017.465.186.636.224.242.448.483.157.799-.104-.354-.278-.687-.573-.908-.789-.73-1.532-1.433-2.321-2.163-.204-.17-.403-.458-.69-.259-.288.2-.089.487.09.704.577.79 1.25 1.516 1.947 2.195.112.12.25.196.174.333-.827-.334-1.554-.851-1.964-1.73-.087-.166-.316-.291-.449-.483-.245-.312-.606-.629-.356-1.086.355-.757.613-.794 1.27-.256.544.417.871 1.012 1.466 1.338.502.275.74.167.807-.39a.753.753 0 01.084-.37c.284-.736.251-1.11-.43-1.602-.386-.271-.627-.7-.988-1.017-.179-.217-.332-.479-.203-.824.384-.919.717-1.093 1.386-.251.423.529.976.712 1.454 1.034.274.15.37.083.566-.166.371-.57.393-1.151.344-1.713zM21.151 94.06c-.428.24-.84.015-1.28-.048-2.088-.311-4.1-.76-5.9-1.923-1.255-.747-2.414-1.56-3.302-2.76-.378-.503-1.022-.737-1.304-1.308-.477-.974-1.387-1.59-1.96-2.499-.112-.12-.17-.45-.386-.27-.166.087-.059.324.003.536.232.662.656 1.19 1.08 1.72.825.987 1.58 1.995 2.528 2.87.473.437.926.804 1.4 1.242.111.12.32.175.194.403-1.051-.575-1.857-1.492-2.642-2.337-1.278-1.354-2.532-2.754-3.378-4.465a11.572 11.572 0 01-.431-.95c-.129-.307-.07-.632.238-.76.263-.153.487.088.595.325 1.016 1.508 2.224 2.883 3.362 4.278 1.295 1.541 2.686 3.016 4.469 3.992 1.9.98 3.978 1.525 6.09 1.79.234.009.421-.007.624.163zM25.61 57.161c.73.4 1.15 1.046 1.735 1.604-.35.64-.726 1.326-1.122 1.941-.503-.275-1.03-.505-1.413-.892-.112-.121-.361-.317-.532-.114-.17.204-.412.428-.238.761.195.404.56.604.805.917.2.287.278.687.669.841.091.05.062.212.012.304-.35.64-.61 1.33-1.118 1.824-.702-.562-1.359-1.1-2.015-1.638-.34-.246-.606-.629-1.097-.6.225-.412.625-.49.91-.037.354.55.931.688 1.41 1.01.137.074.274.15.465.017.458-.403.56-1.239.203-1.672-.403-.458-.83-.87-1.234-1.33-.336-.362-.223-.894.17-1.392.366-.453.657-.116.906.08.432.296.743.704 1.246.98.457.25.72.096.92-.27.375-.685.292-.968-.355-1.739-.154-.262-.336-.362-.328-.595z" fill="#D1D1D1"/>
  <path d="M24.927 90.422c.395.038.785.192 1.206.184.42-.007.573.255.585.559.008.42-.28.62-.675.581-.395-.038-.815-.03-1.23-.14-.209-.053-.35-.012-.405.196-.207-.055-.39-.155-.598-.21-.092-.05-.092-.05-.187.017a.966.966 0 01-.37-.084c-.158-.145-.296-.22-.466-.017-.973-.176-1.967-.423-2.94-.6-.325-.058-.72-.096-.632-.583.064-.44.372-.57.813-.506 1.089.18 2.174.478 3.268.542.557.067 1.094.064 1.63.06z" fill="#E1E1E1" fill-opacity=".6"/>
  <path d="M34.66 40.307c.769.659 1.638 1.134 2.31 1.86-.084.37-.305.664-.571.934-.267.27-.675.581-.272 1.04.124.424-.3.548-.451.823-.33.71-.705 1.396-1.152 2.103-.175.32-.325.594-.703.09-.311-.408-1.01-.434-1.22-1.025l.045.025c.416.109.697.679 1.151.393.454-.287.709-.86.776-1.417.64.35.708-.207.954-.548.22-.295.28-.62-.061-.865a20.189 20.189 0 00-1.504-.943c-.137-.075-.275-.15-.466-.017-.363.336-.38.802-.044 1.164.112.121.133.192.104.354l-.229-.125c-.752-.471-.763-1.428-.022-1.914.192-.132.375-.032.512.043l1.097.6c.32.176.532.114.708-.206.475-.869.438-1.127-.609-1.82-.203-.17-.624-.162-.352-.549zM14.136 83.324c-.503-.275-.835-.754-1.192-1.187-.643-.887-1.311-1.728-1.98-2.57-.535-.65-.614-1.05-.201-1.477.242-.224.525-.307.77.005.821 1.104 1.935 1.892 2.827 2.975.2.287.424.53.719.75.295.221.377.504.364.853-.176.974-.438 1.127-1.307.651zm-2.78-4.255c.033.374.116.657.34.899.684 1.028 1.536 1.97 2.437 2.82.203.17.357.433.578.138.196-.25.204-.482-.02-.724-.764-.775-1.457-1.57-2.221-2.345-.316-.292-.532-.767-1.114-.788z" fill="#D1D1D1"/>
  <path d="M25.497 80.156c-.249-.196-.265-.383-.115-.657.15-.275.317-.362.616-.257 1.384.401 2.848.55 4.283.86.279.033.674.071.565.487-.13.345-.218.831-.796.693-.44-.063-.856-.172-1.272-.28-.254-.08-.482-.205-.72-.097l-.182-.1c-.25-.196-.503-.276-.786-.193l-.183-.1c-.25-.196-.503-.276-.786-.193a1.388 1.388 0 01-.624-.163z" fill="#E1E1E1" fill-opacity=".6"/>
  <path d="M24.554 76.669c-.57-.371-.568-1.025-.875-1.55-.133-.19-.195-.403-.303-.64-.128-.308-.357-.433-.665-.305-.308.128-.317.361-.259.69.202.824.688 1.565 1.032 2.348.364.853.19 1.173-.726 1.326-.329.057-.633.07-1.007.102-.116-.004-.283.083-.35-.013-.111-.12-.036-.258.039-.395l.275-.503c.105-.3.113-.532-.207-.707-.32-.176-.511-.043-.707.206-.296.433-.617.91-.868 1.368-.296.432-.604.56-1.086.356.853-.365 1.275-1.026 1.654-1.828.226-.411.655-.652 1.141-.564.532.113.752.471.614 1.05-.03.162.008.42.236.545.208.054.42-.008.587-.095.191-.133.154-.39.067-.557-.252-.733-.459-1.44-.924-2.11-.311-.41-.048-1.216.356-1.41.5-.262.84-.016 1.127.438.419.645.93 1.341.849 2.248zM19.31 75.936c-.4.732-.846.785-1.456.273-1.064-.88-1.91-1.938-2.803-3.02-.29-.338-.415-.762-.119-1.195.392-.498.58-.514 1.028-.031.56.604 1.217 1.142 1.848 1.725.52.462 1.084.95 1.508 1.479.274.15.19.52-.006.77zm-.386-.27c.1-.183.109-.416-.14-.612l-2.505-2.263c-.112-.12-.25-.196-.391-.154-.166.087-.104.299-.134.461-.03.162.083.283.15.379.617.933 1.427 1.733 2.287 2.441.407.342.558.068.733-.253zM12.274 86.94c-.835-.754-1.69-1.579-2.333-2.466a58.89 58.89 0 01-1.544-2.39c-.087-.167-.174-.333-.19-.52a.548.548 0 01.325-.595c.237-.107.395.038.528.23.751 1.124 1.698 2 2.545 3.057l1.208 1.375c.494.508.497 1.045.018 1.377-.187.016-.374.032-.557-.068zm-2.867-4.422c.061.865.601 1.399 1 1.974.51.695 1.141 1.278 1.747 1.907.113.121.316.292.487.089.146-.158.246-.341.068-.558-.113-.12-.2-.287-.312-.408-.585-.558-1.075-1.183-1.636-1.787-.382-.388-.639-1.004-1.354-1.217zM29.925 50.907c.528.23.835.755 1.217 1.142l-1.076 1.966c-.648-.77-1.492-1.292-2.385-1.722-.229-.125-.308.129-.383.266-.1.183-.271.386-.047.628.652.654 1.208 1.375 1.91 1.937.091.05.183.1.153.262-.553.47-.675 1.235-1.163 1.8-.806-.264-1.338-1.03-2.07-1.43-.228-.125-.493-.508-.79-.076-.245.34-.516.727.007 1.073.092.05.158.146.154.262-.42.008-.686-.375-.698-.679-.008-.42.31-.782.626-1.143.12-.112.278.034.416.109.527.23.91.617 1.362.984.52.462.777.425 1.128-.215.476-.868.476-.868-.243-1.618-.336-.363-.627-.7-.963-1.063-.224-.241-.216-.474-.111-.773.405-.848.476-.87 1.273-.373l.823.45c.366.201.682.493 1.053-.077.471-.752.526-.96-.04-1.447-.187.016-.253-.08-.153-.263z" fill="#D1D1D1"/>
  <path d="M17.818 80.29c1.506.289 2.581 1.472 3.982 2.06.3.105.22.359.095.587-.176.32-.459.403-.779.228-1.163-.697-2.406-1.14-3.47-2.019l-.228-.125c.025-.046-.02-.07.004-.117.125-.228.226-.411.396-.615zM19.657 72.264c.055-.208-.037-.258-.174-.333-.697-.68-1.37-1.404-1.947-2.196-.178-.216-.378-.504-.09-.703.287-.199.486.088.69.26.789.728 1.532 1.433 2.322 2.162.27.267.469.554.572.908l-.125.228c-.187.017-.238.108-.267.27-.046-.025-.07.02-.116-.004l-.275-.15c-.091-.05-.203-.171-.295-.221.05-.092.005-.117-.091-.05-.091-.05-.158-.146-.204-.171z" fill="#E1E1E1" fill-opacity=".6"/>
  <path d="M16.163 79.621c-.54-.533-1.105-1.02-1.574-1.575-.56-.604-.955-1.295-1.49-1.945-.266-.383-.162-.682.105-.952.313-.245.512.042.645.234a136.242 136.242 0 013.168 3.22c.316.292.186.637-.035.932-.22.295-.524.307-.82.086zm-.012-.304c.253.08.432.296.582.022.146-.158.27-.386.067-.557-.722-.634-1.274-1.47-2.047-2.013-.137-.075-.295-.22-.44-.063-.147.158-.105.3-.018.466.527.883 1.274 1.47 1.856 2.145z" fill="#D1D1D1"/>
  <path d="M19.01 86.469c.171-.204.226-.412.002-.653-.112-.121-.25-.196-.15-.38.1-.182.263-.153.425-.123.229.125.35.013.404-.195.15-.275.275-.503.471-.752.212-.063.346-.524.662-.232.27.266-.063.44-.072.673-.059.325-.508.495-.243.878.046.025.092.05.067.096.298.757.298.757-.497.797-.536.004-.554.47-.75.719-.37.57-.487.565-.84.015l.125-.228.075-.138c.121-.112.221-.295.322-.477zM33.534 44.207c.075-.137.009-.233-.103-.354-.337-.362-.32-.828.043-1.164.146-.158.283-.083.466.017.478.321 1.026.622 1.504.943.34.246.282.57.061.865-.246.34-.313.898-.953.548-.27-.267-.657-.538-1.018-.855z" fill="#E1E1E1" fill-opacity=".6"/>
  <path d="M39.998 39.783c.466.018.707.447 1.118.672 1.737.951 3.404 1.923 5.216 2.737-.15.274-.358.22-.587.095l-5.485-3.004c-.204-.171-.412-.225-.262-.5zM32.7 48.445l.336.362-1.001 1.83c-.661-.422-1.322-.843-1.812-1.468l.823.45c.732.401.732.401 1.132-.33.221-.295.371-.57.522-.844zM39.072 41.475c-.732-.4-1.459-.918-2.115-1.455-.498-.392-1.093-.717-1.641-1.018.2-.366.4-.078.536-.003 1.173.464 1.974 1.496 3.12 2.006.23.125.2.287.1.47zM29.837 48.898c-.753.182-.937.735-.493 1.334.133.192.311.409.444.6-.462-.134-.777-.425-.997-.784-.286-.454.142-.694.272-1.04.104-.298.337-.29.616-.256.116.004.137.075.158.146zM20.555 85.71c-.311-.408.138-.578.243-.877.054-.208.341-.408.071-.674-.315-.292-.424.124-.661.232.15-.275.167-.74.695-.51.412.224.424.528.198.94-.22.294-.37.569-.546.889zM21.152 62.266c-.35.64.173.986.509 1.349.133.191.432.296.373.62-.528-.23-.814-.683-1.125-1.091-.245-.313-.253-.733.243-.878zM37.344 37.795l2.044 1.476c-.308.128-.578-.139-.782-.31-.432-.295-1.005-.55-1.262-1.166zM37.554 35.89c-.75.066-1.108.938-.735 1.559-.44-.063-.549-.3-.394-.691.109-.416.284-.736.596-.981.267-.27.404-.195.533.113zM23.888 79.513a4.06 4.06 0 001.064-1.617c.156.8-.315 1.552-1.064 1.617zM48.192 42.072a4.545 4.545 0 01-1.538-.664c.657-.116 1.08.413 1.538.664zM12.428 92.194c.33-.057.583.022.615.397-.232-.01-.486-.089-.615-.397zM14.643 93.467c.354-.104.537-.004.665.305-.329.057-.486-.089-.665-.305zM26.07 80.41c.284-.082.537-.002.786.193-.333.175-.561.05-.786-.192zM50.239 42.895c-.42.007-.736-.284-1.106-.368.428-.24.74.167 1.105.368zM27.064 80.658c.283-.083.561-.05.786.192-.288.2-.587.095-.786-.192zM13.41 92.79c.278.035.507.16.731.401-.424.124-.603-.092-.731-.4zM39.465 37.174c-.32-.175-.64-.35-.84-.638.32.176.741.168.84.638zM15.653 93.9c.267-.269.466.018.695.143-.313.245-.466-.017-.695-.142zM13.07 88.743c.037.258-.134.462-.234.644-.174-.333-.12-.54.234-.644zM41.307 38.48c-.254-.08-.458-.251-.61-.513.228.125.577.138.61.512zM35.02 39.434a.723.723 0 01-.225.412c-.2-.287-.124-.425.225-.412zM32.342 48.012c.233.008.3.104.29.337-.207-.054-.37-.084-.29-.337zM24.957 77.78c-.183-.1-.295-.22-.15-.379.138.075.25.196.15.379zM22.832 91.533c.171-.204.308-.128.466.017-.167.088-.308.129-.466-.017zM44.776 40.498c-.258.037-.441-.063-.549-.3.233.009.39.154.549.3zM17.747 80.31l-.325.594c-.012-.303.088-.486.325-.594zM14.1 88.058c-.1.183-.176.32-.404.195.12-.112.242-.224.404-.195zM24.683 76.977c-.208-.055-.228-.125-.128-.308.137.075.133.191.128.308zM18.423 79.076l-.25.457c-.062-.212.038-.395.25-.457zM20.201 72.68l.274.151c-.145.158-.237.108-.274-.15zM20.592 72.835c.075-.137.104-.3.267-.27-.005.117-.034.279-.267.27zM43.908 40.023c-.141.041-.233-.01-.228-.126l.228.126z" fill="#D1D1D1"/>
  <path d="M14.265 87.971c-.025.046-.096.066-.166.087.07-.02.141-.041.166-.087zM18.143 79.695c.02.07-.005.117.016.187.004-.116.03-.162-.016-.187zM18.685 78.922c-.07.02-.096.067-.166.087.07-.02.095-.066.166-.087zM19.814 72.41c.096-.067.142-.042.091.05l-.091-.05zM23.694 91.588c.05-.091.096-.066.187-.016-.07.02-.141.041-.187.016zM14.408 87.93c-.005.116-.05.091-.142.041l.142-.041z" fill="#D1D1D1"/>
  <path d="M42.3 28.743c1.37.75 2.742 1.502 4.088 2.298.412.226.67.189.94-.198.172-.203.255-.573.605-.56.582.021.89.546.639 1.003-.4.732-.822 1.392-1.268 2.099-.2.366-.52.19-.75.065l-5.073-2.778c-.195-.404.117-.65.247-.994.246-.34.396-.615.571-.935z" fill="#E1E1E1" fill-opacity=".6"/>
  <path d="M36.126 44.14c-.402-.457.03-.814.272-1.039.267-.27.488-.565.572-.935.789.73 1.728 1.184 2.617 1.73 1.733 1.069 3.587 2.024 5.445 2.863.228.125.507.159.76.239.204.17.408.341.736.284l.229.125c-.03.162.108.237.2.287.39.155.59.442.435.833-.18.436-.36.873-.958.664-.162-.03-.375.032-.562.049-.208-.055-.416-.11-.623-.163l-.503-.276c-.3-.104-.387-.27-.212-.59.226-.412.072-.675-.293-.875l-2.469-1.352a6.978 6.978 0 01-.89-.546c.005-.116-.086-.166-.228-.125-.366-.2-.731-.4-1.026-.622-.017-.187-.083-.283-.275-.15l-.365-.2c-.56-.604-1.297-.888-2.007-1.218-.046-.025-.096.067-.167.087-.358.22-.421.66-.688.93zM33.275 73.005c-.715-.213-1.455-.38-2.179-.361-.228-.125-.432-.296-.66-.421l.65-1.189c.497-.798.896-.876 1.744-.471l.503.275c.153.262.486.088.665.305.332.479.185 1.29-.435 1.663-.117-.004-.213.062-.288.2z" fill="#C1C1C1"/>
  <path d="M21.712 87.176c-.203-.171-.482-.205-.353-.55.15-.274.321-.478.692-.394.81.147 1.617.41 2.478.466.907.08 1.755.485 2.716.358.258-.037.648.117.635.467-.013.35-.396.615-.72.556-1.672-.202-3.348-.288-4.986-.77-.188.017-.325-.058-.462-.133z" fill="#E1E1E1" fill-opacity=".6"/>
  <path d="M39.342 56.717c.117.004.28.034.395.038l.624.163.32.175c.137.076.25.196.34.246.575.255.749.588.54 1.187-.164.624-.609.677-1.12.634a.407.407 0 00-.283.083 2.162 2.162 0 00-.807-.263c-.39-.155-.86-.055-1.076-.53.125-.229.275-.503.355-.757.403-.194.466-.635.712-.976zM35.479 65.833c-.35-.013-.674-.072-.969-.293l.877-1.6c.225-.411.553-.469.944-.314.528.23 1.006.55 1.554.85.092.05.23.126.225.242.099.47-.33.711-.485 1.102-.054.208-.495.145-.748.065-.391-.154-.74-.167-1.12-.018l-.09-.05c-.072.02-.142.041-.188.016z" fill="#C1C1C1"/>
  <path d="M27.77 76.765c-.274-.15-.457-.25-.357-.433.1-.183.154-.39.412-.428.4-.078.67.189.994.247 1.115.135 2.22.503 3.34.522.349.013.698.026.68.492-.017.465-.212.715-.703.743-.446.053-.786-.193-1.227-.256-1.09-.18-2.095-.731-3.14-.887z" fill="#E1E1E1" fill-opacity=".6"/>
  <path d="M37.979 62.568c-.183-.1-.411-.226-.644-.234-.674-.072-.823-.451-.406-.995l.1-.183c.667-1.002 1.183-1.076 2.134-.317.092.05.204.17.295.22.158.147.507.16.474.438-.06.325-.118.65-.314.898-.125.229-.429.241-.703.09a.825.825 0 00-.936.083z" fill="#C1C1C1"/>
  <path d="M27.76 83.296c.27.267.602.093.902.197.299.105.619.28.464.67-.109.416-.417.545-.832.436l-3.817-.842a.66.66 0 01-.3-.105c-.203-.17-.648-.117-.469-.554.18-.436.475-.215.799-.156 1.085.297 2.145.64 3.252.354 0 0-.025.046 0 0z" fill="#E1E1E1" fill-opacity=".6"/>
  <path d="M33.687 66.933l.213-.062c.157.145.34.246.582.021l.548.3c-.083.37.216.475.47.555.365.2.336.362.115.657-.371.57-.78.88-1.449.693-.116-.005-.212.062-.333.174-.34-.246-.72-.097-1.09-.18-.103-.355.047-.629.223-.949.316-.361.496-.798.721-1.21z" fill="#C1C1C1"/>
  <path d="M40.681 57.093l-.32-.175c-.003-.536.339-.944.726-1.326.046.025.046.025.116.005.25.196.458.25.786.192.27.267.665.305 1.036.389.415.109.76.238.622.816-.163.624-.592.864-1.1.706a6.005 6.005 0 01-1.263-.514c-.228-.125-.386-.271-.603-.093z" fill="#E1E1E1" fill-opacity=".6"/>
  <path d="M41.177 55.642c-.045-.025-.045-.025-.116-.004-.599-.209-.657-.538-.29-.99l.05-.092c.71-1.513 1.017-.988 2.206-.337.274.15.26.5.136.728-.155.39-.355.756-.825.855-.142.042-.254-.08-.4.079-.25-.196-.428-.413-.76-.239z" fill="#C1C1C1"/>
  <path d="M38.004 62.522c.432.296.994.247 1.45.497.275.15.575.255.395.691-.18.437-.38.803-.887.644-.67-.189-1.343-.26-1.913-.632-.228-.125-.527-.23-.423-.529.13-.345.35-.64.77-.647.209.054.437.18.608-.024 0 0-.025.046 0 0z" fill="#E1E1E1" fill-opacity=".6"/>
  <path d="M44.839 52.537c-.702-.563-1.41-.356-2.038-.403-.395-.038-.599-.209-.328-.595l.451-.823c.125-.229.163-.624.508-.494.508.158 1.136.205 1.417.776.021.07.063.212.038.258-.246.34-.097.72-.048 1.28z" fill="#C1C1C1"/>
  <path d="M42.994 53.844c-.178-.216-.694-.142-.49-.625.155-.39.36-.873.913-.689.578.139 1.13.322 1.683.506.483.205.282.57.132.845-.13.345-.355.757-.907.573-.412-.226-.848-.405-1.33-.61zM39.371 59.05c.304-.011.603.093.807.264.27.267.665.305 1.035.388.37.084.624.164.49.625-.11.416-.31.782-.775.764-.816-.03-1.522-.476-2.157-.943-.341-.246.092-.603.313-.898.12-.112.191-.133.287-.2zM45.274 49.03l.624.164c.149.379.594.325.893.43.549.3.373.62.173.986-.154.39-.37.57-.828.319-.412-.225-.827-.334-1.239-.56-.274-.15-.573-.254-.49-.624.105-.3.168-.74.7-.627.046.025.096-.067.167-.087z" fill="#E1E1E1" fill-opacity=".6"/>
  <path d="M18.66 87.109l-.125.228c-.276.503-.77.648-1.337.813.35-.64.68-1.35 1.122-1.94.246-.341.512.042.665.304l-.3.549c-.066-.096-.091-.05-.025.046z" fill="#C1C1C1"/>
  <path d="M47.216 21.392c-.05.091-.1.183-.237.108 0 0-.046-.025-.02-.071.05-.091.14-.041.257-.037zM50.321 35.69c-.686-.376-.934-1.225-.508-2.002.375-.686 1.295-.955 1.935-.604.731.4 1.005 1.204.63 1.89-.426.777-1.371 1.091-2.057.716z" fill="#E1E1E1" fill-opacity=".6"/>
  <path d="M28.151 57.186c.442-.59.61-1.33 1.164-1.8.229.125.128.308.028.491-.275.503-.55 1.006-.872 1.484-.05.091-.104.3-.241.224-.137-.075-.083-.283-.079-.4zM30.066 54.015l1.076-1.966c.117.004.375-.033.25.196-.305.665-.635 1.376-1.214 1.89-.05.092-.117-.004-.112-.12zM32.08 50.661l1.002-1.829c.116.005.374-.032.249.196-.28.62-.605 1.214-1.068 1.733-.096.066-.162-.03-.183-.1z" fill="#C1C1C1"/>
  <path d="M33.687 66.933l-.7 1.28c-.15.274-.326.594-.223.948-.187.016-.324-.059-.386-.271-.074-.516.814-1.813 1.31-1.957z" fill="#D1D1D1"/>
  <path d="M26.224 60.706c.35-.64.726-1.326 1.122-1.941.275.15.175.333.075.516-.276.503-.597.98-.918 1.459-.075.137-.217.178-.279-.034z" fill="#C1C1C1"/>
  <path d="M36.814 43.21c.07-.02.12-.112.166-.087.71.33 1.472.568 2.007 1.218-.856-.172-1.488-.755-2.173-1.13zM39.341 56.717c-.246.34-.309.782-.692 1.047.042-.511.105-.952.692-1.047zM30.459 72.177c.229.125.432.296.66.421-.424.124-.703.09-.66-.421zM34.438 66.867c-.171.204-.38.15-.583-.021a.577.577 0 01.583.021zM40.7 45.338c.142-.041.188-.016.23.125-.167.087-.259.037-.23-.125zM39.354 44.541c.166-.087.258-.037.274.15a.332.332 0 01-.274-.15zM35.479 65.833c.046.025.116.005.162.03-.07.02-.142.04-.162-.03zM46.529 47.282c-.283.082-.508-.16-.736-.284.283-.083.507.158.736.284z" fill="#D1D1D1"/>
  <path d="M11.356 79.069c.628.046.798.496 1.089.833.764.775 1.457 1.57 2.221 2.346.224.242.216.474.02.724-.292.315-.42.007-.578-.138-.901-.85-1.753-1.792-2.437-2.82-.174-.334-.328-.596-.315-.945zM18.925 75.665c-.2.366-.372.57-.687.278a13.374 13.374 0 01-2.288-2.441c-.112-.121-.179-.217-.15-.38.03-.161-.032-.373.135-.46.141-.042.278.033.39.154l2.505 2.263c.203.17.265.383.095.586zM9.408 82.518c.74.168.997.784 1.4 1.242.56.604 1.05 1.229 1.636 1.787.112.121.224.242.311.408.179.217.079.4-.067.558-.217.178-.375.032-.487-.088-.606-.63-1.237-1.213-1.748-1.908-.444-.6-.984-1.133-1.045-1.999zM16.152 79.318c-.581-.675-1.375-1.288-1.856-2.146-.087-.166-.128-.308.018-.466.145-.157.328-.057.44.063.773.542 1.325 1.38 2.048 2.013.203.17.078.4-.068.557-.15.275-.354.104-.582-.021z" fill="#E1E1E1" fill-opacity=".6"/>
  <path d="M18.66 87.109c-.067-.096-.042-.142.075-.137l-.075.137zM41.177 55.642c.333-.174.512.043.786.193-.283.083-.537.003-.786-.193z" fill="#D1D1D1"/>
</svg>
